<svg xmlns="http://www.w3.org/2000/svg" width="136.528" height="88.206" viewBox="0 0 136.528 88.206">
  <g id="_1077283_106240-ON3W2E-152-02" data-name="1077283_106240-ON3W2E-152-02" transform="translate(76 -93.442)">
    <g id="ARTBOARD_2" transform="translate(-76 94.216)">
      <g id="Group_1696" data-name="Group 1696" transform="translate(0 -1)">
        <path id="Path_3182" data-name="Path 3182" d="M136.528,360h0Z" transform="translate(0 -271.568)" fill="#fffaef"/>
        <path id="Path_3232" data-name="Path 3232" d="M0,0H29.056V8.912H0Z" transform="translate(53.733 26.075)" fill="#0099df"/>
        <path id="Path_3146" data-name="Path 3146" d="M419.332,273.659h-6.009l3-3.631-3-3.631h6.009Z" transform="translate(-366.3 -238.673)" fill="#0099df"/>
        <path id="Path_3147" data-name="Path 3147" d="M733.861,273.659h6.009l-3-3.631,3-3.631h-6.009Z" transform="translate(-650.37 -238.673)" fill="#0099df"/>
        <g id="Group_1667" data-name="Group 1667" transform="translate(53.407 55.313)">
          <path id="Path_3148" data-name="Path 3148" d="M599.887,644.755h-.034V629.745l.017.018.017.017,1.089,1.132,1.143,1.188,1.79,1.859s-.011.108-.014.3h0a9.73,9.73,0,0,0,1.222,4.82S605.845,644.676,599.887,644.755Z" transform="translate(-585.015 -615.996)" fill="#ce7e6a"/>
          <path id="Path_3149" data-name="Path 3149" d="M646.692,712.691a3.183,3.183,0,0,1-.539-.839A8.7,8.7,0,0,0,646.692,712.691Z" transform="translate(-626.047 -688.761)" fill="#ce7e6a"/>
          <path id="Path_3150" data-name="Path 3150" d="M614.72,721.832H599.854v-4.359h.034c5.959-.079,5.231-5.675,5.231-5.675l0,.006a21.577,21.577,0,0,0,6.113,4.629A5.705,5.705,0,0,1,614.72,721.832Z" transform="translate(-585.016 -688.713)" fill="#0099df"/>
          <path id="Path_3151" data-name="Path 3151" d="M600.017,761.678h0Z" transform="translate(-585.145 -732.919)" fill="#abd3cb"/>
          <path id="Path_3152" data-name="Path 3152" d="M549.6,711.812a3.118,3.118,0,0,1-.547.851A8.681,8.681,0,0,0,549.6,711.812Z" transform="translate(-539.998 -688.726)" fill="#ce7e6a"/>
          <path id="Path_3153" data-name="Path 3153" d="M558.919,629.745v15.011h-.034c-5.959-.079-5.231-5.675-5.231-5.675a9.718,9.718,0,0,0,1.221-4.845c0-.178-.013-.277-.013-.277l1.813-1.882,1.121-1.164,1.089-1.132.017-.017Z" transform="translate(-544.047 -615.996)" fill="#ce7e6a"/>
          <path id="Path_3154" data-name="Path 3154" d="M546.465,523.532v18.12s-6.758-.86-6.758-6.572S538.045,523.348,546.465,523.532Z" transform="translate(-531.594 -521.863)" fill="#e1a889"/>
          <path id="Path_3155" data-name="Path 3155" d="M600.148,523.532v18.12s6.759-.86,6.759-6.572S608.569,523.348,600.148,523.532Z" transform="translate(-585.276 -521.863)" fill="#e7bb9f"/>
          <path id="Path_3156" data-name="Path 3156" d="M484.268,717.471v4.36H469.436a5.7,5.7,0,0,1,3.485-5.4,21.938,21.938,0,0,0,6.116-4.633v0S478.309,717.393,484.268,717.471Z" transform="translate(-469.43 -688.712)" fill="#0099df"/>
          <path id="Path_3157" data-name="Path 3157" d="M599.871,761.679h0Z" transform="translate(-585.016 -732.919)" fill="#abd3cb"/>
          <path id="Path_3158" data-name="Path 3158" d="M582.976,639.995a2.529,2.529,0,0,1-5.058,0Z" transform="translate(-565.575 -625.079)" fill="#fff"/>
          <path id="Path_3159" data-name="Path 3159" d="M538.465,513.478a11.621,11.621,0,0,1-4.55-1.078c-1.843-1.048-.3,6.572-2.3,6.572h-1.036v-2.885s-.674-7.609,7.881-7.178Z" transform="translate(-523.615 -508.892)" fill="#fcb64e"/>
          <path id="Path_3160" data-name="Path 3160" d="M597.9,513.478a11.62,11.62,0,0,0,4.55-1.078c1.843-1.048.3,6.572,2.3,6.572h1.036v-2.885s.674-7.609-7.882-7.178Z" transform="translate(-583.287 -508.892)" fill="#fcb64e"/>
          <path id="Path_3161" data-name="Path 3161" d="M521.2,595.307a1.481,1.481,0,1,1-1.481-1.481A1.481,1.481,0,0,1,521.2,595.307Z" transform="translate(-512.683 -584.163)" fill="#e1a889"/>
          <path id="Path_3162" data-name="Path 3162" d="M660.311,595.307a1.481,1.481,0,1,1-1.481-1.481A1.481,1.481,0,0,1,660.311,595.307Z" transform="translate(-635.97 -584.163)" fill="#e7bb9f"/>
        </g>
        <text id="Contact_Us" data-name="Contact Us" transform="translate(58.932 32.03)" fill="#fffaef" font-size="4" font-family="SegoeUI, Segoe UI"><tspan x="0" y="0">Contact Us</tspan></text>
        <circle id="Ellipse_29" data-name="Ellipse 29" cx="9.67" cy="9.67" r="9.67" transform="translate(58.591 0.226)" fill="#0099df"/>
        <rect id="Rectangle_1086" data-name="Rectangle 1086" width="34.912" height="9.408" transform="translate(50.805 38.221)" fill="none"/>
        <g id="Group_1668" data-name="Group 1668" transform="translate(90.799 30.53)">
          <circle id="Ellipse_30" data-name="Ellipse 30" cx="9.67" cy="9.67" r="9.67" fill="#4a7789"/>
          <path id="Path_3163" data-name="Path 3163" d="M859.156,334.614c-.475-1.179-1.091-2.525-2.27-2.05a2.292,2.292,0,0,0-.885.635,7.142,7.142,0,0,1-1.266-2.973c-.013-.071-.024-.141-.035-.21a2.292,2.292,0,0,0,1.1-.154c1.179-.475,1.026-1.04.551-2.219s-1.092-2.525-2.27-2.05a2.3,2.3,0,0,0-1.44,2.052,9.718,9.718,0,0,0,.059,2.843,9.26,9.26,0,0,0,1.153,3.169,9.792,9.792,0,0,0,2.084,2.46,2.3,2.3,0,0,0,2.671.716C859.784,336.357,859.63,335.793,859.156,334.614Z" transform="translate(-846.365 -321.577)" fill="#fffaef"/>
        </g>
        <g id="Group_1669" data-name="Group 1669" transform="translate(26.383 30.53)">
          <circle id="Ellipse_31" data-name="Ellipse 31" cx="9.67" cy="9.67" r="9.67" fill="#4a7789"/>
          <path id="Path_3164" data-name="Path 3164" d="M285.639,318.162a4.013,4.013,0,0,0-4.013,4.013c0,2.834,4.013,9.265,4.013,9.265s4.013-6.019,4.013-9.265A4.013,4.013,0,0,0,285.639,318.162Zm0,5.694a1.787,1.787,0,1,1,1.787-1.787A1.787,1.787,0,0,1,285.639,323.856Z" transform="translate(-275.969 -315.078)" fill="#fffaef"/>
        </g>
        <g id="Group_1670" data-name="Group 1670" transform="translate(33.581)">
          <circle id="Ellipse_32" data-name="Ellipse 32" cx="9.67" cy="9.67" r="9.67" transform="translate(0 6.734)" fill="#fcb64e"/>
          <text id="_" data-name="@" transform="translate(1.17 22)" fill="#fffaef" font-size="18" font-family="SegoeUI, Segoe UI"><tspan x="0" y="0">@</tspan></text>
        </g>
        <g id="Group_1672" data-name="Group 1672" transform="translate(83.601 6.734)">
          <circle id="Ellipse_33" data-name="Ellipse 33" cx="9.67" cy="9.67" r="9.67" fill="#fcb64e"/>
          <g id="Group_1671" data-name="Group 1671" transform="translate(3.641 2.307)">
            <rect id="Rectangle_1087" data-name="Rectangle 1087" width="12.06" height="7.183" transform="translate(0 4.816)" fill="#fffaef"/>
            <path id="Path_3165" data-name="Path 3165" d="M766.83,144.5l6.03,4.786,6.03-4.786Z" transform="translate(-766.83 -139.68)" fill="#db9c32"/>
            <path id="Path_3166" data-name="Path 3166" d="M778.89,106.953l-6.03-4.786-6.03,4.786Z" transform="translate(-766.83 -102.167)" fill="#fffaef"/>
            <path id="Path_3167" data-name="Path 3167" d="M788.356,120.314h-4.041v4.33l4.041,3.207,4.041-3.207v-4.33Z" transform="translate(-782.326 -118.249)" fill="#f0e9c7"/>
          </g>
        </g>
        <g id="Group_1678" data-name="Group 1678" transform="translate(82.179 52.146)">
          <ellipse id="Ellipse_34" data-name="Ellipse 34" cx="9.67" cy="9.67" rx="9.67" ry="9.67" transform="translate(0 3.098) rotate(-9.218)" fill="#d25b30"/>
          <g id="Group_1673" data-name="Group 1673" transform="translate(10.933 11)">
            <rect id="Rectangle_1088" data-name="Rectangle 1088" width="4.574" height="1.051" transform="translate(0.743 0) rotate(45)" fill="#e8d8a3"/>
          </g>
          <g id="Group_1674" data-name="Group 1674" transform="translate(12.089 12.157)">
            <path id="Path_3168" data-name="Path 3168" d="M830.236,588.174a.977.977,0,0,0-1.381,1.381h0l3.412,3.411.011-.011a.977.977,0,0,0,1.361-1.361l.011-.011-3.412-3.412Z" transform="translate(-828.592 -587.91)" fill="#fcb64e"/>
          </g>
          <g id="Group_1675" data-name="Group 1675" transform="translate(13.772 13.25)">
            <path id="Path_3169" data-name="Path 3169" d="M845.94,599.63l0,0-.88-.88,0,0-1.139-1.139h0a.326.326,0,0,0-.461.461h0l.85.85a.31.31,0,0,0,.027.034h0l1.139,1.139,0,0a.326.326,0,0,0,.454-.454Z" transform="translate(-843.379 -597.516)" fill="#fffaef"/>
          </g>
          <g id="Group_1676" data-name="Group 1676" transform="translate(4.667 4.735)">
            <path id="Path_3170" data-name="Path 3170" d="M764.6,523.916a4.258,4.258,0,1,0,6.021,0A4.258,4.258,0,0,0,764.6,523.916Zm5.306,5.307a3.247,3.247,0,1,1,0-4.592A3.247,3.247,0,0,1,769.9,529.222Z" transform="translate(-763.35 -522.669)" fill="#fffaef"/>
          </g>
          <g id="Group_1677" data-name="Group 1677" transform="translate(8.924 6.636)">
            <path id="Path_3171" data-name="Path 3171" d="M802.749,540.367a.988.988,0,1,1-.988-.988A.988.988,0,0,1,802.749,540.367Z" transform="translate(-800.773 -539.379)" fill="#fffaef"/>
          </g>
        </g>
        <g id="Group_1694" data-name="Group 1694" transform="translate(32.158 52.147)">
          <ellipse id="Ellipse_35" data-name="Ellipse 35" cx="9.67" cy="9.67" rx="9.67" ry="9.67" transform="translate(0 19.091) rotate(-80.782)" fill="#d25b30"/>
          <rect id="Rectangle_1089" data-name="Rectangle 1089" width="10.072" height="12.274" transform="translate(5.196 4.879)" fill="#fffaef"/>
          <g id="Group_1680" data-name="Group 1680" transform="translate(6.052 5.819)">
            <g id="Group_1679" data-name="Group 1679">
              <path id="Path_3172" data-name="Path 3172" d="M337,532.784a.572.572,0,1,1-.571-.571A.572.572,0,0,1,337,532.784Z" transform="translate(-335.857 -532.213)" fill="#d25b30"/>
            </g>
          </g>
          <g id="Group_1682" data-name="Group 1682" transform="translate(6.052 8.519)">
            <g id="Group_1681" data-name="Group 1681">
              <path id="Path_3173" data-name="Path 3173" d="M337,556.514a.572.572,0,1,1-.571-.571A.572.572,0,0,1,337,556.514Z" transform="translate(-335.857 -555.943)" fill="#d25b30"/>
            </g>
          </g>
          <g id="Group_1684" data-name="Group 1684" transform="translate(6.052 11.557)">
            <g id="Group_1683" data-name="Group 1683">
              <path id="Path_3174" data-name="Path 3174" d="M337,583.224a.572.572,0,1,1-.571-.572A.571.571,0,0,1,337,583.224Z" transform="translate(-335.857 -582.652)" fill="#d25b30"/>
            </g>
          </g>
          <g id="Group_1686" data-name="Group 1686" transform="translate(6.052 14.689)">
            <g id="Group_1685" data-name="Group 1685">
              <path id="Path_3175" data-name="Path 3175" d="M337,610.752a.572.572,0,1,1-.571-.572A.571.571,0,0,1,337,610.752Z" transform="translate(-335.857 -610.181)" fill="#d25b30"/>
            </g>
          </g>
          <rect id="Rectangle_1090" data-name="Rectangle 1090" width="5.676" height="0.571" transform="translate(8.263 6.163)" fill="#d25b30"/>
          <rect id="Rectangle_1091" data-name="Rectangle 1091" width="5.676" height="0.571" transform="translate(8.263 8.805)" fill="#d25b30"/>
          <rect id="Rectangle_1092" data-name="Rectangle 1092" width="5.676" height="0.571" transform="translate(8.263 11.788)" fill="#d25b30"/>
          <rect id="Rectangle_1093" data-name="Rectangle 1093" width="5.676" height="0.571" transform="translate(8.263 14.975)" fill="#d25b30"/>
          <g id="Group_1693" data-name="Group 1693" transform="translate(9.341 9.348)">
            <g id="Group_1687" data-name="Group 1687" transform="translate(0.641 6.752)">
              <path id="Path_3176" data-name="Path 3176" d="M372.609,624.157l-1.412.63-.794-.794.631-1.411,1.222.353Z" transform="translate(-370.403 -622.582)" fill="#e6e5c0"/>
            </g>
            <g id="Group_1688" data-name="Group 1688" transform="translate(2.477)">
              <path id="Path_3177" data-name="Path 3177" d="M388.378,570.1a.869.869,0,0,1-1.229,0l-.349-.348a.87.87,0,0,1,0-1.229l5.032-5.032a.869.869,0,0,1,1.229,0l.349.349a.869.869,0,0,1,0,1.229Z" transform="translate(-386.546 -563.234)" fill="#9a3032"/>
            </g>
            <g id="Group_1689" data-name="Group 1689" transform="translate(1.277 1.299)">
              <rect id="Rectangle_1094" data-name="Rectangle 1094" width="7.712" height="2.228" transform="matrix(0.707, -0.707, 0.707, 0.707, 0, 5.454)" fill="#9a3032"/>
            </g>
            <g id="Group_1690" data-name="Group 1690" transform="translate(2.863 2.458)">
              <path id="Path_3178" data-name="Path 3178" d="M390.412,589.528a.279.279,0,0,1-.393,0h0a.279.279,0,0,1,0-.394l4.218-4.218a.278.278,0,0,1,.393,0h0a.278.278,0,0,1,0,.394Z" transform="translate(-389.937 -584.835)" fill="#cb3c2c"/>
            </g>
            <g id="Group_1691" data-name="Group 1691" transform="translate(6.724 0.892)">
              <rect id="Rectangle_1095" data-name="Rectangle 1095" width="0.579" height="2.228" transform="translate(0 0.41) rotate(-45)" fill="#e6e5c0"/>
            </g>
            <g id="Group_1692" data-name="Group 1692" transform="translate(0 8.163)">
              <path id="Path_3179" data-name="Path 3179" d="M365.411,634.981l.794.794-1.435.639Z" transform="translate(-364.77 -634.981)" fill="#9a3032"/>
            </g>
          </g>
        </g>
        <g id="Group_1695" data-name="Group 1695" transform="translate(60.975 4.754)">
          <path id="Path_3180" data-name="Path 3180" d="M582.709,69.118a4.627,4.627,0,1,1,5.909,4.445,4.168,4.168,0,0,0,1.872,1.62,4.8,4.8,0,0,1-3.541-1.456A4.626,4.626,0,0,1,582.709,69.118Z" transform="translate(-577.39 -64.491)" fill="#f0e9c7"/>
          <path id="Path_3181" data-name="Path 3181" d="M545.21,69.118a4.627,4.627,0,1,0-5.909,4.445,4.168,4.168,0,0,1-1.872,1.62,4.8,4.8,0,0,0,3.541-1.456A4.626,4.626,0,0,0,545.21,69.118Z" transform="translate(-535.957 -64.491)" fill="#fffaef"/>
        </g>
      </g>
    </g>
  </g>
</svg>
