<svg xmlns="http://www.w3.org/2000/svg" width="287.551" height="323.501" viewBox="0 0 287.551 323.501">
  <g id="_5841951_2968288" data-name="5841951_2968288" transform="translate(-69.511 -27.926)">
    <g id="Background_Complete" transform="translate(84.331 91.311)">
      <g id="Group_1106" data-name="Group 1106" transform="translate(0 0)">
        <rect id="Rectangle_663" data-name="Rectangle 663" width="189.554" height="241.599" transform="translate(0 19.846) rotate(-6.01)" fill="#e0e0e0"/>
      </g>
      <g id="Group_1107" data-name="Group 1107" transform="translate(9.08 5.109)">
        <rect id="Rectangle_664" data-name="Rectangle 664" width="188.72" height="222.194" transform="translate(0 28.006) rotate(-8.534)" fill="#ebebeb"/>
      </g>
      <g id="Group_1123" data-name="Group 1123" transform="translate(179.122 24.358)">
        <g id="Group_1108" data-name="Group 1108">
          <path id="Path_1719" data-name="Path 1719" d="M424.262,148.33s-7.387-4.885-16.394,12.786-12.418,27.862-12.418,27.862-2.381,3.7-4.924,1.283-6.026-9.285-10.35-8.049c-4.483,1.282-5.96,6.286-5.1,13.638s2.137,23.53,2.247,24.993c.108,1.436-.714,3.553-2.711,2.182s-13.483-14.163-19.227-8.349,0,25.905.59,28.113.154,3.151-.9,3.7-4.5-4.117-7.921-7.621-7.991-6.969-11.024-3.337-4,18.707,10.344,43.193l7.39,10.911,13.217-.733c28.188-3.293,39.638-13.146,40.711-17.755s-4.449-6.174-9.3-6.791-10.659-.567-10.854-1.733.3-2.08,2.414-2.942,21.616-8.373,22.8-16.46S396.9,233.665,394.6,232.9s-1.1-2.7.109-3.478c1.234-.793,14.921-9.512,21.305-13.258s9.49-7.937,7.813-12.288c-1.617-4.2-9.195-2.842-12.659-3.415s-1.941-4.7-1.941-4.7,6.081-8.861,14.764-26.693.11-20.82.11-20.82" transform="translate(-334.273 -147.711)" fill="#e0e0e0"/>
        </g>
        <g id="Group_1110" data-name="Group 1110" transform="translate(10.01 16.431)">
          <g id="Group_1109" data-name="Group 1109">
            <path id="Path_1720" data-name="Path 1720" d="M419.825,170.141s-.049.133-.163.383l-.516,1.105-2.021,4.232c-1.759,3.674-4.342,8.972-7.559,15.506-6.429,13.07-15.46,31.051-25.5,50.877s-19.115,37.793-25.609,50.83l-7.674,15.446-2.09,4.2-.553,1.087c-.127.244-.2.364-.2.364s.049-.133.163-.382l.516-1.105,2.021-4.232c1.759-3.674,4.342-8.971,7.559-15.505,6.429-13.071,15.462-31.053,25.5-50.886s19.11-37.784,25.6-50.821l7.675-15.447,2.09-4.2.553-1.088C419.751,170.261,419.825,170.141,419.825,170.141Z" transform="translate(-347.939 -170.141)" fill="#ebebeb"/>
          </g>
        </g>
        <g id="Group_1112" data-name="Group 1112" transform="translate(50.385 44.299)">
          <g id="Group_1111" data-name="Group 1111">
            <path id="Path_1721" data-name="Path 1721" d="M403.063,208.187a4.242,4.242,0,0,1,.333.894c.191.582.442,1.432.743,2.485.6,2.107,1.347,5.038,2.116,8.287.747,3.207,1.422,6.107,1.939,8.325.239,1,.441,1.841.6,2.518a4.255,4.255,0,0,1,.185.935,4.246,4.246,0,0,1-.339-.891c-.189-.583-.441-1.434-.73-2.49-.576-2.113-1.288-5.053-2.057-8.3-.77-3.2-1.466-6.094-2-8.307-.245-1-.451-1.839-.616-2.516A4.254,4.254,0,0,1,403.063,208.187Z" transform="translate(-403.057 -208.187)" fill="#ebebeb"/>
          </g>
        </g>
        <g id="Group_1114" data-name="Group 1114" transform="translate(57.52 60.268)">
          <g id="Group_1113" data-name="Group 1113">
            <path id="Path_1722" data-name="Path 1722" d="M412.8,237.7c-.032-.108,5.943-1.921,13.343-4.049s13.425-3.764,13.457-3.655-5.942,1.921-13.344,4.049S412.829,237.8,412.8,237.7Z" transform="translate(-412.798 -229.987)" fill="#ebebeb"/>
          </g>
        </g>
        <g id="Group_1116" data-name="Group 1116" transform="translate(40.728 96.791)">
          <g id="Group_1115" data-name="Group 1115">
            <path id="Path_1723" data-name="Path 1723" d="M389.874,280.789a4.437,4.437,0,0,1,.972-.045l2.645.01c2.232,0,5.315,0,8.717-.134s6.478-.344,8.7-.522l2.636-.207a4.411,4.411,0,0,1,.973-.029,4.46,4.46,0,0,1-.955.188c-.618.094-1.516.214-2.627.337-2.222.251-5.3.517-8.715.642s-6.5.093-8.737.015c-1.117-.044-2.021-.089-2.644-.139A4.538,4.538,0,0,1,389.874,280.789Z" transform="translate(-389.874 -279.846)" fill="#ebebeb"/>
          </g>
        </g>
        <g id="Group_1118" data-name="Group 1118" transform="translate(29.563 77.735)">
          <g id="Group_1117" data-name="Group 1117">
            <path id="Path_1724" data-name="Path 1724" d="M374.634,253.833a3.808,3.808,0,0,1,.516.738l1.275,2.087c1.061,1.771,1.923,4.811,4.073,6.961,1.571,2.731,2.973,5.214,3.969,7.022l1.163,2.151a3.843,3.843,0,0,1,.378.817,3.838,3.838,0,0,1-.516-.738l-1.275-2.086c-1.061-1.77-2.5-4.231-4.074-6.963s-2.972-5.213-3.969-7.021l-1.163-2.151A3.793,3.793,0,0,1,374.634,253.833Z" transform="translate(-374.631 -253.832)" fill="#ebebeb"/>
          </g>
        </g>
        <g id="Group_1120" data-name="Group 1120" transform="translate(11.402 102.121)">
          <g id="Group_1119" data-name="Group 1119">
            <path id="Path_1725" data-name="Path 1725" d="M349.841,287.124a6.2,6.2,0,0,1,.651.95l1.644,2.668c1.373,2.262,3.244,5.4,5.29,8.88s3.879,6.643,5.188,8.942l1.532,2.734a6.186,6.186,0,0,1,.513,1.031,6.165,6.165,0,0,1-.651-.95l-1.644-2.668c-1.373-2.262-3.245-5.4-5.291-8.882s-3.878-6.642-5.187-8.941l-1.532-2.734A6.222,6.222,0,0,1,349.841,287.124Z" transform="translate(-349.839 -287.123)" fill="#ebebeb"/>
          </g>
        </g>
        <g id="Group_1122" data-name="Group 1122" transform="translate(26.038 124.586)">
          <g id="Group_1121" data-name="Group 1121">
            <path id="Path_1726" data-name="Path 1726" d="M369.82,319.83a7.1,7.1,0,0,1,1.23-.088l3.353-.109c2.831-.1,6.741-.242,11.051-.526s8.209-.631,11.029-.908l3.339-.324a7.035,7.035,0,0,1,1.231-.072,7.085,7.085,0,0,1-1.212.231c-.784.122-1.92.281-3.327.454-2.814.349-6.714.75-11.034,1.028s-8.237.385-11.072.407c-1.418.007-2.565,0-3.358-.021A7.21,7.21,0,0,1,369.82,319.83Z" transform="translate(-369.82 -317.791)" fill="#ebebeb"/>
          </g>
        </g>
      </g>
    </g>
    <g id="Plants" transform="translate(69.511 224.194)">
      <g id="Group_1133" data-name="Group 1133" transform="translate(0 11.442)">
        <g id="Group_1124" data-name="Group 1124">
          <path id="Path_1727" data-name="Path 1727" d="M70.54,312.653a10.879,10.879,0,0,1,8.5-.574,19.2,19.2,0,0,1,7.311,4.681c4.06,3.927,6.606,9.911,8.066,15.367-6.152,1.23-12.518-2.3-15.635-4.288-4.926-3.148-11.919-11.83-8.24-15.187" transform="translate(-69.511 -311.486)" fill="#ff9eae"/>
        </g>
        <g id="Group_1125" data-name="Group 1125" transform="translate(30.408 3.174)">
          <path id="Path_1728" data-name="Path 1728" d="M116.213,334.583a9.281,9.281,0,0,1-5.163-7.757,12.323,12.323,0,0,1,3.293-8.935,5.19,5.19,0,0,1,3.853-2.069,3.97,3.97,0,0,1,3.225,2.4,8.053,8.053,0,0,1,.508,4.148c-.461,4.813-1.791,9.386-5.717,12.209" transform="translate(-111.023 -315.818)" fill="#ff9eae"/>
        </g>
        <g id="Group_1127" data-name="Group 1127" transform="translate(34.881 10.978)">
          <g id="Group_1126" data-name="Group 1126">
            <path id="Path_1729" data-name="Path 1729" d="M127.789,352.733a6.615,6.615,0,0,1-.81-.836l-2.122-2.354a32.59,32.59,0,0,1-5.93-8.622,19.934,19.934,0,0,1-1.661-10.295,13.488,13.488,0,0,1,.756-3.1,8.166,8.166,0,0,1,.343-.795c.086-.178.137-.269.149-.263a21.176,21.176,0,0,0-.96,4.186,20.586,20.586,0,0,0,1.749,10.1,35.081,35.081,0,0,0,5.773,8.6c.861,1.023,1.558,1.853,2.024,2.44A6.036,6.036,0,0,1,127.789,352.733Z" transform="translate(-117.129 -326.473)" fill="#ff9eae"/>
          </g>
        </g>
        <g id="Group_1129" data-name="Group 1129" transform="translate(6.938 7.308)">
          <g id="Group_1128" data-name="Group 1128">
            <path id="Path_1730" data-name="Path 1730" d="M78.983,321.463a2.315,2.315,0,0,1,.434.261l1.2.815c1.037.713,2.524,1.764,4.35,3.078,3.653,2.627,8.649,6.328,14.074,10.539s10.249,8.137,13.7,11.026c1.726,1.444,3.112,2.624,4.06,3.452l1.086.96a2.294,2.294,0,0,1,.36.356,2.362,2.362,0,0,1-.414-.293l-1.135-.9-4.142-3.351c-3.5-2.83-8.346-6.715-13.767-10.926S88.4,328.536,84.8,325.85l-4.272-3.182-1.154-.877A2.363,2.363,0,0,1,78.983,321.463Z" transform="translate(-78.982 -321.462)" fill="#ff9eae"/>
          </g>
        </g>
        <g id="Group_1130" data-name="Group 1130" transform="translate(10.405 27.952)">
          <path id="Path_1731" data-name="Path 1731" d="M106.629,352.2a21.707,21.707,0,0,0-19.832-.3c-1.562.79-3.212,2.124-3.073,3.868s1.991,2.806,3.674,3.3a18.546,18.546,0,0,0,19.528-6.494" transform="translate(-83.716 -349.644)" fill="#ff9eae"/>
        </g>
        <g id="Group_1132" data-name="Group 1132" transform="translate(18.173 30.051)">
          <g id="Group_1131" data-name="Group 1131">
            <path id="Path_1732" data-name="Path 1732" d="M94.321,355.3a5.6,5.6,0,0,1,.958-.528,10.544,10.544,0,0,1,1.17-.53c.469-.175.987-.423,1.6-.592a18.982,18.982,0,0,1,1.992-.551,21.277,21.277,0,0,1,2.337-.419,24.129,24.129,0,0,1,5.435-.03,23.623,23.623,0,0,1,5.281,1.289,20.518,20.518,0,0,1,2.169.968,17.53,17.53,0,0,1,1.8,1.024,16.066,16.066,0,0,1,1.4.976,9.756,9.756,0,0,1,.994.813,5.514,5.514,0,0,1,.787.76c-.059.071-1.2-1.006-3.331-2.3a18.685,18.685,0,0,0-1.795-.966,21.733,21.733,0,0,0-2.149-.919,24.574,24.574,0,0,0-5.2-1.236,25.133,25.133,0,0,0-5.344,0,22.552,22.552,0,0,0-2.307.376c-.723.127-1.376.329-1.979.5C95.74,354.647,94.358,355.38,94.321,355.3Z" transform="translate(-94.321 -352.51)" fill="#ff9eae"/>
          </g>
        </g>
      </g>
      <g id="Group_1138" data-name="Group 1138" transform="translate(215.528 0)">
        <g id="Group_1137" data-name="Group 1137">
          <g id="Group_1134" data-name="Group 1134">
            <path id="Path_1733" data-name="Path 1733" d="M371.694,366.538c-5.128-3.293-6.974-7.524-7.776-13.565a21.372,21.372,0,0,1,5.268-16.914c3.411-3.766,8.206-6.338,10.682-10.774,2.64-4.728,2.3-11.021,6.07-14.909,2.589-2.671,6.5-3.509,9.693-5.411,2.609-1.552,4.721-3.8,7.091-5.7s5.206-3.508,8.24-3.4c4.577.167,8.3,4.511,8.694,9.074s-1.989,9.033-5.364,12.13c-2.447,2.245-5.5,4.01-7.047,6.95-2.906,5.521.637,12.9-2.5,18.291-2.294,3.936-7.757,5.99-8.353,10.507-.219,1.661.313,3.326.365,5,.162,5.237-4.57,9.645-9.687,10.772s-10.44-.285-15.372-2.056" transform="translate(-363.742 -295.865)" fill="#ff9eae"/>
          </g>
          <g id="Group_1136" data-name="Group 1136" transform="translate(8.463 18.787)">
            <g id="Group_1135" data-name="Group 1135">
              <path id="Path_1734" data-name="Path 1734" d="M404.872,321.513a3.764,3.764,0,0,1-.51.612l-1.546,1.666c-.68.715-1.514,1.586-2.418,2.657s-2.009,2.222-3.08,3.622c-1.1,1.377-2.328,2.864-3.515,4.563-.6.845-1.263,1.686-1.864,2.611l-1.867,2.842a101.439,101.439,0,0,0-7.094,13.353,97.084,97.084,0,0,0-4.8,14.337c-.516,2.269-1.021,4.422-1.319,6.472-.39,2.034-.583,3.953-.784,5.7-.246,1.745-.264,3.342-.377,4.737s-.126,2.6-.137,3.588c-.023.934-.041,1.687-.055,2.272a3.884,3.884,0,0,1-.062.794,3.737,3.737,0,0,1-.064-.791c-.016-.585-.037-1.34-.062-2.275-.026-.989-.053-2.2.031-3.6s.068-3.008.286-4.765c.174-1.761.343-3.694.713-5.744.278-2.066.766-4.237,1.27-6.524a93.632,93.632,0,0,1,4.785-14.45,97.654,97.654,0,0,1,7.183-13.416l1.9-2.844c.612-.924,1.289-1.764,1.9-2.606,1.211-1.694,2.466-3.173,3.591-4.537,1.1-1.388,2.23-2.524,3.162-3.575s1.794-1.9,2.5-2.591l1.632-1.586A3.76,3.76,0,0,1,404.872,321.513Z" transform="translate(-375.296 -321.512)" fill="#ff9eae"/>
            </g>
          </g>
        </g>
      </g>
    </g>
    <g id="Window" transform="translate(108.656 109.206)">
      <g id="Group_1190" data-name="Group 1190">
        <g id="Group_1142" data-name="Group 1142">
          <g id="Group_1139" data-name="Group 1139" transform="translate(0.191 0.19)">
            <rect id="Rectangle_665" data-name="Rectangle 665" width="188.72" height="222.194" fill="#fafafa"/>
          </g>
          <g id="Group_1141" data-name="Group 1141">
            <g id="Group_1140" data-name="Group 1140">
              <path id="Path_1735" data-name="Path 1735" d="M311.862,361.27c0-1.472-.068-89.8-.169-222.194l.169.169-188.7.021h-.02l.19-.19c-.011,82.04-.022,158.456-.03,222.193l-.16-.16,188.72.161-188.72.16h-.16v-.16c-.009-63.737-.019-140.153-.031-222.193v-.19h.211l188.7.021h.169v.169C311.93,271.473,311.863,359.8,311.862,361.27Z" transform="translate(-122.951 -138.886)" fill="#263238"/>
            </g>
          </g>
        </g>
        <g id="Group_1143" data-name="Group 1143" transform="translate(100.007 31.269)">
          <path id="Path_1736" data-name="Path 1736" d="M264.675,186.954H261l-.793,1.764h-.726l3.019-6.6h.689l3.019,6.6h-.736Zm-.255-.566-1.584-3.547-1.585,3.547Z" transform="translate(-259.477 -181.718)"/>
          <path id="Path_1737" data-name="Path 1737" d="M274.24,181.573v7H273.6v-.981a2.149,2.149,0,0,1-1.915,1.028,2.524,2.524,0,0,1,0-5.048,2.167,2.167,0,0,1,1.886.981v-2.981h.67Zm-.661,4.519a1.846,1.846,0,1,0-1.839,1.934A1.814,1.814,0,0,0,273.578,186.092Z" transform="translate(-262.081 -181.573)"/>
          <path id="Path_1738" data-name="Path 1738" d="M282.969,181.573v7h-.642v-.981a2.149,2.149,0,0,1-1.915,1.028,2.524,2.524,0,0,1,0-5.048,2.168,2.168,0,0,1,1.886.981v-2.981h.67Zm-.661,4.519a1.846,1.846,0,1,0-1.839,1.934A1.814,1.814,0,0,0,282.308,186.092Z" transform="translate(-264.416 -181.573)"/>
          <path id="Path_1739" data-name="Path 1739" d="M295.18,184.355v4.962h-.641v-.905a1.974,1.974,0,0,1-1.783.953,1.922,1.922,0,0,1-2.094-2.132v-2.877h.67v2.811a1.389,1.389,0,0,0,1.491,1.595,1.614,1.614,0,0,0,1.688-1.8v-2.6Z" transform="translate(-267.819 -182.317)"/>
          <path id="Path_1740" data-name="Path 1740" d="M298.451,188.737l.3-.529a3,3,0,0,0,1.764.557c.943,0,1.33-.321,1.33-.812,0-1.292-3.217-.273-3.217-2.236,0-.812.7-1.415,1.962-1.415a3.367,3.367,0,0,1,1.755.462l-.292.538a2.546,2.546,0,0,0-1.463-.425c-.9,0-1.292.349-1.292.821,0,1.34,3.217.33,3.217,2.236,0,.858-.755,1.415-2.047,1.415A3.312,3.312,0,0,1,298.451,188.737Z" transform="translate(-269.902 -182.303)"/>
          <path id="Path_1741" data-name="Path 1741" d="M309.826,187.029h-4.15a1.837,1.837,0,0,0,1.953,1.726,1.954,1.954,0,0,0,1.518-.651l.377.434a2.623,2.623,0,0,1-4.518-1.718,2.39,2.39,0,0,1,2.425-2.519,2.365,2.365,0,0,1,2.406,2.519C309.835,186.878,309.826,186.953,309.826,187.029Zm-4.15-.5h3.519a1.763,1.763,0,0,0-3.519,0Z" transform="translate(-271.655 -182.303)"/>
          <path id="Path_1742" data-name="Path 1742" d="M315.964,184.3v.651c-.056,0-.113-.01-.16-.01a1.6,1.6,0,0,0-1.669,1.831V189.3h-.669v-4.962h.641v.971A1.872,1.872,0,0,1,315.964,184.3Z" transform="translate(-273.918 -182.303)"/>
        </g>
        <g id="Group_1145" data-name="Group 1145" transform="translate(17.232 79.382)">
          <g id="Group_1144" data-name="Group 1144">
            <path id="Path_1743" data-name="Path 1743" d="M220.72,270.72s-.008-.143-.012-.412-.007-.674-.013-1.188c-.007-1.054-.017-2.591-.03-4.581-.015-3.992-.039-9.794-.067-17.092l.123.123-74.048.068h0l.19-.19c0,8.065,0,15.9-.006,23.273l-.185-.185,52.929.086,15.5.052,4.167.024,1.083.012c.246,0,.377.011.377.011s-.115.008-.352.012l-1.061.012-4.128.024-15.455.052-53.057.086h-.185v-.185c0-7.373,0-15.209-.006-23.273v-.191h.2l74.048.068h.124v.123c-.029,7.33-.052,13.157-.067,17.166-.013,1.979-.023,3.507-.03,4.554-.006.505-.01.892-.013,1.167S220.72,270.72,220.72,270.72Z" transform="translate(-146.476 -247.256)" fill="#263238"/>
          </g>
        </g>
        <g id="Group_1147" data-name="Group 1147" transform="translate(17.234 110.907)">
          <g id="Group_1146" data-name="Group 1146">
            <path id="Path_1744" data-name="Path 1744" d="M302.687,313.756s-.012-.524-.018-1.532-.012-2.51-.022-4.476c-.012-3.934-.029-9.741-.052-17.265l.093.092-156.01.1h-.009l.19-.19c0,7.973,0,15.824,0,23.273l-.189-.189,111,.083,32.99.056,8.913.026,2.316.012c.522,0,.8.013.8.013s-.256.009-.771.012l-2.292.012-8.871.026-32.946.056-111.139.083h-.189v-.189c0-7.45,0-15.3,0-23.273v-.19h.2l156.01.1h.093v.093c-.023,7.548-.04,13.373-.052,17.319-.009,1.957-.017,3.446-.022,4.455S302.687,313.756,302.687,313.756Z" transform="translate(-146.478 -290.292)" fill="#263238"/>
          </g>
        </g>
        <g id="Group_1149" data-name="Group 1149" transform="translate(17.234 142.21)">
          <g id="Group_1148" data-name="Group 1148">
            <path id="Path_1745" data-name="Path 1745" d="M302.687,356.49s-.012-.524-.018-1.532-.012-2.51-.022-4.476c-.012-3.934-.029-9.741-.052-17.265l.093.092-156.01.1h-.009l.19-.19c0,7.973,0,15.824,0,23.273l-.189-.189,111,.083,32.99.056,8.913.026,2.316.012c.522,0,.8.012.8.012s-.256.009-.771.012l-2.292.012-8.871.026-32.946.056-111.139.083h-.189v-.189c0-7.45,0-15.3,0-23.273v-.19h.2l156.01.1h.093v.093c-.023,7.548-.04,13.373-.052,17.319-.009,1.957-.017,3.446-.022,4.455S302.687,356.49,302.687,356.49Z" transform="translate(-146.478 -333.026)" fill="#263238"/>
          </g>
        </g>
        <g id="Group_1151" data-name="Group 1151" transform="translate(99.198 79.382)">
          <g id="Group_1150" data-name="Group 1150">
            <path id="Path_1746" data-name="Path 1746" d="M332.617,270.72s-.008-.143-.012-.412-.007-.674-.013-1.188c-.007-1.054-.017-2.591-.03-4.581-.016-3.992-.039-9.794-.067-17.092l.123.123-74.048.068h0l.19-.19c0,8.065,0,15.9-.006,23.273l-.185-.185,52.929.086,15.5.052,4.167.024,1.083.012c.245,0,.376.011.376.011s-.115.008-.352.012l-1.061.012-4.128.024-15.455.052-53.057.086h-.185v-.185c0-7.373,0-15.209-.006-23.273v-.191h.195l74.048.068h.124v.123c-.029,7.33-.052,13.157-.067,17.166-.013,1.979-.023,3.507-.03,4.554-.006.505-.01.892-.013,1.167S332.617,270.72,332.617,270.72Z" transform="translate(-258.373 -247.256)" fill="#263238"/>
          </g>
        </g>
        <g id="Group_1156" data-name="Group 1156" transform="translate(24.387 86.512)">
          <g id="Group_1155" data-name="Group 1155">
            <g id="Group_1154" data-name="Group 1154">
              <g id="Group_1153" data-name="Group 1153">
                <g id="Group_1152" data-name="Group 1152">
                  <path id="Path_1747" data-name="Path 1747" d="M164.789,265.06a3.388,3.388,0,0,1-.561.037l-1.673.054c-1.451.043-3.559.1-6.082.133l-.229,0,.067-.22a4.458,4.458,0,0,1,1.174-1.962,4.213,4.213,0,0,1,2.241-1.053l-.043.359a2.8,2.8,0,0,1-1.677-2.376,2.854,2.854,0,0,1,1.572-2.817,2.506,2.506,0,0,1,2.926.639,2.924,2.924,0,0,1,.622,2.673,2.706,2.706,0,0,1-1.546,1.822l-.034-.256a4.15,4.15,0,0,1,1.809.726,3.734,3.734,0,0,1,.984,1.089,3.059,3.059,0,0,1,.449,1.151,2.8,2.8,0,0,1-.141-.285,5.209,5.209,0,0,0-.431-.788,3.734,3.734,0,0,0-2.707-1.628l-.491-.058.457-.2a2.433,2.433,0,0,0,1.346-1.653,2.606,2.606,0,0,0-.577-2.359,2.149,2.149,0,0,0-2.507-.535A2.484,2.484,0,0,0,158.388,260a2.434,2.434,0,0,0,1.439,2.06l.623.253-.665.105a3.873,3.873,0,0,0-2.054.946,4.148,4.148,0,0,0-1.1,1.8l-.161-.218c2.439,0,4.49.029,5.957.051l1.719.032A5.56,5.56,0,0,1,164.789,265.06Z" transform="translate(-156.244 -256.989)" fill="#f99300"/>
                </g>
              </g>
            </g>
          </g>
        </g>
        <g id="Group_1161" data-name="Group 1161" transform="translate(111.2 86.512)">
          <g id="Group_1160" data-name="Group 1160">
            <g id="Group_1159" data-name="Group 1159">
              <g id="Group_1158" data-name="Group 1158">
                <g id="Group_1157" data-name="Group 1157">
                  <path id="Path_1748" data-name="Path 1748" d="M283.3,265.06a3.388,3.388,0,0,1-.561.037l-1.673.054c-1.451.043-3.559.1-6.081.133l-.229,0,.067-.22A4.457,4.457,0,0,1,276,263.1a4.216,4.216,0,0,1,2.241-1.053l-.043.359a2.8,2.8,0,0,1-1.676-2.376,2.852,2.852,0,0,1,1.572-2.817,2.506,2.506,0,0,1,2.926.639,2.924,2.924,0,0,1,.622,2.673,2.706,2.706,0,0,1-1.546,1.822l-.034-.256a4.15,4.15,0,0,1,1.809.726,3.735,3.735,0,0,1,.984,1.089,3.067,3.067,0,0,1,.448,1.151,2.8,2.8,0,0,1-.141-.285,5.209,5.209,0,0,0-.431-.788,3.734,3.734,0,0,0-2.707-1.628l-.491-.058.457-.2a2.433,2.433,0,0,0,1.346-1.653,2.606,2.606,0,0,0-.577-2.359,2.149,2.149,0,0,0-2.507-.535A2.483,2.483,0,0,0,276.9,260a2.434,2.434,0,0,0,1.439,2.06l.623.253-.665.105a3.873,3.873,0,0,0-2.054.946,4.148,4.148,0,0,0-1.1,1.8l-.161-.218c2.439,0,4.49.029,5.957.051l1.719.032A5.561,5.561,0,0,1,283.3,265.06Z" transform="translate(-274.758 -256.989)" fill="#f99300"/>
                </g>
              </g>
            </g>
          </g>
        </g>
        <g id="Group_1162" data-name="Group 1162" transform="translate(41.086 88.691)">
          <path id="Path_1749" data-name="Path 1749" d="M179.567,260.829v1.958h2.578v.456h-2.578v2.115h-.527v-4.984h3.418v.456Z" transform="translate(-179.04 -260.073)" fill="#263238"/>
          <path id="Path_1750" data-name="Path 1750" d="M184.789,260.319a.365.365,0,0,1,.37-.355.359.359,0,0,1,.37.349.37.37,0,0,1-.74.007Zm.114,1.183h.505v3.745H184.9Z" transform="translate(-180.578 -259.964)" fill="#263238"/>
          <path id="Path_1751" data-name="Path 1751" d="M189.444,262.025v.492c-.043,0-.086-.007-.121-.007a1.211,1.211,0,0,0-1.26,1.381V265.8h-.505v-3.745h.484v.733A1.411,1.411,0,0,1,189.444,262.025Z" transform="translate(-181.318 -260.515)" fill="#263238"/>
          <path id="Path_1752" data-name="Path 1752" d="M190.7,265.371l.228-.4a2.259,2.259,0,0,0,1.331.42c.712,0,1-.242,1-.612,0-.976-2.428-.206-2.428-1.688,0-.612.527-1.068,1.48-1.068a2.536,2.536,0,0,1,1.324.349l-.221.406a1.92,1.92,0,0,0-1.1-.321c-.676,0-.975.263-.975.62,0,1.011,2.428.249,2.428,1.688,0,.648-.569,1.068-1.545,1.068A2.5,2.5,0,0,1,190.7,265.371Z" transform="translate(-182.16 -260.515)" fill="#263238"/>
          <path id="Path_1753" data-name="Path 1753" d="M197.921,265.282a1.2,1.2,0,0,1-.79.264.992.992,0,0,1-1.1-1.089v-2.264h-.67v-.427h.67v-.819h.505v.819h1.139v.427H196.54v2.236a.6.6,0,0,0,.648.684.835.835,0,0,0,.555-.193Z" transform="translate(-183.407 -260.227)" fill="#263238"/>
          <path id="Path_1754" data-name="Path 1754" d="M206.1,263.626V265.8h-.505v-2.121a1.046,1.046,0,0,0-1.125-1.2,1.228,1.228,0,0,0-1.31,1.353V265.8h-.505v-3.745h.484v.69a1.575,1.575,0,0,1,1.424-.719A1.433,1.433,0,0,1,206.1,263.626Z" transform="translate(-185.356 -260.515)" fill="#263238"/>
          <path id="Path_1755" data-name="Path 1755" d="M211.938,263.477V265.8h-.484v-.584a1.408,1.408,0,0,1-1.289.62c-.848,0-1.367-.442-1.367-1.089,0-.576.37-1.061,1.445-1.061h1.189v-.228c0-.64-.363-.99-1.061-.99a1.906,1.906,0,0,0-1.246.442l-.228-.377a2.375,2.375,0,0,1,1.524-.506A1.33,1.33,0,0,1,211.938,263.477Zm-.505,1.2v-.612h-1.175c-.727,0-.962.286-.962.67,0,.434.349.7.947.7A1.2,1.2,0,0,0,211.432,264.673Z" transform="translate(-187 -260.515)" fill="#263238"/>
          <path id="Path_1756" data-name="Path 1756" d="M221.136,263.627V265.8h-.505v-2.121c0-.79-.4-1.2-1.075-1.2a1.2,1.2,0,0,0-1.253,1.353V265.8H217.8v-2.121c0-.79-.4-1.2-1.082-1.2a1.207,1.207,0,0,0-1.253,1.353V265.8h-.505v-3.745h.484v.683a1.516,1.516,0,0,1,1.374-.712,1.345,1.345,0,0,1,1.332.79,1.63,1.63,0,0,1,1.48-.79A1.411,1.411,0,0,1,221.136,263.627Z" transform="translate(-188.647 -260.516)" fill="#263238"/>
          <path id="Path_1757" data-name="Path 1757" d="M228.4,264.082H225.27a1.386,1.386,0,0,0,1.474,1.3,1.477,1.477,0,0,0,1.146-.492l.285.327a1.98,1.98,0,0,1-3.411-1.3,1.8,1.8,0,0,1,1.83-1.9,1.785,1.785,0,0,1,1.816,1.9C228.411,263.968,228.4,264.025,228.4,264.082Zm-3.133-.376h2.655a1.33,1.33,0,0,0-2.655,0Z" transform="translate(-191.271 -260.515)" fill="#263238"/>
        </g>
        <g id="Group_1163" data-name="Group 1163" transform="translate(41.799 121.276)">
          <path id="Path_1758" data-name="Path 1758" d="M183.538,309.383v.456h-3.524v-4.984h3.417v.456h-2.89v1.773h2.578v.448h-2.578v1.851h3Z" transform="translate(-180.014 -304.557)" fill="#263238"/>
          <path id="Path_1759" data-name="Path 1759" d="M192.545,308.111v2.172h-.505v-2.121c0-.79-.4-1.2-1.075-1.2a1.2,1.2,0,0,0-1.253,1.353v1.965h-.505v-2.121c0-.79-.4-1.2-1.082-1.2a1.208,1.208,0,0,0-1.253,1.353v1.965h-.505V306.54h.484v.683a1.516,1.516,0,0,1,1.374-.712,1.344,1.344,0,0,1,1.332.79,1.63,1.63,0,0,1,1.48-.79A1.411,1.411,0,0,1,192.545,308.111Z" transform="translate(-181.713 -305)" fill="#263238"/>
          <path id="Path_1760" data-name="Path 1760" d="M199.383,307.961v2.321H198.9V309.7a1.408,1.408,0,0,1-1.288.62c-.848,0-1.367-.442-1.367-1.089,0-.576.37-1.061,1.445-1.061h1.189v-.228c0-.64-.363-.99-1.061-.99a1.905,1.905,0,0,0-1.246.442l-.228-.377a2.375,2.375,0,0,1,1.524-.506A1.329,1.329,0,0,1,199.383,307.961Zm-.505,1.2v-.612H197.7c-.727,0-.961.286-.961.67,0,.434.349.7.947.7A1.2,1.2,0,0,0,198.877,309.156Z" transform="translate(-184.355 -304.999)" fill="#263238"/>
          <path id="Path_1761" data-name="Path 1761" d="M202.245,304.8a.365.365,0,0,1,.37-.355.359.359,0,0,1,.37.349.363.363,0,0,1-.37.371A.368.368,0,0,1,202.245,304.8Zm.114,1.182h.505v3.745h-.505Z" transform="translate(-185.961 -304.448)" fill="#263238"/>
          <path id="Path_1762" data-name="Path 1762" d="M205.014,304.448h.505v5.283h-.505Z" transform="translate(-186.701 -304.448)" fill="#263238"/>
        </g>
        <g id="Group_1164" data-name="Group 1164" transform="translate(39.339 152.438)">
          <path id="Path_1763" data-name="Path 1763" d="M180.557,349.107c0,1.061-.769,1.7-2.036,1.7h-1.339v1.573h-.527V347.4h1.866C179.788,347.4,180.557,348.039,180.557,349.107Zm-.527,0c0-.8-.527-1.253-1.524-1.253h-1.324v2.491h1.324C179.5,350.345,180.03,349.889,180.03,349.107Z" transform="translate(-176.655 -347.099)" fill="#263238"/>
          <path id="Path_1764" data-name="Path 1764" d="M186.049,350.5v2.321h-.484v-.584a1.408,1.408,0,0,1-1.289.62c-.848,0-1.367-.442-1.367-1.089,0-.576.37-1.061,1.445-1.061h1.189v-.229c0-.64-.363-.989-1.061-.989a1.909,1.909,0,0,0-1.246.441l-.228-.377a2.375,2.375,0,0,1,1.524-.505A1.329,1.329,0,0,1,186.049,350.5Zm-.505,1.2v-.612h-1.175c-.727,0-.962.286-.962.669,0,.434.349.7.947.7A1.2,1.2,0,0,0,185.543,351.7Z" transform="translate(-178.328 -347.541)" fill="#263238"/>
          <path id="Path_1765" data-name="Path 1765" d="M188.358,352.4l.228-.4a2.26,2.26,0,0,0,1.331.42c.712,0,1-.242,1-.612,0-.976-2.428-.207-2.428-1.688,0-.612.527-1.068,1.48-1.068a2.536,2.536,0,0,1,1.324.349l-.22.406a1.916,1.916,0,0,0-1.1-.321c-.676,0-.975.263-.975.62,0,1.011,2.428.249,2.428,1.688,0,.648-.569,1.068-1.545,1.068A2.5,2.5,0,0,1,188.358,352.4Z" transform="translate(-179.785 -347.541)" fill="#263238"/>
          <path id="Path_1766" data-name="Path 1766" d="M193.108,352.4l.228-.4a2.26,2.26,0,0,0,1.331.42c.712,0,1-.242,1-.612,0-.976-2.428-.207-2.428-1.688,0-.612.527-1.068,1.48-1.068a2.536,2.536,0,0,1,1.324.349l-.22.406a1.916,1.916,0,0,0-1.1-.321c-.676,0-.975.263-.975.62,0,1.011,2.428.249,2.428,1.688,0,.648-.569,1.068-1.545,1.068A2.5,2.5,0,0,1,193.108,352.4Z" transform="translate(-181.056 -347.541)" fill="#263238"/>
          <path id="Path_1767" data-name="Path 1767" d="M203.729,349.089l-1.417,3.745h-.477l-1.182-3.069-1.182,3.069H199l-1.41-3.745h.484l1.175,3.183,1.2-3.183h.434l1.2,3.183,1.189-3.183Z" transform="translate(-182.254 -347.551)" fill="#263238"/>
          <path id="Path_1768" data-name="Path 1768" d="M206.346,350.951a1.9,1.9,0,1,1,1.908,1.908A1.842,1.842,0,0,1,206.346,350.951Zm3.3,0a1.393,1.393,0,1,0-1.388,1.46A1.366,1.366,0,0,0,209.642,350.951Z" transform="translate(-184.597 -347.541)" fill="#263238"/>
          <path id="Path_1769" data-name="Path 1769" d="M214.837,349.05v.492c-.043,0-.086-.007-.122-.007a1.211,1.211,0,0,0-1.26,1.382v1.908h-.505v-3.745h.484v.733A1.411,1.411,0,0,1,214.837,349.05Z" transform="translate(-186.364 -347.541)" fill="#263238"/>
          <path id="Path_1770" data-name="Path 1770" d="M220,346.99v5.283h-.484v-.741a1.623,1.623,0,0,1-1.445.776,1.9,1.9,0,0,1,0-3.809,1.636,1.636,0,0,1,1.424.741v-2.25H220Zm-.5,3.41a1.393,1.393,0,1,0-1.388,1.46A1.369,1.369,0,0,0,219.5,350.4Z" transform="translate(-187.234 -346.99)" fill="#263238"/>
        </g>
        <g id="Group_1165" data-name="Group 1165" transform="translate(125.256 89.694)">
          <path id="Path_1771" data-name="Path 1771" d="M293.946,261.334h.527v4.528h2.791v.456h-3.318Z" transform="translate(-293.946 -261.334)" fill="#263238"/>
          <path id="Path_1772" data-name="Path 1772" d="M302.252,264.439v2.321h-.484v-.584a1.408,1.408,0,0,1-1.289.62c-.847,0-1.367-.442-1.367-1.089,0-.577.371-1.061,1.446-1.061h1.189v-.228c0-.64-.363-.99-1.061-.99a1.9,1.9,0,0,0-1.246.442l-.228-.377a2.376,2.376,0,0,1,1.524-.505A1.33,1.33,0,0,1,302.252,264.439Zm-.505,1.2v-.612h-1.174c-.726,0-.962.286-.962.67,0,.434.349.7.947.7A1.2,1.2,0,0,0,301.747,265.635Z" transform="translate(-295.328 -261.776)" fill="#263238"/>
          <path id="Path_1773" data-name="Path 1773" d="M304.561,266.333l.228-.4a2.261,2.261,0,0,0,1.332.421c.712,0,1-.242,1-.612,0-.976-2.427-.207-2.427-1.688,0-.612.527-1.068,1.48-1.068a2.537,2.537,0,0,1,1.324.349l-.22.406a1.919,1.919,0,0,0-1.1-.321c-.676,0-.975.263-.975.62,0,1.011,2.428.249,2.428,1.688,0,.648-.57,1.068-1.545,1.068A2.506,2.506,0,0,1,304.561,266.333Z" transform="translate(-296.785 -261.776)" fill="#263238"/>
          <path id="Path_1774" data-name="Path 1774" d="M311.779,266.244a1.2,1.2,0,0,1-.79.263.992.992,0,0,1-1.1-1.089v-2.264h-.67v-.427h.67v-.819h.5v.819h1.14v.427H310.4v2.236a.6.6,0,0,0,.648.684.84.84,0,0,0,.556-.193Z" transform="translate(-298.032 -261.488)" fill="#263238"/>
          <path id="Path_1775" data-name="Path 1775" d="M319.954,264.588v2.172h-.505v-2.122a1.046,1.046,0,0,0-1.125-1.2,1.228,1.228,0,0,0-1.31,1.353v1.965h-.505v-3.745h.484v.69a1.574,1.574,0,0,1,1.424-.719A1.434,1.434,0,0,1,319.954,264.588Z" transform="translate(-299.981 -261.776)" fill="#263238"/>
          <path id="Path_1776" data-name="Path 1776" d="M325.794,264.439v2.321h-.484v-.584a1.408,1.408,0,0,1-1.289.62c-.847,0-1.367-.442-1.367-1.089,0-.577.371-1.061,1.446-1.061h1.189v-.228c0-.64-.363-.99-1.061-.99a1.905,1.905,0,0,0-1.246.442l-.228-.377a2.376,2.376,0,0,1,1.524-.505A1.33,1.33,0,0,1,325.794,264.439Zm-.505,1.2v-.612h-1.174c-.726,0-.962.286-.962.67,0,.434.349.7.947.7A1.2,1.2,0,0,0,325.289,265.635Z" transform="translate(-301.625 -261.776)" fill="#263238"/>
          <path id="Path_1777" data-name="Path 1777" d="M334.993,264.588v2.172h-.505v-2.122c0-.79-.4-1.2-1.075-1.2a1.2,1.2,0,0,0-1.253,1.353v1.965h-.5v-2.122c0-.79-.4-1.2-1.083-1.2a1.207,1.207,0,0,0-1.253,1.353v1.965h-.505v-3.745h.484v.683a1.515,1.515,0,0,1,1.374-.712,1.343,1.343,0,0,1,1.331.79,1.632,1.632,0,0,1,1.481-.79A1.413,1.413,0,0,1,334.993,264.588Z" transform="translate(-303.273 -261.776)" fill="#263238"/>
          <path id="Path_1778" data-name="Path 1778" d="M342.26,265.044h-3.132a1.386,1.386,0,0,0,1.474,1.3,1.474,1.474,0,0,0,1.146-.492l.285.327a1.98,1.98,0,0,1-3.41-1.3,1.8,1.8,0,0,1,1.83-1.9,1.785,1.785,0,0,1,1.816,1.9C342.267,264.93,342.26,264.987,342.26,265.044Zm-3.133-.377h2.655a1.33,1.33,0,0,0-2.655,0Z" transform="translate(-305.896 -261.776)" fill="#263238"/>
        </g>
        <g id="Group_1173" data-name="Group 1173" transform="translate(25.712 148.641)">
          <g id="Group_1166" data-name="Group 1166" transform="translate(0.195 0.135)">
            <path id="Path_1779" data-name="Path 1779" d="M164.5,345.244l.01-.76a2.493,2.493,0,0,0-4.987,0l-.011.774a1.394,1.394,0,0,0-1.19,1.379v4.483a1.4,1.4,0,0,0,1.4,1.4h4.654a1.4,1.4,0,0,0,1.4-1.4v-4.483A1.394,1.394,0,0,0,164.5,345.244ZM162.678,350h-1.217l.19-.879a.741.741,0,1,1,.8-.014C162.542,349.448,162.678,350,162.678,350Zm1.281-4.763h-3.912l.01-.754a1.956,1.956,0,0,1,3.912,0Z" transform="translate(-158.319 -341.99)" fill="none"/>
          </g>
          <g id="Group_1168" data-name="Group 1168" transform="translate(1.741 0.491)">
            <g id="Group_1167" data-name="Group 1167">
              <path id="Path_1780" data-name="Path 1780" d="M164.524,345.367a2.579,2.579,0,0,1-.064-.478,2.359,2.359,0,0,0-.267-1.117,1.841,1.841,0,0,0-1.348-.917,1.788,1.788,0,0,0-1.751.806,1.765,1.765,0,0,0-.277.816q-.013.459-.026.892l-.18-.183a38.381,38.381,0,0,1,3.913.181,31.427,31.427,0,0,1-3.912.18l-.182,0,0-.185c0-.3,0-.578.011-.917a2.107,2.107,0,0,1,3.989-.8,2.176,2.176,0,0,1,.169,1.289C164.565,345.244,164.541,345.386,164.524,345.367Z" transform="translate(-160.429 -342.477)" fill="#f99300"/>
            </g>
          </g>
          <g id="Group_1170" data-name="Group 1170" transform="translate(2.989 5.705)">
            <g id="Group_1169" data-name="Group 1169">
              <path id="Path_1781" data-name="Path 1781" d="M163.7,352.034a5.912,5.912,0,0,1-.349-.861l-.028-.081.081-.058a.606.606,0,0,0,.152-.79.563.563,0,1,0-.79.761l.11.065-.031.122-.22.872-.142-.176a8.155,8.155,0,0,1,1.217.146,4.233,4.233,0,0,1-1.217.145l-.176.01.034-.186c.053-.3.106-.59.16-.886l.079.187a.921.921,0,0,1,.623-1.7.913.913,0,0,1,.656.464.885.885,0,0,1-.31,1.178l.053-.139A2.688,2.688,0,0,1,163.7,352.034Z" transform="translate(-162.133 -349.594)" fill="#f99300"/>
            </g>
          </g>
          <g id="Group_1172" data-name="Group 1172">
            <g id="Group_1171" data-name="Group 1171">
              <path id="Path_1782" data-name="Path 1782" d="M164.425,345.195a.712.712,0,0,1,.324.03,1.392,1.392,0,0,1,.765.537,1.436,1.436,0,0,1,.258.644c.029.262.017.51.027.8.009.575.018,1.216.029,1.918q.006.535.012,1.115a6.173,6.173,0,0,1-.047,1.247,1.554,1.554,0,0,1-.929,1.039,1.821,1.821,0,0,1-.726.112l-.7,0-2.948.011h-.774a1.651,1.651,0,0,1-.848-.2,1.608,1.608,0,0,1-.816-1.507c0-1.131,0-2.233,0-3.3q0-.4,0-.788a2.133,2.133,0,0,1,.1-.825,1.577,1.577,0,0,1,1.247-1l-.149.17c.011-.351,0-.667.03-1.028a2.622,2.622,0,0,1,.3-.984,2.655,2.655,0,0,1,1.418-1.223,2.6,2.6,0,0,1,2.838.714,2.5,2.5,0,0,1,.637,1.825,5.609,5.609,0,0,1-.066.69,3.816,3.816,0,0,1-.046-.683,2.462,2.462,0,0,0-.68-1.689,2.365,2.365,0,0,0-3.816.519,2.3,2.3,0,0,0-.254.865c-.018.3-.01.662-.016,1l0,.149-.146.021a1.222,1.222,0,0,0-.957.784,1.8,1.8,0,0,0-.073.7q0,.39,0,.788c0,1.063,0,2.166,0,3.3a1.225,1.225,0,0,0,.62,1.175,1.258,1.258,0,0,0,.664.153h.774l2.948.011a4.431,4.431,0,0,0,1.3-.077,1.236,1.236,0,0,0,.746-.812,6.4,6.4,0,0,0,.057-1.162q.007-.579.012-1.115c.01-.7.02-1.342.028-1.918,0-.277.021-.556.005-.776a1.3,1.3,0,0,0-.2-.582A1.635,1.635,0,0,0,164.425,345.195Z" transform="translate(-158.052 -341.806)" fill="#f99300"/>
            </g>
          </g>
        </g>
        <g id="Group_1184" data-name="Group 1184" transform="translate(23.815 119.982)">
          <g id="Group_1177" data-name="Group 1177" transform="translate(0 0)">
            <g id="Group_1176" data-name="Group 1176">
              <g id="Group_1175" data-name="Group 1175">
                <g id="Group_1174" data-name="Group 1174">
                  <path id="Path_1783" data-name="Path 1783" d="M166.935,310.362a4.125,4.125,0,0,1-.039-.561c-.014-.4-.032-.907-.054-1.529-.033-1.354-.078-3.2-.133-5.434l.154.151-11.164.147c-.042.042.357-.364.188-.191v.25l0,.251,0,.5q0,.5.009.986.008.978.015,1.924c.008,1.258.016,2.469.023,3.617l-.177-.173c3.253-.018,6.02-.006,7.995.007l2.315.024a7.827,7.827,0,0,1,.859.033,5.433,5.433,0,0,1-.781.049l-2.275.069c-1.963.053-4.779.119-8.107.166l-.174,0,0-.176c-.015-1.149-.031-2.359-.048-3.617q-.011-.945-.022-1.924-.005-.489-.01-.986l-.005-.5,0-.25v-.25c-.169.171.23-.236.19-.193l11.165-.071h.155v.152c-.01,2.271-.02,4.153-.026,5.531-.01.609-.018,1.1-.024,1.5A2.8,2.8,0,0,1,166.935,310.362Z" transform="translate(-155.463 -302.681)" fill="#f99300"/>
                </g>
              </g>
            </g>
          </g>
          <g id="Group_1179" data-name="Group 1179" transform="translate(0.232 0.152)">
            <g id="Group_1178" data-name="Group 1178">
              <path id="Path_1784" data-name="Path 1784" d="M166.946,302.892a10.563,10.563,0,0,1-1.545,1.287c-.983.756-2.356,1.779-3.887,2.889.2,0-.27,0-.223,0l0,0,0,0-.009-.007-.018-.013-.036-.026-.072-.051-.144-.1-.285-.2-.557-.391-1.049-.744-1.763-1.278A10.518,10.518,0,0,1,155.781,303a10.555,10.555,0,0,1,1.724,1.036l1.81,1.211,1.061.726.56.386.286.2.144.1.073.051.036.025.018.012.009.007,0,0h0c.049,0-.417,0-.219,0,1.531-1.11,2.929-2.1,3.953-2.8A10.479,10.479,0,0,1,166.946,302.892Z" transform="translate(-155.78 -302.889)" fill="#f99300"/>
            </g>
          </g>
          <g id="Group_1181" data-name="Group 1181" transform="translate(0.516 3.058)">
            <g id="Group_1180" data-name="Group 1180">
              <path id="Path_1785" data-name="Path 1785" d="M156.174,311.586a23.814,23.814,0,0,1,3.726-4.728,23.884,23.884,0,0,1-3.726,4.728Z" transform="translate(-156.168 -306.856)" fill="#f99300"/>
            </g>
          </g>
          <g id="Group_1183" data-name="Group 1183" transform="translate(7.877 3.058)">
            <g id="Group_1182" data-name="Group 1182">
              <path id="Path_1786" data-name="Path 1786" d="M166.223,306.859a22.49,22.49,0,0,1,3.588,4.621,22.482,22.482,0,0,1-3.588-4.621Z" transform="translate(-166.216 -306.856)" fill="#f99300"/>
            </g>
          </g>
        </g>
        <g id="Group_1189" data-name="Group 1189" transform="translate(17.424 174.398)">
          <g id="Group_1185" data-name="Group 1185" transform="translate(0 3.312)">
            <path id="Path_1787" data-name="Path 1787" d="M300.808,405.271H148.686a1.948,1.948,0,0,1-1.948-1.948V383.437a1.948,1.948,0,0,1,1.948-1.948H300.808a1.948,1.948,0,0,1,1.948,1.948v19.886A1.948,1.948,0,0,1,300.808,405.271Z" transform="translate(-146.738 -381.489)" fill="#fb133b"/>
          </g>
          <g id="Group_1186" data-name="Group 1186" transform="translate(0 3.312)" opacity="0.3">
            <path id="Path_1788" data-name="Path 1788" d="M300.808,405.271H148.686a1.948,1.948,0,0,1-1.948-1.948V383.437a1.948,1.948,0,0,1,1.948-1.948H300.808a1.948,1.948,0,0,1,1.948,1.948v19.886A1.948,1.948,0,0,1,300.808,405.271Z" transform="translate(-146.738 -381.489)" fill="#fb133b"/>
          </g>
          <g id="Group_1187" data-name="Group 1187">
            <path id="Path_1789" data-name="Path 1789" d="M300.808,400.75H148.686a1.948,1.948,0,0,1-1.948-1.948V378.916a1.948,1.948,0,0,1,1.948-1.948H300.808a1.947,1.947,0,0,1,1.948,1.948V398.8A1.948,1.948,0,0,1,300.808,400.75Z" transform="translate(-146.738 -376.968)" fill="#fb133b"/>
          </g>
          <g id="Group_1188" data-name="Group 1188" transform="translate(64.832 9.856)">
            <path id="Path_1790" data-name="Path 1790" d="M235.245,392.971a2.521,2.521,0,0,1,2.641-2.548,2.459,2.459,0,0,1,1.894.776l-.463.448a1.848,1.848,0,0,0-1.4-.591,1.916,1.916,0,1,0,0,3.83,1.856,1.856,0,0,0,1.4-.6l.463.448a2.475,2.475,0,0,1-1.9.783A2.519,2.519,0,0,1,235.245,392.971Z" transform="translate(-235.245 -390.423)" fill="#fb133b"/>
            <path id="Path_1791" data-name="Path 1791" d="M246.153,395.484l-1.075-1.531c-.1.007-.207.015-.313.015h-1.232v1.516h-.712V390.5h1.944c1.3,0,2.079.655,2.079,1.737a1.572,1.572,0,0,1-1.1,1.573l1.182,1.673h-.776Zm-.021-3.247c0-.712-.477-1.117-1.389-1.117h-1.21v2.242h1.21C245.655,393.363,246.132,392.949,246.132,392.237Z" transform="translate(-237.271 -390.444)" fill="#fb133b"/>
            <path id="Path_1792" data-name="Path 1792" d="M253.5,394.864v.62h-3.617V390.5H253.4v.62h-2.806v1.531h2.5v.605h-2.5v1.609Z" transform="translate(-239.16 -390.444)" fill="#fb133b"/>
            <path id="Path_1793" data-name="Path 1793" d="M259.29,394.238h-2.649l-.548,1.246h-.733l2.257-4.984h.7l2.265,4.984h-.747Zm-.249-.569-1.075-2.442-1.075,2.442Z" transform="translate(-240.626 -390.444)" fill="#fb133b"/>
            <path id="Path_1794" data-name="Path 1794" d="M263.887,391.12h-1.709v-.62H266.3v.62h-1.709v4.364h-.7Z" transform="translate(-242.449 -390.444)" fill="#fb133b"/>
            <path id="Path_1795" data-name="Path 1795" d="M272.477,394.864v.62H268.86V390.5h3.518v.62h-2.806v1.531h2.5v.605h-2.5v1.609Z" transform="translate(-244.237 -390.444)" fill="#fb133b"/>
          </g>
        </g>
      </g>
    </g>
    <g id="Character" transform="translate(72.4 27.926)">
      <g id="Group_1272" data-name="Group 1272" transform="translate(0)">
        <g id="Group_1191" data-name="Group 1191" transform="translate(0 9.802)">
          <circle id="Ellipse_14" data-name="Ellipse 14" cx="51.534" cy="51.534" r="51.534" transform="translate(0 72.88) rotate(-45)" fill="#e0e0e0"/>
        </g>
        <g id="Group_1192" data-name="Group 1192" transform="translate(83.849 12.414)">
          <path id="Path_1796" data-name="Path 1796" d="M206.477,45.487a7.392,7.392,0,0,0-.735,8.1c.645,1.154,1.629,2.192,1.777,3.507.242,2.135-1.828,4.055-1.5,6.178.224,1.439,1.48,2.469,2.142,3.766a4.965,4.965,0,0,1-.569,5.279c-.939,1.145-2.406,1.871-3.015,3.221-.451,1-.342,2.171-.706,3.207a4.989,4.989,0,0,1-3.926,2.958,14.706,14.706,0,0,1-5.116-.288l.369-1.851a3.619,3.619,0,0,1-2.939,1.648A10.667,10.667,0,0,1,188.8,80.7c-.691-3.142-1.375-6.463-.389-9.526.887-2.755,3-4.9,4.758-7.2a32.529,32.529,0,0,0,4.637-8.4,46.112,46.112,0,0,1,2.51-6.45,8.015,8.015,0,0,1,5.188-4.25" transform="translate(-187.923 -44.873)" fill="#263238"/>
        </g>
        <g id="Group_1200" data-name="Group 1200" transform="translate(102.029 39.813)">
          <g id="Group_1193" data-name="Group 1193">
            <path id="Path_1797" data-name="Path 1797" d="M246.645,98.778l-10.2.693s-.075-1.992-.1-2.62a5.707,5.707,0,0,1,.88-3.706,2.269,2.269,0,0,0,.241-.625c.072-.777-1.074-4.673-1.488-6.1-.5-1.713.475-2.621.853-1.922.692,1.282,2.514,6.786,3.087,7.289s.243-2.335.243-2.335c-.9-6.056-1.283-6.938-.2-7.167,1.234-.263,2.6,8.753,2.6,8.753s-.184-1.261.782-1.517,1.412.988,1.412.988c-.12-.642.8-.745.8-.745,2.287.316,1.093,9.016,1.093,9.016l-10.2.693-4.884,34.1-5.218-7.988-13.606,9.711,12.27,14.633a10.872,10.872,0,0,0,8.736,3.879h0A10.873,10.873,0,0,0,244.2,143.533Z" transform="translate(-212.741 -82.277)" fill="#eb996e"/>
          </g>
          <g id="Group_1195" data-name="Group 1195" transform="translate(24.69 10.53)">
            <g id="Group_1194" data-name="Group 1194">
              <path id="Path_1798" data-name="Path 1798" d="M247.664,102.714c-.042-.047.5-.526,1.221-1.422a13.819,13.819,0,0,0,1.148-1.655c.193-.326.382-.676.557-1.049a2.451,2.451,0,0,0,.349-1.119.473.473,0,0,0-.3-.42.89.89,0,0,0-.581.1,6.108,6.108,0,0,0-1.138.681,6.34,6.34,0,0,0-1.45,1.554l-.115.174-.089-.182a3.859,3.859,0,0,0-.822-1.029c0-.028.56.129,1.03.923l-.2-.007a5.863,5.863,0,0,1,1.439-1.7,6,6,0,0,1,1.2-.751,1.217,1.217,0,0,1,.845-.12.848.848,0,0,1,.564.737,2.644,2.644,0,0,1-.39,1.327,11.445,11.445,0,0,1-.593,1.069,11.591,11.591,0,0,1-1.243,1.649A5.416,5.416,0,0,1,247.664,102.714Z" transform="translate(-246.447 -96.652)" fill="#d1734a"/>
            </g>
          </g>
          <g id="Group_1197" data-name="Group 1197" transform="translate(29.413 8.989)">
            <g id="Group_1196" data-name="Group 1196">
              <path id="Path_1799" data-name="Path 1799" d="M253.426,94.907a9.282,9.282,0,0,1-.005,1.876c-.034.62-.071,1.3-.111,2.02a7.362,7.362,0,0,0-.03,1.162c.025.354.34.662.6.519.275-.149.405-.587.513-.974s.2-.781.281-1.152c.159-.741.277-1.418.384-1.986a7.958,7.958,0,0,1,.436-1.824,10.718,10.718,0,0,1-.169,1.866c-.073.574-.163,1.257-.305,2.014-.072.378-.155.774-.265,1.182a1.828,1.828,0,0,1-.7,1.215.717.717,0,0,1-.815-.135,1.08,1.08,0,0,1-.324-.675,6.8,6.8,0,0,1,.049-1.229c.07-.727.134-1.4.193-2.026A9.093,9.093,0,0,1,253.426,94.907Z" transform="translate(-252.895 -94.549)" fill="#d1734a"/>
            </g>
          </g>
          <g id="Group_1199" data-name="Group 1199" transform="translate(31.345 9.816)">
            <g id="Group_1198" data-name="Group 1198">
              <path id="Path_1800" data-name="Path 1800" d="M255.846,97.782c.059.018-.091.427-.044,1.084a2.033,2.033,0,0,0,.316,1.028c.125.122.208.126.331-.015a4.359,4.359,0,0,0,.332-.63,22.333,22.333,0,0,0,1.1-3.571,6.8,6.8,0,0,1-.749,3.731,3.888,3.888,0,0,1-.391.71.588.588,0,0,1-.452.229.576.576,0,0,1-.431-.223,1.43,1.43,0,0,1-.272-.666,2.845,2.845,0,0,1-.048-.586C255.555,98.149,255.809,97.761,255.846,97.782Z" transform="translate(-255.532 -95.678)" fill="#d1734a"/>
            </g>
          </g>
        </g>
        <g id="Group_1203" data-name="Group 1203" transform="translate(21.942 49.055)">
          <g id="Group_1202" data-name="Group 1202">
            <g id="Group_1201" data-name="Group 1201">
              <path id="Path_1801" data-name="Path 1801" d="M172.243,161.671,173.2,176.5c-29,11.115-50.518-7.321-50.518-7.321l4.339-13.266.762-23.166-5.6,6.209-2.628-2.192-13.294-11.085-2.852-2.378L117.2,108.739c17.437-18.772,31.01-13.011,31.01-13.011l20.4,1.908s14.107,2,20.932,14.364c5.558,10.068,11.61,20.728,11.61,20.728L183.676,145.2l-5.555-10.216Z" transform="translate(-103.409 -94.894)" fill="#fb133b"/>
            </g>
          </g>
        </g>
        <g id="Group_1204" data-name="Group 1204" transform="translate(21.345 79.555)">
          <path id="Path_1802" data-name="Path 1802" d="M102.6,139.464c-.012.867.022,1.736.055,2.613a51.443,51.443,0,0,0,1.389,10.2c.008.032.017.065.026.1.1.415.221.823.333,1.233.456,1.612,1.053,3.035,1.63,4.6.075.195.146.391.223.585,1.846-.484,6.751-5.12,12.737-11.181L105.7,136.532C103.973,138.394,103.172,139.24,102.6,139.464Z" transform="translate(-102.594 -136.532)" fill="#eb996e"/>
        </g>
        <g id="Group_1226" data-name="Group 1226" transform="translate(66.49 4.794)">
          <g id="Group_1225" data-name="Group 1225">
            <g id="Group_1224" data-name="Group 1224">
              <g id="Group_1206" data-name="Group 1206">
                <g id="Group_1205" data-name="Group 1205">
                  <path id="Path_1803" data-name="Path 1803" d="M183.027,83.381c.713-5.052,1.555-10.358,1.555-10.358s6.66-.183,9.181-8.492c2.4-7.924,3.649-26.817,3.649-26.817h0A24.644,24.644,0,0,0,169.4,40.193h0L164.288,81.32c-.593,4.775,3.039,9.087,8.157,9.683h0C177.613,91.6,182.349,88.193,183.027,83.381Z" transform="translate(-164.224 -34.471)" fill="#eb996e"/>
                </g>
              </g>
              <g id="Group_1212" data-name="Group 1212" transform="translate(26.399 15.081)">
                <g id="Group_1208" data-name="Group 1208" transform="translate(0.169 1.301)">
                  <g id="Group_1207" data-name="Group 1207">
                    <path id="Path_1804" data-name="Path 1804" d="M202.689,57.977a1.1,1.1,0,0,1-1.2.954,1.051,1.051,0,0,1-.987-1.137,1.1,1.1,0,0,1,1.2-.955A1.053,1.053,0,0,1,202.689,57.977Z" transform="translate(-200.494 -56.835)" fill="#263238"/>
                  </g>
                </g>
                <g id="Group_1211" data-name="Group 1211">
                  <g id="Group_1210" data-name="Group 1210">
                    <g id="Group_1209" data-name="Group 1209">
                      <path id="Path_1805" data-name="Path 1805" d="M204.561,56.526c-.155.123-.9-.6-2.069-.76-1.169-.175-2.113.309-2.22.148-.053-.072.119-.31.532-.53a3.022,3.022,0,0,1,1.8-.294,2.9,2.9,0,0,1,1.622.782C204.55,56.2,204.637,56.471,204.561,56.526Z" transform="translate(-200.263 -55.06)" fill="#263238"/>
                    </g>
                  </g>
                </g>
              </g>
              <g id="Group_1218" data-name="Group 1218" transform="translate(14.108 13.82)">
                <g id="Group_1214" data-name="Group 1214" transform="translate(0.43 1.114)">
                  <g id="Group_1213" data-name="Group 1213">
                    <path id="Path_1806" data-name="Path 1806" d="M186.266,56a1.1,1.1,0,0,1-1.2.954,1.052,1.052,0,0,1-.987-1.137,1.1,1.1,0,0,1,1.2-.955A1.052,1.052,0,0,1,186.266,56Z" transform="translate(-184.071 -54.858)" fill="#263238"/>
                  </g>
                </g>
                <g id="Group_1217" data-name="Group 1217">
                  <g id="Group_1216" data-name="Group 1216">
                    <g id="Group_1215" data-name="Group 1215">
                      <path id="Path_1807" data-name="Path 1807" d="M187.782,54.8c-.155.123-.9-.6-2.069-.76-1.169-.175-2.113.309-2.22.148-.053-.072.118-.31.532-.53a3.022,3.022,0,0,1,1.8-.294,2.9,2.9,0,0,1,1.622.782C187.77,54.476,187.857,54.75,187.782,54.8Z" transform="translate(-183.484 -53.338)" fill="#263238"/>
                    </g>
                  </g>
                </g>
              </g>
              <g id="Group_1221" data-name="Group 1221" transform="translate(21.462 14.726)">
                <g id="Group_1220" data-name="Group 1220">
                  <g id="Group_1219" data-name="Group 1219">
                    <path id="Path_1808" data-name="Path 1808" d="M193.523,64.416a7.811,7.811,0,0,1,1.951-.081c.3.01.595-.01.674-.207a1.536,1.536,0,0,0-.078-.915q-.273-1.145-.571-2.4a39.7,39.7,0,0,1-1.166-6.237A39.643,39.643,0,0,1,196,60.7q.278,1.261.532,2.41a1.752,1.752,0,0,1-.007,1.2.758.758,0,0,1-.552.37,2.069,2.069,0,0,1-.518,0A7.712,7.712,0,0,1,193.523,64.416Z" transform="translate(-193.523 -54.575)" fill="#263238"/>
                  </g>
                </g>
              </g>
              <g id="Group_1223" data-name="Group 1223" transform="translate(9.4 33.948)">
                <g id="Group_1222" data-name="Group 1222">
                  <path id="Path_1809" data-name="Path 1809" d="M188.015,85.42a21.813,21.813,0,0,1-10.958-4.6s1.955,6.216,10.566,6.593Z" transform="translate(-177.057 -80.816)" fill="#d1734a"/>
                </g>
              </g>
            </g>
          </g>
        </g>
        <g id="Group_1227" data-name="Group 1227" transform="translate(46.635)">
          <path id="Path_1810" data-name="Path 1810" d="M181.371,33.342a3.218,3.218,0,0,1-1.54,3.69,10.713,10.713,0,0,1-4.15,1.175,7.538,7.538,0,0,0-4,1.519c-1.992,1.8-1.486,4.415-3.482,6.746a4.325,4.325,0,0,1-4.221,1.77c-1.613-.23-3.7.145-4.517,2-.779,1.771.169,3.232,1.072,4.943s.66,3.455.149,5.321c-.37,1.351-1.525,2.406-1.786,3.782-.41,2.168,1.469,4.642.2,6.445s-4.458.982-5.9,2.657c-.512.6-.8,1.5-1.558,1.7a2.16,2.16,0,0,1-1.36-.248l-6.618-2.791L144.179,70a4.427,4.427,0,0,1-7.06-1.072,19.8,19.8,0,0,0,3.807-2.874,6.655,6.655,0,0,0,1.993-4.231c.07-1.928-.979-3.885-.391-5.723.84-2.63,4.374-3.293,5.962-5.551,1.483-2.109.969-5.17,2.487-7.253,1.764-2.422,5.5-2.533,7.518-4.745,1.37-1.5,1.684-3.668,2.682-5.437a9.99,9.99,0,0,1,5.662-4.339,21.752,21.752,0,0,1,7.215-.845,11.217,11.217,0,0,1,5.3,1.064,4.431,4.431,0,0,1,2.422,4.49" transform="translate(-137.119 -27.926)" fill="#263238"/>
        </g>
        <g id="Group_1229" data-name="Group 1229" transform="translate(67.991 20.007)">
          <g id="Group_1228" data-name="Group 1228">
            <path id="Path_1811" data-name="Path 1811" d="M171.775,55.548a5.114,5.114,0,0,0-2.759-.2,3.567,3.567,0,0,0-2.252,1.54,3.73,3.73,0,0,0-.4,2.712,6.312,6.312,0,0,0,1.232,2.5,4.279,4.279,0,0,0,1.5,1.322,2.044,2.044,0,0,0,1.932-.032" transform="translate(-166.274 -55.239)" fill="#eb996e"/>
          </g>
        </g>
        <g id="Group_1232" data-name="Group 1232" transform="translate(69.909 21.257)">
          <g id="Group_1231" data-name="Group 1231">
            <g id="Group_1230" data-name="Group 1230">
              <path id="Path_1812" data-name="Path 1812" d="M171.214,61.442c.1.048-.371.544-1.171.205a1.8,1.8,0,0,1-.9-1.038,4.092,4.092,0,0,1-.245-1.57,2.394,2.394,0,0,1,.605-1.546,1.592,1.592,0,0,1,1.291-.54c.857.1,1.04.727.941.731-.078.059-.367-.291-.945-.234a1.547,1.547,0,0,0-1.189,1.624,2.553,2.553,0,0,0,.682,2.136C170.761,61.545,171.167,61.359,171.214,61.442Z" transform="translate(-168.893 -56.946)" fill="#d1734a"/>
            </g>
          </g>
        </g>
        <g id="Group_1233" data-name="Group 1233" transform="translate(90.433 2.624)">
          <path id="Path_1813" data-name="Path 1813" d="M197.391,34.758a4.243,4.243,0,0,0,1.762,5.057c.951.551,2.124.723,2.937,1.461a4.657,4.657,0,0,1,1.227,2.969,10.862,10.862,0,0,0,.609,3.211,2.564,2.564,0,0,0,2.56,1.655l1.834-5.424c.676-2,1.36-4.128.877-6.182-.689-2.934-3.589-4.852-6.5-5.651a5.986,5.986,0,0,0-4.1.038,2.705,2.705,0,0,0-1.476,3.442" transform="translate(-196.911 -31.508)" fill="#263238"/>
        </g>
        <g id="Group_1235" data-name="Group 1235" transform="translate(55.555 4.102)">
          <g id="Group_1234" data-name="Group 1234">
            <path id="Path_1814" data-name="Path 1814" d="M149.3,74.429a5.8,5.8,0,0,0,.437-.456,3.311,3.311,0,0,0,.6-1.675,15.943,15.943,0,0,0-.16-2.873,4.58,4.58,0,0,1,1.209-3.616c.957-1.094,2.3-1.938,3.462-3.1a5.045,5.045,0,0,0,1.32-2.1,6.055,6.055,0,0,0,.073-2.647c-.138-.919-.372-1.856-.489-2.849a6.4,6.4,0,0,1,4.982-7.176c2.152-.477,4.365-.186,6.155-1.092a4.326,4.326,0,0,0,1.924-2.085,18.659,18.659,0,0,0,.931-2.7,10.035,10.035,0,0,1,1.08-2.567,4.416,4.416,0,0,1,2.03-1.694,10.689,10.689,0,0,1,4.648-.494,12.15,12.15,0,0,0,3.776-.218,5.522,5.522,0,0,0,2.485-1.316,3.1,3.1,0,0,0,.734-1.61c.072-.409.073-.631.094-.63a2.831,2.831,0,0,1-.018.641,3.061,3.061,0,0,1-.7,1.7,5.58,5.58,0,0,1-2.539,1.423,12.177,12.177,0,0,1-3.845.281,10.53,10.53,0,0,0-4.513.516,4.094,4.094,0,0,0-1.873,1.587,9.793,9.793,0,0,0-1.025,2.485,18.835,18.835,0,0,1-.939,2.755A5.435,5.435,0,0,1,168.3,46.2a4.606,4.606,0,0,1-1.247.967c-1.944.973-4.181.662-6.243,1.132a6.038,6.038,0,0,0-4.7,6.763c.109.962.338,1.9.475,2.839a6.366,6.366,0,0,1-.1,2.795,5.358,5.358,0,0,1-1.416,2.23c-1.211,1.193-2.552,2.016-3.485,3.062a4.4,4.4,0,0,0-1.2,3.424,15.209,15.209,0,0,1,.094,2.9,3.26,3.26,0,0,1-.683,1.705A1.6,1.6,0,0,1,149.3,74.429Z" transform="translate(-149.296 -33.526)" fill="#455a64"/>
          </g>
        </g>
        <g id="Group_1237" data-name="Group 1237" transform="translate(90.807 4.102)">
          <g id="Group_1236" data-name="Group 1236">
            <path id="Path_1815" data-name="Path 1815" d="M201.432,78.694a4.041,4.041,0,0,0,.345-.388,2.721,2.721,0,0,0,.44-1.392c.06-.643-.109-1.434-.065-2.387a5.492,5.492,0,0,1,1.294-2.907,8.343,8.343,0,0,0,1.826-3.245c.248-1.325-.323-2.732-.6-4.272a5.139,5.139,0,0,1,.1-2.436,8.739,8.739,0,0,1,1.147-2.25c.469-.71.985-1.39,1.391-2.141a5.206,5.206,0,0,0,.735-2.418,4.388,4.388,0,0,0-.813-2.37,9.769,9.769,0,0,1-1.206-2.313c-.5-1.708-.114-3.379-.01-4.9a8.567,8.567,0,0,0-.048-2.211,4.244,4.244,0,0,0-.808-1.869,9.045,9.045,0,0,0-2.987-2.248,16.811,16.811,0,0,1-2.721-1.639,6.023,6.023,0,0,1-1.6-1.8,3.259,3.259,0,0,1-.431-1.457,1.933,1.933,0,0,1,.034-.528c.021,0,0,.184.042.522a3.4,3.4,0,0,0,.484,1.39,6.039,6.039,0,0,0,1.6,1.705,17.18,17.18,0,0,0,2.716,1.569,9.2,9.2,0,0,1,3.112,2.293,4.552,4.552,0,0,1,.887,2,8.89,8.89,0,0,1,.068,2.3c-.1,1.543-.46,3.186.017,4.758a9.551,9.551,0,0,0,1.174,2.225,4.75,4.75,0,0,1,.87,2.57,5.557,5.557,0,0,1-.783,2.6c-.425.782-.952,1.472-1.413,2.166a8.464,8.464,0,0,0-1.11,2.149,4.8,4.8,0,0,0-.1,2.272c.249,1.485.839,2.941.564,4.386a5,5,0,0,1-.818,1.869c-.36.541-.752,1.017-1.1,1.482a5.316,5.316,0,0,0-1.3,2.762c-.063.908.084,1.717,0,2.384a2.669,2.669,0,0,1-.527,1.425A1.128,1.128,0,0,1,201.432,78.694Z" transform="translate(-197.421 -33.527)" fill="#455a64"/>
          </g>
        </g>
        <g id="Group_1239" data-name="Group 1239" transform="translate(48.079 3.086)">
          <g id="Group_1238" data-name="Group 1238">
            <path id="Path_1816" data-name="Path 1816" d="M139.091,70.623c0-.022.24.041.7.058a4.686,4.686,0,0,0,1.933-.375,5.63,5.63,0,0,0,2.4-1.933,7.853,7.853,0,0,0,1.31-3.882,42.244,42.244,0,0,0-.254-5.076,5.406,5.406,0,0,1,.623-2.827,6.773,6.773,0,0,1,2.309-2.006,4.968,4.968,0,0,0,2.129-2.126,9.7,9.7,0,0,0,.469-3.186,9.682,9.682,0,0,1,.657-3.406,4.9,4.9,0,0,1,.991-1.521,3.28,3.28,0,0,1,1.68-.783c1.217-.211,2.4-.083,3.531-.208a4.687,4.687,0,0,0,2.952-1.318,9.679,9.679,0,0,0,1.85-2.641c.492-.95.872-1.935,1.337-2.869a11.805,11.805,0,0,1,1.649-2.565,5.284,5.284,0,0,1,2.39-1.631,4.96,4.96,0,0,1,2.7,0,14.477,14.477,0,0,1,2.311.868,11.156,11.156,0,0,0,3.948,1.249,7.807,7.807,0,0,0,3.082-.471,8.957,8.957,0,0,0,2.337-1.314,3.4,3.4,0,0,1-.523.47,7.238,7.238,0,0,1-1.761.984,7.787,7.787,0,0,1-3.145.545,11.2,11.2,0,0,1-4.046-1.215,14.487,14.487,0,0,0-2.274-.829,4.682,4.682,0,0,0-2.537.015,4.973,4.973,0,0,0-2.231,1.55,11.51,11.51,0,0,0-1.586,2.5c-.885,1.82-1.573,3.986-3.245,5.625a5.24,5.24,0,0,1-1.445.99,5.464,5.464,0,0,1-1.724.434c-1.176.127-2.365.005-3.5.206a2.891,2.891,0,0,0-1.49.687,4.557,4.557,0,0,0-.9,1.393,9.347,9.347,0,0,0-.632,3.276,9.939,9.939,0,0,1-.508,3.309,5.3,5.3,0,0,1-2.273,2.278,6.486,6.486,0,0,0-2.214,1.887,5.117,5.117,0,0,0-.593,2.65,40.824,40.824,0,0,1,.207,5.1,8.03,8.03,0,0,1-1.4,3.982,5.709,5.709,0,0,1-2.523,1.946,4.523,4.523,0,0,1-1.992.314A2.719,2.719,0,0,1,139.091,70.623Z" transform="translate(-139.091 -32.139)" fill="#455a64"/>
          </g>
        </g>
        <g id="Group_1241" data-name="Group 1241" transform="translate(91.253 3.598)">
          <g id="Group_1240" data-name="Group 1240">
            <path id="Path_1817" data-name="Path 1817" d="M208.685,42.893a5.393,5.393,0,0,0-.606-2.11,6.256,6.256,0,0,0-1.556-1.791,12.577,12.577,0,0,0-2.547-1.482c-.96-.445-1.9-.842-2.717-1.3a9.268,9.268,0,0,1-2.012-1.455,5.213,5.213,0,0,1-1.006-1.34,1.436,1.436,0,0,1-.206-.579,8.479,8.479,0,0,0,1.4,1.723,9.938,9.938,0,0,0,1.995,1.342c.8.426,1.74.809,2.711,1.259a11.926,11.926,0,0,1,2.608,1.555,6.121,6.121,0,0,1,1.572,1.937,3.976,3.976,0,0,1,.437,1.625A1.351,1.351,0,0,1,208.685,42.893Z" transform="translate(-198.031 -32.839)" fill="#455a64"/>
          </g>
        </g>
        <g id="Group_1243" data-name="Group 1243" transform="translate(80.528 16.086)">
          <g id="Group_1242" data-name="Group 1242">
            <path id="Path_1818" data-name="Path 1818" d="M188.2,50.968c-.075.084-.331-.029-.745-.125a7.431,7.431,0,0,0-3.308-.012c-.415.093-.671.2-.746.119s.1-.363.541-.619a4.063,4.063,0,0,1,3.722.015C188.1,50.6,188.27,50.9,188.2,50.968Z" transform="translate(-183.388 -49.887)" fill="#263238"/>
          </g>
        </g>
        <g id="Group_1245" data-name="Group 1245" transform="translate(92.717 17.92)">
          <g id="Group_1244" data-name="Group 1244">
            <path id="Path_1819" data-name="Path 1819" d="M203.344,53.079c-.03.209-.8.27-1.712.137s-1.633-.409-1.6-.618.8-.27,1.712-.137S203.375,52.87,203.344,53.079Z" transform="translate(-200.029 -52.39)" fill="#263238"/>
          </g>
        </g>
        <g id="Group_1247" data-name="Group 1247" transform="translate(63.289 27.946)">
          <g id="Group_1246" data-name="Group 1246">
            <path id="Path_1820" data-name="Path 1820" d="M166.967,66.078c.01-.008.072.055.18.185a3.021,3.021,0,0,1,.394.627,4.489,4.489,0,0,1,.324,2.685,13,13,0,0,1-1.31,3.784,3.409,3.409,0,0,0-.324,2.172,10.17,10.17,0,0,0,1.032,2.244,3.961,3.961,0,0,1-.47,4.737,3.668,3.668,0,0,1-1.874,1.14,10.022,10.022,0,0,1-1.869.206,4.67,4.67,0,0,0-2.513.645,3.465,3.465,0,0,0-.682.678c-.009,0,.014-.092.1-.24a1.946,1.946,0,0,1,.5-.557,4.58,4.58,0,0,1,2.583-.795,10.365,10.365,0,0,0,1.808-.242,3.375,3.375,0,0,0,1.69-1.067,3.836,3.836,0,0,0,.909-2.016,3.768,3.768,0,0,0-.515-2.315,10.137,10.137,0,0,1-1.057-2.337,3.739,3.739,0,0,1,.367-2.394c.316-.7.659-1.305.87-1.929a10.307,10.307,0,0,0,.5-1.757,4.558,4.558,0,0,0-.194-2.583C167.166,66.374,166.936,66.1,166.967,66.078Z" transform="translate(-159.855 -66.077)" fill="#263238"/>
          </g>
        </g>
        <g id="Group_1249" data-name="Group 1249" transform="translate(101.474 6.675)">
          <g id="Group_1248" data-name="Group 1248">
            <path id="Path_1821" data-name="Path 1821" d="M214.925,78.012a1,1,0,0,1-.469.088,1.75,1.75,0,0,1-1.213-.614,2.4,2.4,0,0,1-.6-2.056,5.084,5.084,0,0,1,1.421-2.482,14,14,0,0,0,2.2-2.571,3.331,3.331,0,0,0,.412-1.756,5.731,5.731,0,0,0-.455-1.9,40.5,40.5,0,0,1-1.753-4,4.272,4.272,0,0,1-.027-2.375,11.865,11.865,0,0,1,1.093-2.141A3.039,3.039,0,0,0,216,56.067a4.021,4.021,0,0,0-1.127-1.855c-.508-.544-1.064-1.047-1.534-1.626a4.955,4.955,0,0,1-.995-1.95,8.775,8.775,0,0,1,.055-3.982c.262-1.217.607-2.314.827-3.333a7.509,7.509,0,0,0-.213-4.813,5.277,5.277,0,0,0-1.031-1.467c0-.005.039.017.1.065a2.242,2.242,0,0,1,.269.231,3.953,3.953,0,0,1,.794,1.108,5.908,5.908,0,0,1,.562,2.085,9.665,9.665,0,0,1-.218,2.848c-.207,1.037-.538,2.142-.782,3.341a8.518,8.518,0,0,0-.026,3.829,4.608,4.608,0,0,0,.937,1.81c.449.549,1,1.044,1.524,1.6a4.352,4.352,0,0,1,1.225,2.034,3.408,3.408,0,0,1-.508,2.395,11.823,11.823,0,0,0-1.065,2.07,3.907,3.907,0,0,0,.026,2.165,42.656,42.656,0,0,0,1.718,3.97,6.019,6.019,0,0,1,.464,2.023,3.653,3.653,0,0,1-.47,1.916,13.813,13.813,0,0,1-2.279,2.6,4.911,4.911,0,0,0-1.409,2.337,2.247,2.247,0,0,0,.5,1.918,1.722,1.722,0,0,0,1.107.635C214.761,78.048,214.92,77.989,214.925,78.012Z" transform="translate(-211.983 -37.039)" fill="#263238"/>
          </g>
        </g>
        <g id="Group_1251" data-name="Group 1251" transform="translate(129.508 54.692)">
          <g id="Group_1250" data-name="Group 1250" transform="translate(0)">
            <path id="Path_1822" data-name="Path 1822" d="M253.909,105.441a13.169,13.169,0,0,0-1.59-1.713,13.143,13.143,0,0,0-2.064-1.1,3.836,3.836,0,0,1,3.653,2.811Z" transform="translate(-250.256 -102.591)" fill="#d1734a"/>
          </g>
        </g>
        <g id="Group_1253" data-name="Group 1253" transform="translate(120.812 90.885)">
          <g id="Group_1252" data-name="Group 1252" transform="translate(0)">
            <path id="Path_1823" data-name="Path 1823" d="M239.813,158.8a16.029,16.029,0,0,1-1.381-6.8,31.269,31.269,0,0,1,.692,3.4A31.377,31.377,0,0,1,239.813,158.8Z" transform="translate(-238.383 -152)" fill="#d1734a"/>
          </g>
        </g>
        <g id="Group_1257" data-name="Group 1257" transform="translate(61.403 75.875)">
          <g id="Group_1256" data-name="Group 1256">
            <g id="Group_1255" data-name="Group 1255">
              <g id="Group_1254" data-name="Group 1254">
                <path id="Path_1824" data-name="Path 1824" d="M171.4,145.107a6.948,6.948,0,0,0,4.714-5.99,6.473,6.473,0,1,0-12.842-1.332,6.938,6.938,0,0,0,3.454,6.859,10.367,10.367,0,0,0-9.447,6.68,14.6,14.6,0,0,0,8.434,5.73l3.957.41a14.6,14.6,0,0,0,9.534-3.989A10.2,10.2,0,0,0,171.4,145.107Z" transform="translate(-157.28 -131.509)" fill="#fff"/>
              </g>
            </g>
          </g>
        </g>
        <g id="Group_1258" data-name="Group 1258" transform="translate(41.213 83.551)" opacity="0.3">
          <path id="Path_1825" data-name="Path 1825" d="M134.818,145.342l3.252-3.354s-1.4,24.251-2.363,27.165-5.989,12.62-5.989,12.62l4.339-13.266Z" transform="translate(-129.718 -141.988)"/>
        </g>
        <g id="Group_1260" data-name="Group 1260" transform="translate(40.455 79.442)">
          <g id="Group_1259" data-name="Group 1259">
            <path id="Path_1826" data-name="Path 1826" d="M141.741,136.38c.076.073-2.786,3.174-6.391,6.925s-6.59,6.735-6.667,6.661,2.785-3.173,6.391-6.926S141.665,136.306,141.741,136.38Z" transform="translate(-128.682 -136.378)" fill="#263238"/>
          </g>
        </g>
        <g id="Group_1262" data-name="Group 1262" transform="translate(95.037 77.545)">
          <g id="Group_1261" data-name="Group 1261">
            <path id="Path_1827" data-name="Path 1827" d="M207.137,133.788a2.94,2.94,0,0,1-.031.762c-.044.487-.127,1.19-.245,2.056-.234,1.733-.626,4.118-1.169,6.731s-1.14,4.957-1.617,6.639c-.238.841-.443,1.519-.6,1.983a2.907,2.907,0,0,1-.275.711,2.918,2.918,0,0,1,.132-.751l.479-2.011c.409-1.7.96-4.043,1.5-6.649s.974-4.977,1.277-6.7q.212-1.189.364-2.036A2.919,2.919,0,0,1,207.137,133.788Z" transform="translate(-203.196 -133.788)" fill="#263238"/>
          </g>
        </g>
        <g id="Group_1263" data-name="Group 1263" transform="translate(83.701 30.97)">
          <path id="Path_1828" data-name="Path 1828" d="M188.256,70.567a1.561,1.561,0,1,1-.42,1.792,1.647,1.647,0,0,1,.956-2.129" transform="translate(-187.72 -70.205)" fill="#e8505b"/>
        </g>
        <g id="Group_1266" data-name="Group 1266" transform="translate(84.091 29.695)">
          <g id="Group_1265" data-name="Group 1265">
            <g id="Group_1264" data-name="Group 1264">
              <path id="Path_1829" data-name="Path 1829" d="M188.551,68.467c.192.015.019,1.288.984,2.342s2.338,1.1,2.324,1.28c.007.082-.336.206-.911.142a3.2,3.2,0,0,1-1.95-1,2.781,2.781,0,0,1-.743-1.952C188.28,68.743,188.465,68.448,188.551,68.467Z" transform="translate(-188.253 -68.466)" fill="#263238"/>
            </g>
          </g>
        </g>
        <g id="Group_1267" data-name="Group 1267" transform="translate(61.946 3.23)">
          <path id="Path_1830" data-name="Path 1830" d="M164.208,39.835a7.364,7.364,0,0,0,1.563-3.608,3.892,3.892,0,0,0-3.388-3.873,4.113,4.113,0,0,0-4.246,3.006,4.364,4.364,0,0,0,2.177,4.783,4.651,4.651,0,0,0,5.245-.8" transform="translate(-158.021 -32.335)" fill="#263238"/>
        </g>
        <g id="Group_1269" data-name="Group 1269" transform="translate(66.905 6.928)">
          <g id="Group_1268" data-name="Group 1268">
            <path id="Path_1831" data-name="Path 1831" d="M167.7,37.384a3.836,3.836,0,0,1-.755,2.683,3.832,3.832,0,0,1-2.151,1.773,13.553,13.553,0,0,0,1.831-1.982A13.635,13.635,0,0,0,167.7,37.384Z" transform="translate(-164.792 -37.384)" fill="#455a64"/>
          </g>
        </g>
        <g id="Group_1271" data-name="Group 1271" transform="translate(65.142 3.304)">
          <g id="Group_1270" data-name="Group 1270">
            <path id="Path_1832" data-name="Path 1832" d="M164.8,40.139a14.727,14.727,0,0,0-.478-4.076,14.7,14.7,0,0,0-1.928-3.624c.031-.032.412.258.9.858a8.3,8.3,0,0,1,1.759,5.627A2.87,2.87,0,0,1,164.8,40.139Z" transform="translate(-162.384 -32.437)" fill="#455a64"/>
          </g>
        </g>
      </g>
    </g>
    <g id="Icon" transform="translate(147.184 132.306)">
      <g id="Group_1281" data-name="Group 1281" transform="translate(0)">
        <g id="Group_1273" data-name="Group 1273" transform="translate(0 3.452)">
          <path id="Path_1836" data-name="Path 1836" d="M18.6,0A18.6,18.6,0,1,1,0,18.6,18.6,18.6,0,0,1,18.6,0Z" fill="#f19208"/>
        </g>
        <g id="Group_1275" data-name="Group 1275">
          <path id="Path_1835" data-name="Path 1835" d="M18.6,0A18.6,18.6,0,1,1,0,18.6,18.6,18.6,0,0,1,18.6,0Z" fill="#f99300"/>
        </g>
        <g id="Group_1280" data-name="Group 1280" transform="translate(7.596 7.597)">
          <g id="Group_1277" data-name="Group 1277" transform="translate(10.047)">
            <g id="Group_1276" data-name="Group 1276">
              <path id="Path_1833" data-name="Path 1833" d="M200.587,202.794c-.527,0-.954-4.925-.954-11s.427-11,.954-11,.954,4.925.954,11S201.113,202.794,200.587,202.794Z" transform="translate(-199.633 -180.793)" fill="#fff"/>
            </g>
          </g>
          <g id="Group_1279" data-name="Group 1279" transform="translate(0 10.046)">
            <g id="Group_1278" data-name="Group 1278">
              <path id="Path_1834" data-name="Path 1834" d="M207.919,195.462c0,.527-4.925.954-11,.954s-11-.427-11-.954,4.925-.954,11-.954S207.919,194.935,207.919,195.462Z" transform="translate(-185.917 -194.508)" fill="#fff"/>
            </g>
          </g>
        </g>
      </g>
    </g>
  </g>
</svg>
