<svg id="Group_1666" data-name="Group 1666" xmlns="http://www.w3.org/2000/svg" xmlns:xlink="http://www.w3.org/1999/xlink" width="91.869" height="91.87" viewBox="0 0 91.869 91.87">
  <defs>
    <clipPath id="clip-path">
      <rect id="Rectangle_796" data-name="Rectangle 796" width="91.869" height="91.87" transform="translate(0 0)" fill="none"/>
    </clipPath>
    <clipPath id="clip-path-2">
      <rect id="Rectangle_795" data-name="Rectangle 795" width="91.869" height="91.87" fill="none"/>
    </clipPath>
    <clipPath id="clip-path-3">
      <rect id="Rectangle_794" data-name="Rectangle 794" width="13.753" height="5.457" fill="none"/>
    </clipPath>
  </defs>
  <g id="Group_1444" data-name="Group 1444" transform="translate(0 0)" clip-path="url(#clip-path)">
    <g id="Group_1443" data-name="Group 1443" transform="translate(0 0)">
      <g id="Group_1442" data-name="Group 1442" transform="translate(0 0)" clip-path="url(#clip-path-2)">
        <path id="Path_2311" data-name="Path 2311" d="M591.23,326.095a8.889,8.889,0,0,0-9.918,8.817,9.048,9.048,0,0,0,.065,1.055,8.879,8.879,0,0,0,17.694-1.055,9.072,9.072,0,0,0-.06-1.021,8.881,8.881,0,0,0-7.781-7.8" transform="translate(-513.485 -289.489)" fill="#fffdea"/>
        <path id="Path_2312" data-name="Path 2312" d="M589.239,342.965a9.153,9.153,0,0,1-1.053-.063,8.96,8.96,0,0,1-7.887-7.872,8.788,8.788,0,0,1,0-2.105,8.955,8.955,0,0,1,7.892-7.906,8.8,8.8,0,0,1,2.105,0,8.954,8.954,0,0,1,7.891,7.906,9.243,9.243,0,0,1,.061,1.035,9.017,9.017,0,0,1-9,9.005m0-17.759a8.9,8.9,0,0,0-1.024.062,8.7,8.7,0,0,0-7.671,7.685,8.543,8.543,0,0,0,0,2.048,8.71,8.71,0,0,0,7.667,7.652,8.472,8.472,0,0,0,2.048,0A8.71,8.71,0,0,0,597.929,335a8.8,8.8,0,0,0,.064-1.041,8.95,8.95,0,0,0-.059-1.007,8.769,8.769,0,0,0-8.694-7.747" transform="translate(-512.533 -288.539)"/>
        <path id="Path_2313" data-name="Path 2313" d="M586.688,320.646a10.759,10.759,0,0,0-21.519,0v.034A10.757,10.757,0,0,0,575.715,331.4a1.036,1.036,0,0,0,.427,0,10.757,10.757,0,0,0,10.545-10.721c0-.005,0-.011,0-.017v-.017Zm-1.945,1.055a8.878,8.878,0,0,1-17.63,0,8.645,8.645,0,0,1,0-2.076,8.881,8.881,0,0,1,7.781-7.8,8.641,8.641,0,0,1,2.076,0,8.881,8.881,0,0,1,7.781,7.8,9.016,9.016,0,0,1,.06,1.021,8.918,8.918,0,0,1-.065,1.055" transform="translate(-499.222 -275.225)" fill="#00c4da"/>
        <path id="Path_2314" data-name="Path 2314" d="M574.975,330.6a1.164,1.164,0,0,1-.239-.025,10.938,10.938,0,0,1-10.646-10.843V319.7a10.885,10.885,0,0,1,21.77,0v.028a10.947,10.947,0,0,1-10.669,10.852.967.967,0,0,1-.216.022m-10.634-10.869a10.693,10.693,0,0,0,10.423,10.6.936.936,0,0,0,.4,0,10.7,10.7,0,0,0,10.446-10.6l.126-.033h-.126a10.634,10.634,0,0,0-21.267,0l-.126.034Zm10.634,8.972a9.119,9.119,0,0,1-1.053-.063,9.022,9.022,0,0,1-7.952-8.942,9.116,9.116,0,0,1,.061-1.035,8.955,8.955,0,0,1,7.891-7.906,8.8,8.8,0,0,1,2.106,0,8.954,8.954,0,0,1,7.891,7.906,9.242,9.242,0,0,1,.061,1.035,9.019,9.019,0,0,1-9,9.005m0-17.759a8.911,8.911,0,0,0-1.024.062,8.7,8.7,0,0,0-7.671,7.685,8.534,8.534,0,0,0,0,2.048,8.71,8.71,0,0,0,7.667,7.652,8.479,8.479,0,0,0,2.048,0,8.71,8.71,0,0,0,7.666-7.652,8.559,8.559,0,0,0,0-2.048,8.769,8.769,0,0,0-8.694-7.747" transform="translate(-498.269 -274.279)"/>
        <path id="Path_2315" data-name="Path 2315" d="M354.937,49.551a5.171,5.171,0,0,0-2.9,9.451l2.9,5.475L357.84,59a5.171,5.171,0,0,0-2.9-9.451m0,7.914a2.742,2.742,0,1,1,2.743-2.742,2.743,2.743,0,0,1-2.743,2.742" transform="translate(-308.902 -45.204)" fill="#00c4da"/>
        <path id="Path_2316" data-name="Path 2316" d="M353.985,63.65h0a.125.125,0,0,1-.111-.067l-2.888-5.448a5.3,5.3,0,1,1,6,0L354.1,63.583a.125.125,0,0,1-.111.067m0-14.927a5.046,5.046,0,0,0-2.832,9.222.126.126,0,0,1,.04.045l2.791,5.266,2.792-5.266a.123.123,0,0,1,.04-.045,5.046,5.046,0,0,0-2.832-9.222m0,7.914a2.868,2.868,0,1,1,2.868-2.868,2.871,2.871,0,0,1-2.868,2.868m0-5.485a2.617,2.617,0,1,0,2.617,2.617,2.62,2.62,0,0,0-2.617-2.617" transform="translate(-307.949 -44.25)"/>
        <path id="Path_2317" data-name="Path 2317" d="M624.8,61.41a7.148,7.148,0,0,0-4.012,13.064l4.012,7.568,4.011-7.568A7.148,7.148,0,0,0,624.8,61.41m0,10.938a3.791,3.791,0,1,1,3.79-3.79,3.791,3.791,0,0,1-3.79,3.79" transform="translate(-545.592 -55.682)" fill="#f44e02"/>
        <path id="Path_2318" data-name="Path 2318" d="M623.846,81.215a.125.125,0,0,1-.111-.067l-4-7.54a7.274,7.274,0,1,1,8.216,0l-4,7.54a.125.125,0,0,1-.111.067m0-20.632A7.022,7.022,0,0,0,619.9,73.418a.126.126,0,0,1,.04.045l3.9,7.359,3.9-7.359a.127.127,0,0,1,.04-.045,7.022,7.022,0,0,0-3.941-12.835m0,10.938a3.916,3.916,0,1,1,3.916-3.916,3.92,3.92,0,0,1-3.916,3.916m0-7.581a3.665,3.665,0,1,0,3.665,3.665,3.669,3.669,0,0,0-3.665-3.665" transform="translate(-544.639 -54.729)" fill="#231f20"/>
        <path id="Path_2319" data-name="Path 2319" d="M299.331,238.476H276.365a2.922,2.922,0,0,1-2.919-2.919v-45a2.922,2.922,0,0,1,2.919-2.919h22.966a2.922,2.922,0,0,1,2.919,2.919v45a2.922,2.922,0,0,1-2.919,2.919m-22.966-50.587a2.671,2.671,0,0,0-2.668,2.668v45a2.671,2.671,0,0,0,2.668,2.668h22.966A2.671,2.671,0,0,0,302,235.558v-45a2.671,2.671,0,0,0-2.668-2.668Z" transform="translate(-241.469 -167.211)"/>
        <path id="Path_2320" data-name="Path 2320" d="M379.781,570.225a2.633,2.633,0,1,1-2.633-2.633,2.633,2.633,0,0,1,2.633,2.633" transform="translate(-330.769 -502.921)" fill="#b3b4b5"/>
        <path id="Path_2321" data-name="Path 2321" d="M376.2,572.031a2.759,2.759,0,1,1,2.758-2.759,2.762,2.762,0,0,1-2.758,2.759m0-5.266a2.507,2.507,0,1,0,2.507,2.507,2.51,2.51,0,0,0-2.507-2.507" transform="translate(-329.816 -501.968)"/>
        <path id="Path_2322" data-name="Path 2322" d="M378.415,569.107a2.628,2.628,0,1,0-2.633,2.633,2.615,2.615,0,0,0,2.633-2.633" transform="translate(-330.769 -502.921)" fill="#d1d3d4"/>
        <rect id="Rectangle_789" data-name="Rectangle 789" width="7.681" height="1.629" transform="translate(42.539 23.152)" fill="#d1d3d4"/>
        <path id="Path_2323" data-name="Path 2323" d="M370.872,211.839h-7.681a.125.125,0,0,1-.125-.126v-1.629a.125.125,0,0,1,.125-.126h7.681a.126.126,0,0,1,.126.126v1.629a.125.125,0,0,1-.126.126m-7.555-.251h7.43V210.21h-7.43Z" transform="translate(-320.653 -186.933)"/>
        <path id="Path_2324" data-name="Path 2324" d="M308.028,262.83l7.317,7.317v-7.114l-3.8-3.8,3.8-3.8V248.4l-7.317,7.317L296.45,244.138l.167-.167h-6.1V245.4l4.492,4.492-4.492,4.492v10.548l4.148,4.149-4.148,4.149v7.055h3.16l-1.55-1.551,6.1-6.1,7.647,7.647h7.416l-11.356-11.356Zm-15.711-3.518,6.058-6.057,6.057,6.057-6.057,6.057Z" transform="translate(-256.552 -216.984)" fill="#fffdea"/>
        <path id="Path_2325" data-name="Path 2325" d="M312.334,279.455h-7.417a.126.126,0,0,1-.089-.037l-7.558-7.558-5.918,5.919,1.443,1.443a.126.126,0,0,1-.065.233h-3.164a.126.126,0,0,1-.126-.126v-7.055a.126.126,0,0,1,.037-.089l4.059-4.06-4.059-4.06a.126.126,0,0,1-.037-.089V253.43a.125.125,0,0,1,.037-.089l4.4-4.4-4.4-4.4a.126.126,0,0,1-.037-.089v-1.427a.126.126,0,0,1,.126-.126h6.1a.126.126,0,0,1,.089.215l-.078.078,11.4,11.4,7.229-7.228a.125.125,0,0,1,.214.089v7.036a.126.126,0,0,1-.037.089l-3.71,3.71,3.71,3.71a.126.126,0,0,1,.037.089V269.2a.125.125,0,0,1-.214.089l-7.229-7.228-5.919,5.919,11.267,11.267a.126.126,0,0,1-.089.214m-7.365-.251h7.062L300.89,268.063a.125.125,0,0,1,0-.178l6.1-6.1a.125.125,0,0,1,.177,0l7.1,7.1v-6.759l-3.762-3.762a.126.126,0,0,1,0-.178l3.762-3.762v-6.681l-7.1,7.1a.125.125,0,0,1-.177,0l-11.578-11.578a.126.126,0,0,1-.037-.089.124.124,0,0,1,.007-.042H289.69v1.249l4.455,4.455a.125.125,0,0,1,0,.177l-4.455,4.455v10.444l4.112,4.112a.126.126,0,0,1,0,.177l-4.112,4.112V279.2h2.731l-1.335-1.336a.125.125,0,0,1,0-.178l6.1-6.1a.129.129,0,0,1,.177,0Zm-7.548-14.662a.125.125,0,0,1-.089-.037l-6.058-6.057a.125.125,0,0,1,0-.178l6.058-6.057a.125.125,0,0,1,.177,0l6.057,6.057a.125.125,0,0,1,0,.178l-6.057,6.057a.125.125,0,0,1-.089.037m-5.88-6.183,5.88,5.88,5.88-5.88-5.88-5.88Z" transform="translate(-255.599 -216.032)"/>
        <path id="Path_2326" data-name="Path 2326" d="M353.046,255.717l7.317-7.317v-4.428H341.636l-.167.167Z" transform="translate(-301.57 -216.985)" fill="#e84900"/>
        <path id="Path_2327" data-name="Path 2327" d="M352.094,254.89a.125.125,0,0,1-.089-.037l-11.578-11.578a.126.126,0,0,1,0-.178l.167-.167a.126.126,0,0,1,.089-.037h18.728a.126.126,0,0,1,.126.126v4.428a.125.125,0,0,1-.037.089l-7.317,7.317a.125.125,0,0,1-.089.037m-11.4-11.7,11.4,11.4,7.192-7.192v-4.25h-18.55Z" transform="translate(-300.619 -216.033)"/>
        <path id="Path_2328" data-name="Path 2328" d="M401.949,413.248l-7.317-7.317-6.1,6.1,11.356,11.355h2.059Z" transform="translate(-343.157 -360.084)" fill="#bdbebf"/>
        <path id="Path_2329" data-name="Path 2329" d="M401,422.555h-2.058a.125.125,0,0,1-.089-.037l-11.356-11.356a.125.125,0,0,1,0-.177l6.1-6.1a.126.126,0,0,1,.177,0l7.317,7.317a.126.126,0,0,1,.037.089V422.43a.126.126,0,0,1-.126.126m-2.006-.251h1.881v-9.957l-7.192-7.191-5.919,5.919Z" transform="translate(-342.204 -359.132)"/>
        <path id="Path_2330" data-name="Path 2330" d="M304.342,496.23l1.55,1.551h12.193l-7.647-7.647Z" transform="translate(-268.767 -434.482)" fill="#e84900"/>
        <path id="Path_2331" data-name="Path 2331" d="M317.133,496.964H304.939a.125.125,0,0,1-.089-.037l-1.55-1.551a.126.126,0,0,1,0-.177l6.1-6.1a.129.129,0,0,1,.178,0l7.647,7.647a.126.126,0,0,1-.089.214m-12.141-.251H316.83l-7.344-7.344-5.918,5.919Z" transform="translate(-267.815 -433.54)"/>
        <path id="Path_2332" data-name="Path 2332" d="M290.517,423.956v8.3l4.148-4.149Z" transform="translate(-256.552 -376.011)" fill="#bdbebf"/>
        <path id="Path_2333" data-name="Path 2333" d="M289.565,431.428a.124.124,0,0,1-.048-.01.126.126,0,0,1-.078-.116V423a.125.125,0,0,1,.214-.089l4.148,4.149a.126.126,0,0,1,0,.177l-4.148,4.149a.125.125,0,0,1-.089.037m.125-8.12V431l3.845-3.846Z" transform="translate(-255.599 -375.06)"/>
        <path id="Path_3315" data-name="Path 3315" d="M0,0H8.567V8.567H0Z" transform="translate(35.765 42.328) rotate(-44.997)" fill="#119201"/>
        <path id="Path_2334" data-name="Path 2334" d="M311.076,334.986a.124.124,0,0,1-.089-.037l-6.058-6.057a.126.126,0,0,1,0-.178l6.058-6.057a.125.125,0,0,1,.177,0l6.057,6.057a.125.125,0,0,1,0,.178l-6.057,6.057a.124.124,0,0,1-.089.037M305.2,328.8l5.88,5.88,5.88-5.88-5.88-5.88Z" transform="translate(-269.254 -286.476)"/>
        <path id="Path_2335" data-name="Path 2335" d="M413.887,435.6l-10.1-10.1,4.321-4.321,6.062,6.062V435.6Z" transform="translate(-356.632 -373.555)" fill="#d1d3d4"/>
        <path id="Path_2336" data-name="Path 2336" d="M413.887,435.6l-10.1-10.1,4.321-4.321,6.062,6.062V435.6Z" transform="translate(-356.632 -373.555)" fill="#d1d3d4"/>
        <path id="Path_2337" data-name="Path 2337" d="M319.882,510l-.295-.3,4.32-4.321L328.524,510Z" transform="translate(-282.238 -447.954)" fill="#ff987c"/>
        <path id="Path_2338" data-name="Path 2338" d="M321.1,511.121l-1.516-1.419,4.321-4.321,5.74,5.74Z" transform="translate(-282.238 -447.954)" fill="#f44e02"/>
        <path id="Path_2339" data-name="Path 2339" d="M301.3,449.988l1.117,1.117-1.117,1.117Z" transform="translate(-266.078 -399.012)" fill="#d1d3d4"/>
        <path id="Path_2340" data-name="Path 2340" d="M291.662,440.355l2.239,2.239-2.24,2.24Z" transform="translate(-257.563 -390.501)" fill="#d1d3d4"/>
        <rect id="Rectangle_791" data-name="Rectangle 791" width="6.055" height="6.055" transform="translate(37.54 42.328) rotate(-44.999)" fill="#bee450"/>
        <rect id="Rectangle_792" data-name="Rectangle 792" width="6.055" height="6.055" transform="translate(37.54 42.328) rotate(-44.999)" fill="#119201"/>
        <path id="Path_2341" data-name="Path 2341" d="M290.517,256.222v8.984l4.492-4.492Z" transform="translate(-256.552 -227.809)" fill="#e84900"/>
        <path id="Path_2342" data-name="Path 2342" d="M289.565,264.38a.126.126,0,0,1-.126-.126V255.27a.126.126,0,0,1,.214-.089l4.492,4.492a.125.125,0,0,1,0,.178l-4.492,4.492a.125.125,0,0,1-.089.037m.125-8.807v8.378l4.189-4.189Z" transform="translate(-255.599 -226.857)"/>
        <path id="Path_2343" data-name="Path 2343" d="M291.638,270.537v5.643l2.812-2.818Z" transform="translate(-257.542 -240.456)" fill="#f44e02"/>
        <path id="Path_2344" data-name="Path 2344" d="M474.909,350.018v-7.6l-3.8,3.8Z" transform="translate(-416.116 -303.969)" fill="#119201"/>
        <path id="Path_2345" data-name="Path 2345" d="M473.956,349.191a.126.126,0,0,1-.089-.037l-3.8-3.8a.126.126,0,0,1,0-.178l3.8-3.8a.126.126,0,0,1,.214.089v7.6a.126.126,0,0,1-.126.125m-3.621-3.924,3.5,3.5V341.77Z" transform="translate(-415.164 -303.016)"/>
        <path id="Path_2346" data-name="Path 2346" d="M347.921,349.257a7.469,7.469,0,1,1-7.469-7.469,7.469,7.469,0,0,1,7.469,7.469" transform="translate(-294.073 -303.411)" fill="#00b4c9"/>
        <path id="Path_2347" data-name="Path 2347" d="M339.5,355.9a7.595,7.595,0,1,1,7.595-7.595A7.6,7.6,0,0,1,339.5,355.9m0-14.938a7.344,7.344,0,1,0,7.344,7.344,7.352,7.352,0,0,0-7.344-7.344" transform="translate(-293.12 -302.458)"/>
        <path id="Path_2348" data-name="Path 2348" d="M353.666,355.878a6.6,6.6,0,1,1-6.6-6.6,6.6,6.6,0,0,1,6.6,6.6" transform="translate(-300.691 -310.031)" fill="#00c4da"/>
        <path id="Path_2349" data-name="Path 2349" d="M364.978,373.4l3.743-8.776,3.744,8.776-3.744-1.285Z" transform="translate(-322.342 -323.586)" fill="#ebebeb"/>
        <path id="Path_2350" data-name="Path 2350" d="M371.512,372.621a.122.122,0,0,1-.041-.007l-3.7-1.271-3.7,1.271a.125.125,0,0,1-.156-.168l3.743-8.776a.131.131,0,0,1,.231,0l3.743,8.776a.125.125,0,0,1-.115.175m-3.744-1.536a.121.121,0,0,1,.041.007l3.477,1.193-3.517-8.246-3.517,8.246,3.476-1.193a.121.121,0,0,1,.041-.007" transform="translate(-321.39 -322.684)"/>
        <path id="Path_2351" data-name="Path 2351" d="M358.265,245.068l9.573,9.563,7.238-7.156v-2.407Z" transform="translate(-316.411 -217.953)" fill="#f44e02"/>
        <path id="Path_2352" data-name="Path 2352" d="M484.462,359.212v-4.807l-2.4,2.4Z" transform="translate(-425.797 -314.559)" fill="#bee450"/>
        <path id="Path_2353" data-name="Path 2353" d="M364.978,386.458l3.743-1.285,1.861.639-2.6-6.408Z" transform="translate(-322.342 -336.646)" fill="#fff"/>
        <path id="Path_2354" data-name="Path 2354" d="M371.512,372.621a.122.122,0,0,1-.041-.007l-3.7-1.271-3.7,1.271a.125.125,0,0,1-.156-.168l3.743-8.776a.131.131,0,0,1,.231,0l3.743,8.776a.125.125,0,0,1-.115.175m-3.744-1.536a.121.121,0,0,1,.041.007l3.477,1.193-3.517-8.246-3.517,8.246,3.476-1.193a.121.121,0,0,1,.041-.007" transform="translate(-321.39 -322.684)"/>
        <path id="Path_2355" data-name="Path 2355" d="M376.2,572.031a2.759,2.759,0,1,1,2.758-2.759,2.762,2.762,0,0,1-2.758,2.759m0-5.266a2.507,2.507,0,1,0,2.507,2.507,2.51,2.51,0,0,0-2.507-2.507" transform="translate(-329.816 -501.968)"/>
        <rect id="Rectangle_793" data-name="Rectangle 793" width="2.819" height="1.381" transform="translate(47.272 23.274)" fill="#bdbebf"/>
        <path id="Path_2356" data-name="Path 2356" d="M463.938,121.485h-7.617a5.153,5.153,0,0,1-5.147-5.147v-5.375a4.9,4.9,0,0,0-4.9-4.9H435.716a.126.126,0,0,1,0-.251h10.562a5.153,5.153,0,0,1,5.147,5.147v5.375a4.9,4.9,0,0,0,4.9,4.9h7.617a.126.126,0,0,1,0,.251" transform="translate(-384.732 -94.916)" fill="#231f20"/>
        <path id="Path_2357" data-name="Path 2357" d="M80.71,58.826H66.349L60.95,55l5.4-3.829H80.71L78.688,55Z" transform="translate(-53.717 -46.632)" fill="#c0a25a"/>
        <path id="Path_2358" data-name="Path 2358" d="M79.762,58H65.4a.125.125,0,0,1-.073-.023l-5.4-3.829a.125.125,0,0,1,0-.2l5.4-3.829a.125.125,0,0,1,.073-.023H79.757a.126.126,0,0,1,.111.184l-1.991,3.771,1.977,3.743a.126.126,0,0,1-.092.211m-14.326-.251H79.549L77.624,54.1a.125.125,0,0,1,0-.117l1.925-3.645H65.436l-5.222,3.7Z" transform="translate(-52.765 -45.679)"/>
        <path id="Path_2359" data-name="Path 2359" d="M144.844,143.164a.126.126,0,0,1-.126-.126V115.983a.126.126,0,0,1,.251,0v27.056a.125.125,0,0,1-.126.126" transform="translate(-127.731 -103.788)" fill="#231f20"/>
        <path id="Path_2360" data-name="Path 2360" d="M60.95,164.173H75.311l5.4-3.829-5.4-3.829H60.95l2.022,3.829Z" transform="translate(-53.717 -139.711)" fill="#c0a25a"/>
        <path id="Path_2361" data-name="Path 2361" d="M74.358,163.345H60a.126.126,0,0,1-.111-.184l1.991-3.771-1.991-3.771a.126.126,0,0,1,.111-.184H74.358a.124.124,0,0,1,.073.023l5.4,3.829a.126.126,0,0,1,0,.2l-5.4,3.829a.124.124,0,0,1-.073.023m-14.153-.251H74.318l5.221-3.7-5.221-3.7H60.205l1.925,3.645a.126.126,0,0,1,0,.117Z" transform="translate(-52.764 -138.759)"/>
        <path id="Path_2362" data-name="Path 2362" d="M174.519,412.777h-4.8a.125.125,0,0,1-.125-.126,12.079,12.079,0,0,0-.99-4.8.125.125,0,0,1,.115-.175h4.56a.126.126,0,0,1,.11.065,10.223,10.223,0,0,1,1.259,4.912.125.125,0,0,1-.126.126m-4.678-.251h4.552a9.973,9.973,0,0,0-1.191-4.6h-4.3a12.319,12.319,0,0,1,.936,4.6" transform="translate(-148.823 -361.625)"/>
        <path id="Path_2363" data-name="Path 2363" d="M140.962,368.166H136.4a.126.126,0,0,1-.116-.076c-.132-.308-.257-.576-.384-.819a12.3,12.3,0,0,0-3.832-4.367.126.126,0,0,1,.072-.228h0a10.228,10.228,0,0,1,8.929,5.3.125.125,0,0,1-.11.186m-4.478-.251h4.263a9.975,9.975,0,0,0-8.2-4.98,12.551,12.551,0,0,1,3.583,4.219c.119.229.237.478.359.76" transform="translate(-116.509 -321.866)"/>
        <path id="Path_2364" data-name="Path 2364" d="M60.469,368.166h-4.56a.125.125,0,0,1-.11-.186,10.229,10.229,0,0,1,8.93-5.3h0a.126.126,0,0,1,.072.228,12.277,12.277,0,0,0-3.832,4.367c-.122.234-.24.487-.385.82a.126.126,0,0,1-.115.075m-4.345-.251h4.263c.133-.3.245-.539.36-.76a12.529,12.529,0,0,1,3.583-4.219,9.977,9.977,0,0,0-8.206,4.98" transform="translate(-49.152 -321.866)"/>
        <path id="Path_2365" data-name="Path 2365" d="M50.031,412.777h-4.8a.125.125,0,0,1-.126-.126,10.216,10.216,0,0,1,1.259-4.912.126.126,0,0,1,.11-.065h4.56a.125.125,0,0,1,.115.175,12.091,12.091,0,0,0-.99,4.8.125.125,0,0,1-.126.126m-4.677-.251h4.553a12.332,12.332,0,0,1,.936-4.6h-4.3a9.964,9.964,0,0,0-1.192,4.6" transform="translate(-39.714 -361.625)"/>
        <path id="Path_2366" data-name="Path 2366" d="M131.709,362.772h-.018l-.015-.075-.019.029-.005.046a.126.126,0,0,1-.074-.227l.074.079v-.011l-.046-.087a.126.126,0,0,1,.148,0,.146.146,0,0,1,.063.15.12.12,0,0,1-.108.1" transform="translate(-116.074 -321.712)"/>
        <path id="Path_2367" data-name="Path 2367" d="M99.358,368.182H95.069a.126.126,0,0,1-.115-.176c.147-.339.269-.6.393-.836a12.531,12.531,0,0,1,3.91-4.457.153.153,0,0,1,.226.1v5.24a.125.125,0,0,1-.126.126m-4.1-.251h3.97v-4.891a12.282,12.282,0,0,0-3.662,4.246c-.1.191-.2.394-.308.644" transform="translate(-83.752 -321.882)"/>
        <path id="Path_2368" data-name="Path 2368" d="M91.768,412.777H86.48a.125.125,0,0,1-.126-.126,12.34,12.34,0,0,1,1.011-4.9.125.125,0,0,1,.115-.076h4.288a.126.126,0,0,1,.126.126v4.851a.125.125,0,0,1-.126.126m-5.162-.251h5.037v-4.6h-4.08a12.082,12.082,0,0,0-.957,4.6" transform="translate(-76.163 -361.625)"/>
        <path id="Path_2369" data-name="Path 2369" d="M136.183,368.162H131.9a.125.125,0,0,1-.125-.125V362.8a.125.125,0,0,1,.125-.126.231.231,0,0,1,.1.023,12.548,12.548,0,0,1,3.91,4.457c.13.249.258.523.392.837a.125.125,0,0,1-.115.175m-4.162-.251h3.971c-.1-.236-.206-.449-.308-.644a12.3,12.3,0,0,0-3.663-4.247Z" transform="translate(-116.29 -321.862)"/>
        <path id="Path_2370" data-name="Path 2370" d="M137.184,412.777H131.9a.125.125,0,0,1-.125-.126V407.8a.125.125,0,0,1,.125-.126h4.288a.125.125,0,0,1,.115.076,12.322,12.322,0,0,1,1.011,4.9.125.125,0,0,1-.126.126m-5.163-.251h5.036a12.067,12.067,0,0,0-.957-4.6h-4.079Z" transform="translate(-116.29 -361.625)"/>
        <path id="Path_2371" data-name="Path 2371" d="M173.276,454.439h-4.56a.125.125,0,0,1-.115-.175,12.077,12.077,0,0,0,.99-4.8.125.125,0,0,1,.125-.125h4.8a.125.125,0,0,1,.126.125,10.221,10.221,0,0,1-1.259,4.912.126.126,0,0,1-.11.065m-4.371-.251h4.3a9.968,9.968,0,0,0,1.191-4.6h-4.552a12.317,12.317,0,0,1-.936,4.6" transform="translate(-148.823 -398.436)"/>
        <path id="Path_2372" data-name="Path 2372" d="M132.129,496.489a.126.126,0,0,1-.072-.228,12.274,12.274,0,0,0,3.832-4.367c.125-.239.248-.5.386-.82a.125.125,0,0,1,.115-.076h4.56a.126.126,0,0,1,.11.186,10.23,10.23,0,0,1-8.93,5.305Zm4.343-5.24c-.127.293-.242.536-.361.761a12.521,12.521,0,0,1-3.582,4.219,9.979,9.979,0,0,0,8.206-4.98Z" transform="translate(-116.497 -435.246)"/>
        <path id="Path_2373" data-name="Path 2373" d="M64.729,496.489h0a10.232,10.232,0,0,1-8.93-5.305.126.126,0,0,1,.11-.186h4.56a.126.126,0,0,1,.115.076c.142.328.265.589.385.82a12.279,12.279,0,0,0,3.832,4.367.126.126,0,0,1-.072.228m-8.6-5.24a9.981,9.981,0,0,0,8.206,4.98,12.525,12.525,0,0,1-3.583-4.219c-.114-.218-.229-.462-.36-.761Z" transform="translate(-49.152 -435.246)"/>
        <path id="Path_2374" data-name="Path 2374" d="M51.031,454.439h-4.56a.126.126,0,0,1-.11-.065,10.214,10.214,0,0,1-1.259-4.912.125.125,0,0,1,.126-.125h4.8a.125.125,0,0,1,.126.125,12.092,12.092,0,0,0,.99,4.8.125.125,0,0,1-.115.175m-4.485-.251h4.3a12.328,12.328,0,0,1-.936-4.6H45.354a9.961,9.961,0,0,0,1.192,4.6" transform="translate(-39.714 -398.436)"/>
        <path id="Path_2375" data-name="Path 2375" d="M131.665,536.262a.1.1,0,0,1-.058-.016l-.026-.018a.126.126,0,0,1,.07-.23h.028a.143.143,0,0,1,.133.088.12.12,0,0,1-.035.141.216.216,0,0,1-.113.034" transform="translate(-116.074 -475.007)"/>
        <path id="Path_2376" data-name="Path 2376" d="M99.358,496.49h-.016a.173.173,0,0,1-.085-.023,12.527,12.527,0,0,1-3.91-4.457c-.124-.237-.248-.5-.393-.836a.126.126,0,0,1,.115-.176h4.288a.125.125,0,0,1,.126.126v5.24a.125.125,0,0,1-.126.125m-4.1-5.24c.11.248.21.456.308.645a12.272,12.272,0,0,0,3.662,4.246v-4.891Z" transform="translate(-83.752 -435.246)"/>
        <path id="Path_2377" data-name="Path 2377" d="M91.769,454.439H87.481a.125.125,0,0,1-.115-.076,12.339,12.339,0,0,1-1.01-4.9.125.125,0,0,1,.126-.125h5.288a.125.125,0,0,1,.126.125v4.851a.125.125,0,0,1-.126.126m-4.205-.251h4.08v-4.6H86.607a12.083,12.083,0,0,0,.957,4.6" transform="translate(-76.164 -398.436)"/>
        <path id="Path_2378" data-name="Path 2378" d="M131.923,496.489c-.069,0-.153-.056-.153-.125v-5.24A.125.125,0,0,1,131.9,491h4.288a.125.125,0,0,1,.115.175c-.14.327-.265.593-.393.837a12.525,12.525,0,0,1-3.91,4.456.124.124,0,0,1-.072.023m.1-5.24v4.89a12.273,12.273,0,0,0,3.661-4.245c.1-.194.2-.4.309-.645Z" transform="translate(-116.29 -435.246)"/>
        <path id="Path_2379" data-name="Path 2379" d="M136.183,454.439H131.9a.125.125,0,0,1-.125-.126v-4.851a.125.125,0,0,1,.125-.125h5.288a.125.125,0,0,1,.126.125,12.322,12.322,0,0,1-1.011,4.9.125.125,0,0,1-.115.076m-4.162-.251H136.1a12.066,12.066,0,0,0,.957-4.6h-5.036Z" transform="translate(-116.29 -398.436)"/>
        <path id="Path_2380" data-name="Path 2380" d="M113.554,254.236a7.148,7.148,0,0,0-4.012,13.064l4.012,7.567,4.012-7.567a7.148,7.148,0,0,0-4.012-13.064m0,10.938a3.79,3.79,0,1,1,3.79-3.79,3.791,3.791,0,0,1-3.79,3.79" transform="translate(-93.88 -226.054)" fill="#119201"/>
        <path id="Path_2381" data-name="Path 2381" d="M112.6,274.039a.125.125,0,0,1-.111-.067l-4-7.54a7.274,7.274,0,1,1,8.216,0l-4,7.54a.125.125,0,0,1-.111.067m0-20.631a7.022,7.022,0,0,0-3.941,12.834.122.122,0,0,1,.04.045l3.9,7.359,3.9-7.359a.121.121,0,0,1,.04-.045,7.022,7.022,0,0,0-3.941-12.834m0,10.938a3.916,3.916,0,1,1,3.916-3.916,3.921,3.921,0,0,1-3.916,3.916m0-7.581a3.665,3.665,0,1,0,3.665,3.665,3.669,3.669,0,0,0-3.665-3.665" transform="translate(-92.927 -225.1)"/>
        <path id="Path_2382" data-name="Path 2382" d="M498.182,708.743l-2.272,4.262h9.417l-1.445-3.054Z" transform="translate(-438.028 -627.636)" fill="#119201"/>
        <path id="Path_2383" data-name="Path 2383" d="M504.374,712.181h-9.417a.125.125,0,0,1-.111-.184l2.272-4.262a.128.128,0,0,1,.137-.064l5.7,1.208a.126.126,0,0,1,.088.069L504.488,712a.126.126,0,0,1-.114.179m-9.208-.251h9.009l-1.334-2.818-5.546-1.176Z" transform="translate(-437.075 -626.686)"/>
        <path id="Path_2384" data-name="Path 2384" d="M528.007,648.266l1.757-3.318-.423-1.269H526.38l-3.128,5.868,4.625,1Z" transform="translate(-462.186 -570.147)" fill="#119201"/>
        <path id="Path_2385" data-name="Path 2385" d="M526.924,649.716a.117.117,0,0,1-.027,0l-4.625-1a.125.125,0,0,1-.087-.07.127.127,0,0,1,0-.112l3.128-5.868a.126.126,0,0,1,.111-.067h2.961a.126.126,0,0,1,.119.086l.423,1.269a.126.126,0,0,1-.008.1l-1.744,3.294-.128,2.25a.125.125,0,0,1-.049.093.127.127,0,0,1-.076.026m-4.436-1.211,4.319.931.121-2.131a.127.127,0,0,1,.015-.052l1.732-3.271-.377-1.132H525.5Z" transform="translate(-461.233 -569.195)"/>
        <path id="Path_2386" data-name="Path 2386" d="M658.243,655.451l6.768.781,2.334-.53-3.233-6.063-5.607,1.193Z" transform="translate(-581.458 -575.413)" fill="#ffef99"/>
        <path id="Path_2387" data-name="Path 2387" d="M664.058,655.406h-.015l-6.767-.78a.126.126,0,0,1-.111-.132l.261-4.62a.126.126,0,0,1,.1-.116l5.607-1.193a.127.127,0,0,1,.137.064l3.233,6.063a.125.125,0,0,1-.083.181l-2.334.53a.116.116,0,0,1-.028,0m-6.636-1.017,6.629.764,2.153-.489-3.111-5.835-5.421,1.154Z" transform="translate(-580.506 -574.462)"/>
        <path id="Path_2388" data-name="Path 2388" d="M586.854,650.609l.52-6.149,3.532-.781H580.383l.55,1.627-1.757,3.306v3.363l1.759,3.542h2.925l.717-3.053Z" transform="translate(-511.597 -570.148)" fill="#ffef99"/>
        <path id="Path_2389" data-name="Path 2389" d="M582.905,654.69H579.98a.126.126,0,0,1-.113-.069l-1.759-3.542a.13.13,0,0,1-.013-.056V647.66a.123.123,0,0,1,.015-.059l1.732-3.259-.533-1.576a.127.127,0,0,1,.017-.114.126.126,0,0,1,.1-.052h10.524a.125.125,0,0,1,.027.248l-3.442.761-.513,6.057a.127.127,0,0,1-.046.087l-2.245,1.827-.707,3.012a.125.125,0,0,1-.122.1m-2.847-.251h2.748l.694-2.957a.123.123,0,0,1,.043-.069l2.236-1.821.516-6.1a.126.126,0,0,1,.1-.112l2.41-.533h-9.2l.494,1.461a.125.125,0,0,1-.008.1l-1.743,3.279v3.3Z" transform="translate(-510.644 -569.195)"/>
        <path id="Path_2390" data-name="Path 2390" d="M649.167,713.616l-2.918.7-7.484-.781-1.561,1.5-.417,2.208H651.1Z" transform="translate(-562.501 -631.866)" fill="#119201"/>
        <path id="Path_2391" data-name="Path 2391" d="M650.144,716.409H635.836a.125.125,0,0,1-.123-.149l.417-2.208a.126.126,0,0,1,.037-.067l1.561-1.5a.128.128,0,0,1,.1-.034l7.462.779,2.9-.69a.127.127,0,0,1,.14.063l1.929,3.619a.125.125,0,0,1-.111.184m-14.157-.251h13.948l-1.785-3.348-2.824.672a.121.121,0,0,1-.042,0l-7.426-.774-1.49,1.428Z" transform="translate(-561.549 -630.914)"/>
        <path id="Path_2392" data-name="Path 2392" d="M522.845,648.613l1.758-3.306-.55-1.627h-1.631l.423,1.269-1.757,3.318-.13,2.278-4.625-1-.912,1.709,5.7,1.208,1.445,3.054H524.6l-1.759-3.542Z" transform="translate(-455.268 -570.148)" fill="#808285"/>
        <path id="Path_2393" data-name="Path 2393" d="M523.653,654.69h-2.038a.125.125,0,0,1-.113-.072l-1.419-3-5.638-1.195a.126.126,0,0,1-.085-.182l.911-1.709a.127.127,0,0,1,.138-.063l4.482.966.122-2.131a.127.127,0,0,1,.014-.052l1.731-3.271-.406-1.218a.126.126,0,0,1,.119-.165H523.1a.125.125,0,0,1,.119.085l.55,1.627a.125.125,0,0,1-.008.1l-1.743,3.279v3.3l1.746,3.516a.126.126,0,0,1-.113.181m-1.959-.251h1.756l-1.669-3.36a.127.127,0,0,1-.013-.056V647.66a.125.125,0,0,1,.015-.059l1.732-3.259-.5-1.49h-1.367l.368,1.1a.123.123,0,0,1-.008.1l-1.744,3.294-.128,2.25a.126.126,0,0,1-.152.115l-4.533-.977-.788,1.478,5.536,1.173a.126.126,0,0,1,.088.069Z" transform="translate(-454.316 -569.195)"/>
        <path id="Path_2394" data-name="Path 2394" d="M623.4,651.812l7.484.781,2.918-.695-.78-1.462-2.334.53-6.768-.78.261-4.62,5.607-1.193-.37-.694h-2.974l-3.532.781-.521,6.149-2.278,1.854-.717,3.054h2.025l.417-2.208Z" transform="translate(-547.138 -570.147)" fill="#808285"/>
        <path id="Path_2395" data-name="Path 2395" d="M620.473,654.69h-2.025a.125.125,0,0,1-.122-.154l.717-3.054a.123.123,0,0,1,.043-.069l2.237-1.821.516-6.1a.126.126,0,0,1,.1-.112l3.532-.781a.11.11,0,0,1,.027,0h2.974a.126.126,0,0,1,.111.066l.37.694a.125.125,0,0,1,0,.112.127.127,0,0,1-.088.07l-5.514,1.173-.249,4.406,6.629.764,2.313-.525a.127.127,0,0,1,.139.063l.78,1.463a.126.126,0,0,1-.082.181l-2.918.695a.114.114,0,0,1-.042,0l-7.426-.774-1.49,1.428-.409,2.169a.125.125,0,0,1-.123.1m-1.867-.251h1.762l.4-2.105a.125.125,0,0,1,.037-.067l1.561-1.5a.126.126,0,0,1,.1-.034l7.463.779,2.739-.652-.658-1.234-2.241.509a.116.116,0,0,1-.042,0l-6.768-.78a.126.126,0,0,1-.111-.132l.261-4.62a.126.126,0,0,1,.1-.116l5.444-1.158-.256-.48H625.51l-3.429.758-.513,6.057a.127.127,0,0,1-.046.087l-2.245,1.827Z" transform="translate(-546.187 -569.195)"/>
        <path id="Path_2396" data-name="Path 2396" d="M602.715,520.637a3.807,3.807,0,1,1-3.807-3.806,3.807,3.807,0,0,1,3.807,3.806" transform="translate(-525.669 -458.071)" fill="#f44e02"/>
        <path id="Path_2397" data-name="Path 2397" d="M597.955,523.617a3.932,3.932,0,1,1,3.933-3.933,3.937,3.937,0,0,1-3.933,3.933m0-7.613a3.681,3.681,0,1,0,3.682,3.681A3.685,3.685,0,0,0,597.955,516" transform="translate(-524.716 -457.118)" fill="#231f20"/>
        <path id="Path_2398" data-name="Path 2398" d="M626.839,592.413a.126.126,0,0,1-.125-.126V581.259a.126.126,0,1,1,.251,0v11.029a.125.125,0,0,1-.126.126" transform="translate(-553.599 -514.885)"/>
        <g id="Group_1441" data-name="Group 1441" transform="translate(66.363 75.736)" opacity="0.2">
          <g id="Group_1440" data-name="Group 1440">
            <g id="Group_1439" data-name="Group 1439" clip-path="url(#clip-path-3)">
              <path id="Path_2399" data-name="Path 2399" d="M583.319,666.3c0,1.438-3.023,2.6-6.751,2.6s-6.751-1.165-6.751-2.6,3.022-2.6,6.751-2.6,6.751,1.165,6.751,2.6" transform="translate(-569.691 -663.567)" fill="#808285"/>
              <path id="Path_2400" data-name="Path 2400" d="M575.614,668.071c-3.856,0-6.876-1.2-6.876-2.728s3.021-2.728,6.876-2.728,6.877,1.2,6.877,2.728-3.021,2.728-6.877,2.728m0-5.206c-3.591,0-6.625,1.135-6.625,2.477s3.034,2.477,6.625,2.477,6.626-1.134,6.626-2.477-3.034-2.477-6.626-2.477" transform="translate(-568.738 -662.615)"/>
            </g>
          </g>
        </g>
        <path id="Path_2401" data-name="Path 2401" d="M117.06,205.991H105.453a.126.126,0,1,1,0-.251H117.06a.126.126,0,0,1,0,.251" transform="translate(-92.927 -183.205)"/>
        <path id="Path_2402" data-name="Path 2402" d="M174.152,188.571h-7.319a.126.126,0,0,1,0-.251h7.319a.126.126,0,1,1,0,.251" transform="translate(-147.159 -167.813)"/>
        <path id="Path_2403" data-name="Path 2403" d="M67.314,83.225H60a.126.126,0,0,1,0-.251h7.317a.126.126,0,1,1,0,.251" transform="translate(-52.765 -74.735)"/>
        <path id="Path_2404" data-name="Path 2404" d="M94.824,101.613h-8.9a.126.126,0,0,1,0-.251h8.9a.126.126,0,0,1,0,.251" transform="translate(-75.671 -90.981)"/>
        <path id="Path_2405" data-name="Path 2405" d="M632.691,370.7l-4.351,1.537a1.794,1.794,0,0,0-.964.963l-1.537,4.352c-.139.391.069.6.461.46l4.352-1.537a1.8,1.8,0,0,0,.964-.963l1.537-4.352c.139-.392-.068-.6-.461-.461m-3.2,4.891a1.234,1.234,0,1,1,1.234-1.234,1.235,1.235,0,0,1-1.234,1.234" transform="translate(-552.79 -328.921)" fill="#f44e02"/>
        <path id="Path_2406" data-name="Path 2406" d="M625.123,377.244h0a.394.394,0,0,1-.335-.157.538.538,0,0,1-.022-.514l1.536-4.352a1.9,1.9,0,0,1,1.041-1.04l4.351-1.537a.5.5,0,0,1,.6.107.54.54,0,0,1,.022.514l-1.537,4.352a1.933,1.933,0,0,1-1.041,1.04l-4.352,1.538a.8.8,0,0,1-.263.05m6.835-7.4a.553.553,0,0,0-.18.036l-4.351,1.537a1.672,1.672,0,0,0-.888.887L625,376.657a.338.338,0,0,0-.009.285.149.149,0,0,0,.13.051.552.552,0,0,0,.18-.036l4.352-1.537a1.673,1.673,0,0,0,.887-.887l1.537-4.352a.338.338,0,0,0,.009-.285.15.15,0,0,0-.13-.051m-3.417,4.934a1.36,1.36,0,1,1,1.359-1.36,1.361,1.361,0,0,1-1.359,1.36m0-2.469a1.109,1.109,0,1,0,1.109,1.109,1.11,1.11,0,0,0-1.109-1.109" transform="translate(-551.834 -327.98)" fill="#231f20"/>
        <path id="Path_2407" data-name="Path 2407" d="M647.248,393.472a1.36,1.36,0,1,1,1.36-1.36,1.361,1.361,0,0,1-1.36,1.36m0-2.469a1.109,1.109,0,1,0,1.109,1.109A1.11,1.11,0,0,0,647.248,391" transform="translate(-570.542 -346.673)"/>
        <path id="Path_2408" data-name="Path 2408" d="M590.736,343.376a.126.126,0,0,1-.126-.126v-1.19a.913.913,0,1,0-1.825,0v1.19a.125.125,0,0,1-.042.094.13.13,0,0,1-.1.031,8.96,8.96,0,0,1-7.887-7.872.124.124,0,0,1,.031-.1.127.127,0,0,1,.094-.042h1.2a.913.913,0,0,0,0-1.825h-1.209a.126.126,0,0,1-.125-.14,8.955,8.955,0,0,1,7.892-7.906.128.128,0,0,1,.1.031.125.125,0,0,1,.042.094v1.223a.913.913,0,0,0,1.825,0v-1.223a.124.124,0,0,1,.042-.094.126.126,0,0,1,.1-.031,8.954,8.954,0,0,1,7.891,7.906.125.125,0,0,1-.125.14h-1.209a.913.913,0,0,0,0,1.825h1.2a.125.125,0,0,1,.125.14,8.959,8.959,0,0,1-7.886,7.872h-.014m-9.711-7.762a8.708,8.708,0,0,0,7.509,7.494v-1.047a1.164,1.164,0,0,1,2.328,0v1.047a8.707,8.707,0,0,0,7.508-7.494h-1.062a1.164,1.164,0,0,1,0-2.327h1.067a8.7,8.7,0,0,0-7.513-7.528v1.081a1.164,1.164,0,0,1-2.328,0v-1.081a8.7,8.7,0,0,0-7.514,7.528h1.067a1.164,1.164,0,0,1,0,2.327Z" transform="translate(-512.99 -289.012)"/>
        <path id="Path_2409" data-name="Path 2409" d="M714.011,394.553a1.038,1.038,0,0,0,1.038,1.038h1.2a8.972,8.972,0,0,0,.065-1.055,9.075,9.075,0,0,0-.06-1.021h-1.209a1.038,1.038,0,0,0-1.038,1.038" transform="translate(-630.732 -349.114)" fill="#d1d3d4"/>
        <path id="Path_2410" data-name="Path 2410" d="M715.3,394.765h-1.2a1.164,1.164,0,0,1,0-2.328h1.209a.125.125,0,0,1,.124.111,9.171,9.171,0,0,1,.061,1.035,9.047,9.047,0,0,1-.065,1.07.125.125,0,0,1-.125.111m-1.2-2.077a.913.913,0,0,0,0,1.825h1.092a8.582,8.582,0,0,0,.051-.93,8.777,8.777,0,0,0-.048-.9Z" transform="translate(-629.78 -348.162)"/>
        <path id="Path_2411" data-name="Path 2411" d="M583.619,394.553a1.038,1.038,0,0,0-1.038-1.038h-1.209a8.947,8.947,0,0,0-.06,1.021,9.051,9.051,0,0,0,.065,1.055h1.2a1.038,1.038,0,0,0,1.038-1.038" transform="translate(-513.485 -349.114)" fill="#d1d3d4"/>
        <path id="Path_2412" data-name="Path 2412" d="M581.629,394.765h-1.2a.125.125,0,0,1-.125-.111,8.8,8.8,0,0,1,0-2.105.126.126,0,0,1,.125-.111h1.209a1.164,1.164,0,0,1,0,2.328m-1.092-.251h1.092a.913.913,0,0,0,0-1.825h-1.1a8.474,8.474,0,0,0,0,1.825" transform="translate(-512.533 -348.162)"/>
        <path id="Path_2413" data-name="Path 2413" d="M649.691,458.872a1.038,1.038,0,0,0-1.038,1.038v1.19a8.654,8.654,0,0,0,2.076,0v-1.19a1.038,1.038,0,0,0-1.038-1.038" transform="translate(-572.985 -406.861)" fill="#d1d3d4"/>
        <path id="Path_2414" data-name="Path 2414" d="M648.739,460.335a9.17,9.17,0,0,1-1.053-.063.126.126,0,0,1-.111-.125v-1.189a1.164,1.164,0,1,1,2.327,0v1.189a.126.126,0,0,1-.111.125,9.083,9.083,0,0,1-1.053.063m-.913-.3a8.482,8.482,0,0,0,1.826,0v-1.077a.913.913,0,0,0-1.826,0Z" transform="translate(-572.032 -405.909)"/>
        <path id="Path_2415" data-name="Path 2415" d="M649.691,328.356a1.038,1.038,0,0,0,1.038-1.038v-1.223a8.642,8.642,0,0,0-2.076,0v1.223a1.038,1.038,0,0,0,1.038,1.038" transform="translate(-572.985 -289.489)" fill="#d1d3d4"/>
        <path id="Path_2416" data-name="Path 2416" d="M648.739,327.531a1.165,1.165,0,0,1-1.164-1.164v-1.223a.126.126,0,0,1,.111-.125,8.8,8.8,0,0,1,2.105,0,.126.126,0,0,1,.111.125v1.223a1.165,1.165,0,0,1-1.164,1.164m-.913-2.275v1.111a.913.913,0,0,0,1.826,0v-1.111a8.509,8.509,0,0,0-1.826,0" transform="translate(-572.032 -288.539)"/>
        <path id="Path_2417" data-name="Path 2417" d="M637.077,263.857a.13.13,0,0,1-.034,0,.125.125,0,0,1-.084-.079,1.748,1.748,0,0,0-3.3,0,.126.126,0,0,1-.2.056,2.933,2.933,0,1,1,3.692,0,.129.129,0,0,1-.079.028m-1.766-1.5a2,2,0,0,1,1.817,1.166,2.682,2.682,0,1,0-3.634,0,2,2,0,0,1,1.817-1.166" transform="translate(-558.604 -229.925)"/>
        <path id="Path_2418" data-name="Path 2418" d="M645.1,293.063a1.876,1.876,0,0,0-3.643.627,1.841,1.841,0,0,0,.041.388,10.66,10.66,0,0,1,3.671,0,1.89,1.89,0,0,0,.041-.388,1.859,1.859,0,0,0-.109-.627" transform="translate(-566.624 -259.256)" fill="#00c4da"/>
        <path id="Path_2419" data-name="Path 2419" d="M640.542,293.251a.126.126,0,0,1-.123-.1,1.977,1.977,0,0,1,.073-1.083,2,2,0,0,1,3.843,1.083.125.125,0,0,1-.144.1,10.583,10.583,0,0,0-3.628,0l-.022,0m1.835-2.264a1.752,1.752,0,0,0-1.648,1.166,1.733,1.733,0,0,0-.1.585,1.663,1.663,0,0,0,.018.244,10.814,10.814,0,0,1,3.466,0,1.77,1.77,0,0,0,.017-.244,1.734,1.734,0,0,0-.1-.584,1.753,1.753,0,0,0-1.648-1.166" transform="translate(-565.672 -258.304)"/>
        <path id="Path_2420" data-name="Path 2420" d="M464.963,79.99h-8.621a.126.126,0,0,1,0-.251h8.621a.126.126,0,0,1,0,.251" transform="translate(-402.956 -71.876)"/>
        <path id="Path_2421" data-name="Path 2421" d="M429.575,155.687h-3.683a.126.126,0,0,1,0-.251h3.683a.126.126,0,1,1,0,.251" transform="translate(-376.052 -138.759)"/>
        <path id="Path_2422" data-name="Path 2422" d="M278.753,86.459H275.07a.126.126,0,0,1,0-.251h3.683a.126.126,0,0,1,0,.251" transform="translate(-242.793 -77.592)"/>
        <path id="Path_2423" data-name="Path 2423" d="M340.06,134.781h-1.7a.126.126,0,1,1,0-.251h1.7a.126.126,0,0,1,0,.251" transform="translate(-298.713 -120.287)"/>
        <path id="Path_2424" data-name="Path 2424" d="M448.785,131.383h-7.08a.126.126,0,0,1,0-.251h7.08a.126.126,0,1,1,0,.251" transform="translate(-390.024 -117.285)"/>
        <path id="Path_2425" data-name="Path 2425" d="M83.178,590.31H64.167v18.053h19.01V597.145l8.349-6.836Z" transform="translate(-56.56 -522.993)" fill="#d1d3d4"/>
        <path id="Path_2426" data-name="Path 2426" d="M82.225,607.536H63.215a.125.125,0,0,1-.126-.125V589.358a.125.125,0,0,1,.126-.126H90.574a.126.126,0,0,1,.08.223l-8.3,6.8V607.41a.125.125,0,0,1-.126.125m-18.885-.251H82.1V596.193a.125.125,0,0,1,.046-.1l8.077-6.613H63.34Z" transform="translate(-55.607 -522.041)"/>
        <path id="Path_2427" data-name="Path 2427" d="M86.378,618.183l5.127-6.613,4.3,5.541V606.962H80.624V620.18l3.651-4.709Z" transform="translate(-71.1 -537.707)" fill="#fff"/>
        <path id="Path_2428" data-name="Path 2428" d="M79.673,619.354a.122.122,0,0,1-.041-.007.125.125,0,0,1-.085-.119V606.01a.125.125,0,0,1,.126-.125H94.85a.125.125,0,0,1,.126.125v10.149a.126.126,0,0,1-.225.077l-4.2-5.412-5.028,6.485a.13.13,0,0,1-.2,0l-2-2.584L79.772,619.3a.127.127,0,0,1-.1.049m.126-13.219v12.726l3.427-4.419a.13.13,0,0,1,.2,0l2,2.584,5.028-6.485a.13.13,0,0,1,.2,0l4.071,5.251v-9.657Z" transform="translate(-70.148 -536.754)"/>
        <path id="Path_2429" data-name="Path 2429" d="M95.8,656.1v-4.026l-4.3-5.54-5.127,6.613-2.1-2.712-3.651,4.709v.956Z" transform="translate(-71.1 -572.673)" fill="#119201"/>
        <path id="Path_2430" data-name="Path 2430" d="M94.85,655.295H79.673a.125.125,0,0,1-.126-.125v-.956a.126.126,0,0,1,.026-.077l3.651-4.709a.13.13,0,0,1,.2,0l2,2.584,5.028-6.485a.13.13,0,0,1,.2,0l4.3,5.541a.127.127,0,0,1,.026.077v4.026a.125.125,0,0,1-.126.125M79.8,655.044H94.724v-3.857l-4.17-5.378-5.028,6.485a.13.13,0,0,1-.2,0l-2-2.584L79.8,654.256Z" transform="translate(-70.148 -571.739)"/>
        <path id="Path_2431" data-name="Path 2431" d="M114.994,630.7a1.775,1.775,0,1,1-1.775-1.775,1.775,1.775,0,0,1,1.775,1.775" transform="translate(-98.33 -557.109)" fill="#ffef99"/>
        <path id="Path_2432" data-name="Path 2432" d="M112.265,631.645a1.9,1.9,0,1,1,1.9-1.9,1.9,1.9,0,0,1-1.9,1.9m0-3.55a1.65,1.65,0,1,0,1.65,1.649,1.651,1.651,0,0,0-1.65-1.649" transform="translate(-97.377 -556.156)"/>
        <path id="Path_2433" data-name="Path 2433" d="M284.54,662.212a4.9,4.9,0,1,1,4.9-4.9,4.909,4.909,0,0,1-4.9,4.9m0-9.555a4.652,4.652,0,1,0,4.652,4.652,4.657,4.657,0,0,0-4.652-4.652" transform="translate(-246.939 -577.859)"/>
        <path id="Path_2434" data-name="Path 2434" d="M296.751,684.627a.124.124,0,0,1-.089-.037l-2.4-2.4a.125.125,0,0,1,.177-.177l2.315,2.315,4.01-4.01a.126.126,0,0,1,.177.177l-4.1,4.1a.124.124,0,0,1-.089.037" transform="translate(-259.825 -602.484)"/>
        <path id="Path_2435" data-name="Path 2435" d="M290.659,118.745a.125.125,0,0,1-.089-.037L285.7,113.84a.126.126,0,0,1,.178-.178l4.869,4.869a.126.126,0,0,1-.089.214" transform="translate(-252.265 -101.817)"/>
        <path id="Path_2436" data-name="Path 2436" d="M285.791,118.745a.126.126,0,0,1-.089-.214l4.868-4.869a.126.126,0,0,1,.178.178l-4.869,4.869a.125.125,0,0,1-.089.037" transform="translate(-252.265 -101.817)"/>
        <path id="Path_2437" data-name="Path 2437" d="M711.771,241.838a.126.126,0,0,1-.089-.037l-4.115-4.116a.125.125,0,0,1,.177-.178l4.116,4.116a.125.125,0,0,1-.089.214" transform="translate(-625.005 -211.241)"/>
        <path id="Path_2438" data-name="Path 2438" d="M707.654,241.838a.125.125,0,0,1-.089-.214l4.116-4.116a.126.126,0,0,1,.178.178l-4.116,4.116a.126.126,0,0,1-.089.037" transform="translate(-625.004 -211.241)"/>
        <path id="Path_2439" data-name="Path 2439" d="M221.44,228.646a.125.125,0,0,1-.089-.037l-2.986-2.985a.126.126,0,0,1,.177-.178l2.986,2.986a.126.126,0,0,1-.089.214" transform="translate(-192.77 -200.585)"/>
        <path id="Path_2440" data-name="Path 2440" d="M218.454,228.646a.126.126,0,0,1-.089-.214l2.986-2.986a.126.126,0,0,1,.177.178l-2.986,2.985a.125.125,0,0,1-.089.037" transform="translate(-192.77 -200.585)"/>
        <path id="Path_2441" data-name="Path 2441" d="M670.459,611.988h-3.246a.126.126,0,0,1,0-.251h3.246a.126.126,0,1,1,0,.251" transform="translate(-589.273 -541.925)"/>
        <path id="Path_2442" data-name="Path 2442" d="M219,381.923H215.75a.126.126,0,1,1,0-.251H219a.126.126,0,1,1,0,.251" transform="translate(-190.38 -338.651)"/>
        <path id="Path_2443" data-name="Path 2443" d="M543.208,318.166h-3.245a.126.126,0,1,1,0-.251h3.245a.126.126,0,1,1,0,.251" transform="translate(-476.84 -282.318)"/>
        <path id="Path_2444" data-name="Path 2444" d="M234.52,407.925h-3.246a.126.126,0,1,1,0-.251h3.246a.126.126,0,1,1,0,.251" transform="translate(-204.096 -361.625)"/>
        <path id="Path_2445" data-name="Path 2445" d="M673.705,590.862h-6.492a.126.126,0,0,1,0-.251h6.492a.126.126,0,1,1,0,.251" transform="translate(-589.273 -523.26)"/>
        <path id="Path_2446" data-name="Path 2446" d="M561.237,611.988H556.9a.126.126,0,1,1,0-.251h4.338a.126.126,0,1,1,0,.251" transform="translate(-491.805 -541.925)"/>
        <path id="Path_2447" data-name="Path 2447" d="M171.17,563.729h-4.338a.126.126,0,1,1,0-.251h4.338a.126.126,0,1,1,0,.251" transform="translate(-147.159 -499.286)"/>
        <path id="Path_2448" data-name="Path 2448" d="M66.654,244.241H61.049a.126.126,0,1,1,0-.251h5.605a.126.126,0,1,1,0,.251" transform="translate(-53.693 -217.001)"/>
        <path id="Path_2449" data-name="Path 2449" d="M568.18,266.719a1.731,1.731,0,1,1,1.731-1.731,1.733,1.733,0,0,1-1.731,1.731m0-3.211a1.48,1.48,0,1,0,1.48,1.48,1.481,1.481,0,0,0-1.48-1.48" transform="translate(-500.353 -234.024)"/>
        <path id="Path_2450" data-name="Path 2450" d="M710.781,525.674a1.731,1.731,0,1,1,1.731-1.731,1.733,1.733,0,0,1-1.731,1.731m0-3.211a1.48,1.48,0,1,0,1.48,1.48,1.482,1.482,0,0,0-1.48-1.48" transform="translate(-626.349 -462.825)"/>
        <path id="Path_2451" data-name="Path 2451" d="M558.759,496.306a1.156,1.156,0,1,1,1.155-1.156,1.157,1.157,0,0,1-1.155,1.156m0-2.06a.9.9,0,1,0,.9.9.906.906,0,0,0-.9-.9" transform="translate(-492.537 -437.894)"/>
        <path id="Path_2452" data-name="Path 2452" d="M220.4,541.905a1.156,1.156,0,1,1,1.155-1.155,1.157,1.157,0,0,1-1.155,1.155m0-2.06a.9.9,0,1,0,.9.9.906.906,0,0,0-.9-.9" transform="translate(-193.583 -478.183)"/>
        <path id="Path_2453" data-name="Path 2453" d="M396.193,655.666l-7.559-7.559,1.678-.693,6.574,6.574Z" transform="translate(-343.243 -573.448)" fill="#e84900"/>
        <path id="Path_2454" data-name="Path 2454" d="M395.241,654.841a.125.125,0,0,1-.089-.037l-7.559-7.559a.125.125,0,0,1,.041-.2l1.678-.692a.126.126,0,0,1,.137.027l6.574,6.574a.125.125,0,0,1,.027.137l-.692,1.678a.126.126,0,0,1-.091.076l-.025,0M387.9,647.2l7.293,7.293.589-1.427-6.455-6.455Z" transform="translate(-342.291 -572.498)" fill="#231f20"/>
        <path id="Path_2455" data-name="Path 2455" d="M383.063,678.778h0l-.928-.928-4.084,5.94,5.94-4.084Z" transform="translate(-333.893 -600.339)" fill="#808285"/>
        <path id="Path_2456" data-name="Path 2456" d="M377.1,682.963a.125.125,0,0,1-.1-.2l4.084-5.94a.126.126,0,0,1,.092-.054.128.128,0,0,1,.1.036l1.856,1.857a.124.124,0,0,1,.036.1.126.126,0,0,1-.054.092l-5.94,4.083a.125.125,0,0,1-.071.022m4.1-5.87-3.614,5.257,5.257-3.614Z" transform="translate(-332.94 -599.388)"/>
        <path id="Path_2457" data-name="Path 2457" d="M414.918,607.794a1.53,1.53,0,0,1-.173-.206l-6.754,5.213,2.711,2.711,2.711,2.711,5.225-6.769a1.586,1.586,0,0,1-.281-.222Z" transform="translate(-360.347 -538.26)" fill="#f44e02"/>
        <path id="Path_2458" data-name="Path 2458" d="M412.46,617.4a.126.126,0,0,1-.089-.037l-5.422-5.422a.125.125,0,0,1,.012-.188l6.754-5.213a.125.125,0,0,1,.179.027,1.46,1.46,0,0,0,.159.19l3.438,3.438a1.449,1.449,0,0,0,.259.2.126.126,0,0,1,.033.183l-5.225,6.769a.125.125,0,0,1-.091.048h-.008m-5.232-5.535,5.22,5.22,5.056-6.551a1.609,1.609,0,0,1-.189-.162l-3.438-3.438a1.5,1.5,0,0,1-.108-.119Z" transform="translate(-359.394 -537.307)" fill="#231f20"/>
        <path id="Path_2459" data-name="Path 2459" d="M463.906,589.689l-.008.008a1.613,1.613,0,0,0-.317,1.83,1.594,1.594,0,0,0,.144.246,1.56,1.56,0,0,0,.173.207l3.438,3.438a1.586,1.586,0,0,0,.281.222,1.672,1.672,0,0,0,.172.1,1.613,1.613,0,0,0,1.83-.317l.008-.008Z" transform="translate(-409.327 -522.445)" fill="#e84900"/>
        <path id="Path_2460" data-name="Path 2460" d="M467.532,595.089h0a1.758,1.758,0,0,1-.745-.167,2.016,2.016,0,0,1-.184-.1,1.719,1.719,0,0,1-.3-.24l-3.438-3.438a1.679,1.679,0,0,1-.187-.223,1.719,1.719,0,0,1-.155-.265,1.743,1.743,0,0,1,.342-1.972.136.136,0,0,1,.186-.007l5.721,5.721a.125.125,0,0,1,0,.175,1.732,1.732,0,0,1-1.238.519m-4.571-6.145a1.487,1.487,0,0,0-.082,1.831,1.426,1.426,0,0,0,.159.19l3.438,3.439a1.464,1.464,0,0,0,.259.2,1.564,1.564,0,0,0,.159.088,1.5,1.5,0,0,0,.637.143,1.475,1.475,0,0,0,.966-.357Z" transform="translate(-408.378 -521.519)" fill="#231f20"/>
      </g>
    </g>
  </g>
</svg>
