<svg xmlns="http://www.w3.org/2000/svg" width="318" height="311.858" viewBox="0 0 318 311.858">
  <g id="Mobile_login-pana" data-name="Mobile login-pana" transform="translate(-39.68 -34.05)">
    <g id="freepik--background-complete--inject-64" transform="translate(39.68 34.05)">
      <path id="Path_1630" data-name="Path 1630" d="M424.994,291.956H303v-70.6H424.994Zm-121.25-.744H424.25V222.1H303.744Z" transform="translate(-106.994 -81.933)" fill="#e0e0e0"/>
      <rect id="Rectangle_630" data-name="Rectangle 630" width="80.488" height="2.36" transform="translate(212.345 177.069)" fill="#f0f0f0"/>
      <rect id="Rectangle_631" data-name="Rectangle 631" width="86.034" height="2.576" transform="translate(212.345 185.868)" fill="#f0f0f0"/>
      <rect id="Rectangle_632" data-name="Rectangle 632" width="86.034" height="2.576" transform="translate(212.345 194.77)" fill="#f0f0f0"/>
      <rect id="Rectangle_633" data-name="Rectangle 633" width="28.13" height="6.126" transform="translate(212.345 164.289)" fill="#f0f0f0"/>
      <rect id="Rectangle_634" data-name="Rectangle 634" width="121.227" height="11.24" transform="translate(196.401 139.799)" fill="#e0e0e0"/>
      <path id="Path_1631" data-name="Path 1631" d="M453.856,231.99c-.156-.149,1.407-2.032,3.484-4.206s3.9-3.819,4.049-3.677-1.407,2.032-3.484,4.213S454.005,232.139,453.856,231.99Z" transform="translate(-145.555 -82.633)" fill="#fff"/>
      <path id="Path_1632" data-name="Path 1632" d="M461.409,231.99c-.149.149-1.965-1.489-4.049-3.67s-3.64-4.064-3.484-4.213,1.965,1.489,4.049,3.677S461.551,231.841,461.409,231.99Z" transform="translate(-145.56 -82.633)" fill="#fff"/>
      <rect id="Rectangle_635" data-name="Rectangle 635" width="121.227" height="69.859" transform="translate(46.657)" fill="#e6e6e6"/>
      <rect id="Rectangle_636" data-name="Rectangle 636" width="80.488" height="2.36" transform="translate(62.609 37.278)" fill="#f0f0f0"/>
      <rect id="Rectangle_637" data-name="Rectangle 637" width="86.034" height="2.576" transform="translate(62.609 46.076)" fill="#f0f0f0"/>
      <rect id="Rectangle_638" data-name="Rectangle 638" width="86.034" height="2.576" transform="translate(62.609 54.979)" fill="#f0f0f0"/>
      <rect id="Rectangle_639" data-name="Rectangle 639" width="28.13" height="6.126" transform="translate(62.609 24.497)" fill="#f0f0f0"/>
      <rect id="Rectangle_640" data-name="Rectangle 640" width="121.227" height="11.24" transform="translate(46.657)" fill="#e0e0e0"/>
      <path id="Path_1633" data-name="Path 1633" d="M252.136,44.112c-.156-.141,1.407-2.032,3.484-4.206s3.9-3.819,4.049-3.67-1.407,2.032-3.484,4.206S252.285,44.246,252.136,44.112Z" transform="translate(-93.989 -34.607)" fill="#fff"/>
      <path id="Path_1634" data-name="Path 1634" d="M259.669,44.112c-.149.149-1.965-1.489-4.049-3.67s-3.64-4.057-3.484-4.206,1.965,1.489,4.049,3.67S259.826,43.971,259.669,44.112Z" transform="translate(-93.989 -34.607)" fill="#fff"/>
      <path id="Path_1635" data-name="Path 1635" d="M161.652,184.143H39.68v-70.6H161.652ZM40.424,183.4H160.907V114.284H40.424Z" transform="translate(-39.68 -54.37)" fill="#e0e0e0"/>
      <rect id="Rectangle_641" data-name="Rectangle 641" width="80.488" height="2.36" transform="translate(16.324 96.819)" fill="#f0f0f0"/>
      <rect id="Rectangle_642" data-name="Rectangle 642" width="86.034" height="2.576" transform="translate(16.324 105.618)" fill="#f0f0f0"/>
      <rect id="Rectangle_643" data-name="Rectangle 643" width="86.034" height="2.576" transform="translate(16.324 114.52)" fill="#f0f0f0"/>
      <rect id="Rectangle_644" data-name="Rectangle 644" width="28.13" height="6.126" transform="translate(16.324 84.039)" fill="#f0f0f0"/>
      <rect id="Rectangle_645" data-name="Rectangle 645" width="121.227" height="11.24" transform="translate(0.372 59.542)" fill="#e0e0e0"/>
      <rect id="Rectangle_646" data-name="Rectangle 646" width="143.141" height="128.15" transform="translate(119.597 145.948)" fill="#e6e6e6"/>
      <rect id="Rectangle_647" data-name="Rectangle 647" width="112.131" height="116.5" transform="translate(14.664 105.581)" fill="#f0f0f0"/>
      <rect id="Rectangle_648" data-name="Rectangle 648" width="112.131" height="12.691" transform="translate(14.664 105.581)" fill="#e0e0e0"/>
      <path id="Path_1636" data-name="Path 1636" d="M70.205,183.4a2.352,2.352,0,1,1-2.352-2.456A2.412,2.412,0,0,1,70.205,183.4Z" transform="translate(-46.281 -71.6)" fill="#fff"/>
      <path id="Path_1637" data-name="Path 1637" d="M83.03,183.4a2.36,2.36,0,1,1-2.352-2.456A2.412,2.412,0,0,1,83.03,183.4Z" transform="translate(-49.556 -71.6)" fill="#fff"/>
      <path id="Path_1638" data-name="Path 1638" d="M95.86,183.4a2.36,2.36,0,1,1-2.352-2.456A2.412,2.412,0,0,1,95.86,183.4Z" transform="translate(-52.836 -71.6)" fill="#fff"/>
      <rect id="Rectangle_649" data-name="Rectangle 649" width="143.141" height="142.665" transform="translate(158.847 25.48)" fill="#f0f0f0"/>
      <rect id="Rectangle_650" data-name="Rectangle 650" width="143.141" height="16.711" transform="translate(158.847 25.48)" fill="#e0e0e0"/>
      <path id="Path_1639" data-name="Path 1639" d="M267.329,78.168a3.1,3.1,0,1,1-3.1-3.238,3.178,3.178,0,0,1,3.1,3.238Z" transform="translate(-96.289 -44.5)" fill="#fff"/>
      <path id="Path_1640" data-name="Path 1640" d="M283.28,76a3.1,3.1,0,1,1-4.466-.1,3.164,3.164,0,0,1,4.466.1Z" transform="translate(-100.576 -44.526)" fill="#fff"/>
      <path id="Path_1641" data-name="Path 1641" d="M301.109,78.168A3.1,3.1,0,1,1,298,74.93a3.178,3.178,0,0,1,3.1,3.238Z" transform="translate(-104.924 -44.5)" fill="#fff"/>
    </g>
    <g id="freepik--Plant--inject-64" transform="translate(246.684 175.571)">
      <path id="Path_1642" data-name="Path 1642" d="M331.475,303.476c-11.5-8.032-14.106-22.941-13.652-36.347.074-2.233-.171-4.6.893-6.558s3.551-3.3,5.553-2.367c1.66.782,2.382,2.717,3.312,4.317a13.072,13.072,0,0,0,5.248,5.01c1.422.744,3.186,1.191,4.593.417,1.935-1.064,2.159-3.722,2.144-5.955q0-6.23-.074-12.446a20.717,20.717,0,0,1,.67-6.61,6.927,6.927,0,0,1,4.34-4.667c2.107-.6,4.734.633,5.211,2.806a21.432,21.432,0,0,1,.067,2.769,2.4,2.4,0,0,0,1.362,2.233c.871.283,1.779-.365,2.449-1.02a29.41,29.41,0,0,0,5.307-8.017,40.928,40.928,0,0,1,4.957-8.277,12.064,12.064,0,0,1,8.188-4.578c3.223-.186,6.58,1.794,7.384,4.92s-1.02,6.32-2.977,8.858a49.775,49.775,0,0,1-10.339,9.863,4.049,4.049,0,0,0-1.734,1.853c-.484,1.489.923,2.977,2.389,3.446,1.66.551,3.461.38,5.211.588s3.61.968,4.273,2.605c.908,2.278-1,4.66-2.866,6.223a42.712,42.712,0,0,1-12.595,7.272,14.4,14.4,0,0,0-4.682,2.27c-1.325,1.146-2.114,3.149-1.318,4.719s2.843,2.069,4.563,1.749a29.671,29.671,0,0,0,4.883-1.861c3.059-1.154,7-.945,8.932,1.7a7.042,7.042,0,0,1,.744,6.23,16.249,16.249,0,0,1-3.372,5.5,42.9,42.9,0,0,1-18.356,12.825c-7.094,2.456-13.667,3.126-20.716.543" transform="translate(-317.775 -224.174)" fill="#ff9eae"/>
      <path id="Path_1643" data-name="Path 1643" d="M380.678,226.66s-.067.074-.216.208l-.663.588c-.581.521-1.437,1.28-2.516,2.285a83.081,83.081,0,0,0-8.5,9.178c-1.66,2.062-3.379,4.4-5.211,6.938s-3.722,5.278-5.6,8.188a100.968,100.968,0,0,0-5.486,9.513c-.863,1.7-1.623,3.484-2.4,5.3l-2.307,5.545a204.6,204.6,0,0,0-7.935,21.415,99.744,99.744,0,0,0-3.722,18.259,72.605,72.605,0,0,0-.208,12.572c.119,1.489.231,2.628.335,3.4.045.372.074.67.1.886v.305a1.557,1.557,0,0,1-.067-.3c-.037-.216-.082-.506-.141-.878-.134-.744-.275-1.92-.409-3.409a69.18,69.18,0,0,1,.074-12.61,98.117,98.117,0,0,1,3.64-18.341,199.8,199.8,0,0,1,7.913-21.467l2.367-5.523c.782-1.809,1.548-3.6,2.419-5.315a99.678,99.678,0,0,1,5.531-9.535c1.906-2.977,3.826-5.672,5.635-8.188s3.558-4.868,5.211-6.923a79.137,79.137,0,0,1,8.612-9.111c1.1-.99,1.98-1.734,2.576-2.233l.692-.558A1.623,1.623,0,0,1,380.678,226.66Z" transform="translate(-322.301 -224.809)" fill="#ff9eae"/>
      <path id="Path_1644" data-name="Path 1644" d="M356.885,267.592a4.605,4.605,0,0,1-.216-.945c-.119-.618-.253-1.489-.409-2.62-.32-2.233-.648-5.292-1-8.679s-.744-6.454-1.072-8.664c-.171-1.1-.32-1.987-.424-2.605a4.019,4.019,0,0,1-.127-.968,4.116,4.116,0,0,1,.275.93c.164.61.35,1.489.558,2.6.424,2.233.841,5.27,1.191,8.664s.648,6.372.878,8.687c.112,1.042.208,1.928.283,2.635A4.122,4.122,0,0,1,356.885,267.592Z" transform="translate(-326.943 -229.015)" fill="#ff9eae"/>
      <path id="Path_1645" data-name="Path 1645" d="M386.679,268.8a5.954,5.954,0,0,1-1.1.134c-.744.067-1.8.156-3.111.305-2.62.283-6.223.8-10.175,1.548s-7.5,1.586-10.056,2.233c-1.273.328-2.3.625-2.978.826a5.434,5.434,0,0,1-1.116.268,6.483,6.483,0,0,1,1.072-.424c.7-.246,1.712-.588,2.977-.953,2.538-.744,6.089-1.63,10.056-2.389a101.344,101.344,0,0,1,10.161-1.414c1.317-.112,2.382-.156,3.126-.171a5.722,5.722,0,0,1,1.146.037Z" transform="translate(-328.094 -235.57)" fill="#ff9eae"/>
      <path id="Path_1646" data-name="Path 1646" d="M336.353,306.168a1.549,1.549,0,0,1-.194-.35l-.491-1.035c-.424-.9-1-2.233-1.682-3.863-1.385-3.275-3.149-7.861-5.024-12.952s-3.6-9.677-4.913-12.989c-.64-1.608-1.169-2.925-1.563-3.908l-.417-1.064a1.436,1.436,0,0,1-.119-.387,1.547,1.547,0,0,1,.194.35l.491,1.035c.417.9,1,2.233,1.682,3.863,1.385,3.275,3.149,7.86,5.024,12.952s3.6,9.677,4.913,12.989c.64,1.608,1.169,2.925,1.556,3.908.171.424.313.744.424,1.064A1.438,1.438,0,0,1,336.353,306.168Z" transform="translate(-318.842 -235.791)" fill="#ff9eae"/>
      <path id="Path_1647" data-name="Path 1647" d="M379.32,302.25a1.581,1.581,0,0,1-.38.156l-1.1.372-4.072,1.318c-3.439,1.117-8.188,2.709-13.4,4.466s-9.982,3.32-13.443,4.362c-1.727.529-3.134.93-4.109,1.2l-1.124.29a1.927,1.927,0,0,1-.4.082,1.577,1.577,0,0,1,.38-.156l1.1-.372,4.072-1.318c3.439-1.117,8.188-2.71,13.4-4.466s9.974-3.32,13.436-4.362c1.734-.529,3.134-.93,4.116-1.2l1.124-.29A1.928,1.928,0,0,1,379.32,302.25Z" transform="translate(-323.786 -244.133)" fill="#ff9eae"/>
    </g>
    <g id="freepik--Padlock--inject-64" transform="translate(243.071 37.526)">
      <path id="Path_1648" data-name="Path 1648" d="M356.555,54.322l-3.833,1.37-1.645-5.01a16.814,16.814,0,0,0-21.5-11.024c-8.85,3.119-13.562,13.25-10.54,22.487l1.645,5.01-3.848,1.377a6.119,6.119,0,0,0-3.588,7.652l10.667,32.6a5.754,5.754,0,0,0,7.339,3.8l39.727-14.21a6.149,6.149,0,0,0,3.625-7.727l-10.674-32.6a5.739,5.739,0,0,0-7.369-3.729Zm-30.281,5.211a9.818,9.818,0,0,1,5.776-12.319,9.2,9.2,0,0,1,11.783,6.037l1.638,5.01-17.56,6.282ZM348.6,88.458l2.724,8.322a.677.677,0,0,1-.424.834l-3.819,1.362a.61.61,0,0,1-.744-.4L343.6,90.289a7.444,7.444,0,0,1-6.7-5.211,7.823,7.823,0,0,1,4.608-9.811,7.332,7.332,0,0,1,9.386,4.809,7.95,7.95,0,0,1-2.278,8.4Z" transform="translate(-312.921 -38.719)" fill="#ff9eae"/>
      <path id="Path_1649" data-name="Path 1649" d="M355.155,61.4c0,.1-7.109,2.776-15.952,5.955s-16.056,5.732-16.093,5.657,7.109-2.769,15.959-5.955S355.118,61.3,355.155,61.4Z" transform="translate(-315.525 -44.516)" fill="#ff9eae"/>
      <path id="Path_1650" data-name="Path 1650" d="M367.418,63.24a1.3,1.3,0,0,1,.082.2c.06.149.127.342.216.581.194.543.461,1.3.8,2.233l2.858,8.322c1.191,3.528,2.613,7.712,4.191,12.356.744,2.33,1.623,4.756,2.442,7.31a11.165,11.165,0,0,1,.558,4.087,5.486,5.486,0,0,1-.6,2.062,5.687,5.687,0,0,1-1.407,1.66,13.4,13.4,0,0,1-3.781,1.928l-3.833,1.377-7.258,2.6-12.289,4.377-8.3,2.918-2.233.744-.6.194a.633.633,0,0,1-.2.052.391.391,0,0,0,.186-.089l.581-.231,2.233-.841,8.255-3.037,12.267-4.466,7.243-2.62,3.833-1.385a12.751,12.751,0,0,0,3.67-1.868,5.292,5.292,0,0,0,1.31-1.541,4.9,4.9,0,0,0,.558-1.913,10.71,10.71,0,0,0-.536-3.938c-.8-2.531-1.653-4.98-2.419-7.31-1.548-4.652-2.977-8.85-4.109-12.379s-2.084-6.364-2.739-8.359c-.313-.975-.551-1.734-.744-2.285l-.179-.6a.694.694,0,0,1-.052-.141Z" transform="translate(-319.347 -44.988)" fill="#ff9eae"/>
      <path id="Path_1651" data-name="Path 1651" d="M343.895,48.958s-.395-.194-1.124-.491a9.915,9.915,0,0,0-3.253-.655,11.166,11.166,0,0,0-4.809.908,10.719,10.719,0,0,0-4.548,3.8,10.063,10.063,0,0,0-1.749,5.65,17.411,17.411,0,0,0,.744,4.876c.387,1.355.789,2.434,1.057,3.186a8.317,8.317,0,0,1,.387,1.176,6.534,6.534,0,0,1-.528-1.124c-.305-.744-.744-1.8-1.176-3.164a16.93,16.93,0,0,1-.856-4.95,10.205,10.205,0,0,1,1.786-5.866,10.89,10.89,0,0,1,4.727-3.915,11.076,11.076,0,0,1,4.95-.849,9.371,9.371,0,0,1,3.3.782,6.145,6.145,0,0,1,.8.447A1.11,1.11,0,0,1,343.895,48.958Z" transform="translate(-316.786 -40.97)" fill="#ff9eae"/>
      <path id="Path_1652" data-name="Path 1652" d="M348.268,88.26a2.566,2.566,0,0,1,.372-.186,7.392,7.392,0,0,1,1.154-.409,8.256,8.256,0,0,1,1.928-.328,6.535,6.535,0,0,1,2.613.395,8.068,8.068,0,0,1,4.518,5.211,7.5,7.5,0,0,1,0,4.273,9.676,9.676,0,0,1-2.4,4.012l.045-.2c.99,2.717,2.069,5.665,3.186,8.739l.067.186-.186.067-1.7.566-3.722,1.243-.186.06-.06-.186c-1.02-3.082-2.136-5.955-2.977-8.776l.164.127a7.443,7.443,0,0,1-3.99-1.571A9.007,9.007,0,0,1,344.6,98.5a6.8,6.8,0,0,1-.789-3.35A8.084,8.084,0,0,1,346.928,89a4.734,4.734,0,0,1,1.288-.744,14.349,14.349,0,0,0-1.221.811,7.913,7.913,0,0,0-2.3,3.268,7.042,7.042,0,0,0,.231,6.007,8.739,8.739,0,0,0,2.434,2.858,7.086,7.086,0,0,0,3.8,1.489h.127l.037.112c.819,2.769,1.943,5.665,2.977,8.761l-.246-.119,3.722-1.243,1.7-.573-.119.253c-1.109-3.074-2.181-6.029-3.164-8.746v-.112l.089-.089a9.483,9.483,0,0,0,2.352-3.848,7.2,7.2,0,0,0,0-4.087,7.87,7.87,0,0,0-4.3-5.069,6.4,6.4,0,0,0-2.523-.424,8.531,8.531,0,0,0-1.906.261C348.8,88.044,348.275,88.3,348.268,88.26Z" transform="translate(-320.816 -51.145)" fill="#ff9eae"/>
    </g>
    <g id="freepik--Device--inject-64" transform="translate(157.044 70.434)">
      <path id="Path_1653" data-name="Path 1653" d="M287.82,302.063l-74.355-.342a16.2,16.2,0,0,1-16.115-16.272l.789-186.4A16.19,16.19,0,0,1,214.411,82.93l74.347.342a16.2,16.2,0,0,1,16.123,16.264l-.789,186.389A16.2,16.2,0,0,1,287.82,302.063Z" transform="translate(-197.35 -82.93)"/>
      <path id="Path_1654" data-name="Path 1654" d="M290.346,91.913H275.935a3.58,3.58,0,0,0-3.513,3.647v2.613a3.573,3.573,0,0,1-3.513,3.64l-28.092-.127a3.588,3.588,0,0,1-3.491-3.677V95.4a3.588,3.588,0,0,0-3.484-3.677h-5.069l-12.617-.06a11.344,11.344,0,0,0-11.411,11.232L204,284.83a11.337,11.337,0,0,0,11.285,11.389l74.2.342a11.344,11.344,0,0,0,11.4-11.292l.744-181.938a11.352,11.352,0,0,0-11.277-11.419Z" transform="translate(-199.05 -85.161)" fill="#fff"/>
      <path id="Path_1655" data-name="Path 1655" d="M287.289,328.33l-55.172-.238c-.573,0-1.035-.625-1.027-1.385l.06-14.433c0-.744.469-1.384,1.042-1.384l55.172.253a1.25,1.25,0,0,1,1.027,1.392l-.052,14.418C288.339,327.72,287.863,328.338,287.289,328.33Z" transform="translate(-205.975 -141.204)" fill="#fb133b"/>
      <rect id="Rectangle_651" data-name="Rectangle 651" width="19.145" height="3.513" transform="translate(18.002 60.148) rotate(0.26)" fill="#015641"/>
      <path id="Path_2632" data-name="Path 2632" d="M0,0H19.145V3.513H0Z" transform="translate(18.002 60.148) rotate(0.26)" fill="#fb133b"/>
      <path id="Path_1656" data-name="Path 1656" d="M296.712,188.326a1.712,1.712,0,0,0,.439-.1,1.176,1.176,0,0,0,.744-1c0-1.184,0-2.91,0-5.129v-4.756a1.444,1.444,0,0,0-.208-.975,1.117,1.117,0,0,0-.886-.454H284.884l-62.259-.231a.99.99,0,0,0-.819.409,1.422,1.422,0,0,0-.194.975v8.932a5.872,5.872,0,0,0,0,1.042,1,1,0,0,0,.581.67,1.161,1.161,0,0,0,.462.082h3.789l16.532.089,27.988.171,18.87.149,5.129.06h-24l-27.988-.089-16.532-.067h-3.789a1.489,1.489,0,0,1-.61-.1,1.4,1.4,0,0,1-.8-.93,2.107,2.107,0,0,1-.045-.6v-9.483a4.17,4.17,0,0,1,0-.6,1.266,1.266,0,0,1,.246-.6,1.37,1.37,0,0,1,1.131-.573l62.259.342,10.756.074h1.161a1.273,1.273,0,0,1,1.042.543,1.585,1.585,0,0,1,.238,1.094v4.757c0,2.233-.052,3.945-.067,5.136a1.206,1.206,0,0,1-.782,1.035A.893.893,0,0,1,296.712,188.326Z" transform="translate(-203.443 -106.52)" fill="#e0e0e0"/>
      <rect id="Rectangle_653" data-name="Rectangle 653" width="35.015" height="3.283" transform="translate(23.753 72.888)" fill="#015641"/>
      <path id="Path_2633" data-name="Path 2633" d="M0,0H35.015V3.283H0Z" transform="translate(23.753 72.888)" fill="#fb133b"/>
      <rect id="Rectangle_655" data-name="Rectangle 655" width="19.145" height="3.513" transform="translate(17.871 92.199) rotate(0.26)" fill="#015641"/>
      <path id="Path_2634" data-name="Path 2634" d="M0,0H19.145V3.513H0Z" transform="translate(17.871 92.199) rotate(0.26)" fill="#fb133b"/>
      <path id="Path_1657" data-name="Path 1657" d="M296.169,231.414a3.851,3.851,0,0,0,.447-.082,1.526,1.526,0,0,0,.938-.849,2.085,2.085,0,0,0,.134-.945v-8.88a1.6,1.6,0,0,0-.216-.983,1.444,1.444,0,0,0-.811-.633,4.562,4.562,0,0,0-1.124-.06H284.825l-62.043-.231a1.377,1.377,0,0,0-1.362,1.2v8.932a4.273,4.273,0,0,0,.045,1.042,1.414,1.414,0,0,0,.543.744,1.548,1.548,0,0,0,.923.238h3.186l16.473.082,27.891.171,18.8.149,5.114.06H270.481l-27.906-.03-16.473-.06h-3.238a1.869,1.869,0,0,1-1.139-.305,1.787,1.787,0,0,1-.7-.975,4.691,4.691,0,0,1-.06-1.146q0-1.117,0-2.233v-6.7a1.764,1.764,0,0,1,1.749-1.541l62.043.342,10.711.082a4.609,4.609,0,0,1,1.191.082,1.645,1.645,0,0,1,.916.744,1.794,1.794,0,0,1,.238,1.087v8.917a2.077,2.077,0,0,1-.156.975,1.578,1.578,0,0,1-1,.849,1.4,1.4,0,0,1-.484-.045Z" transform="translate(-203.384 -117.556)" fill="#e0e0e0"/>
      <rect id="Rectangle_657" data-name="Rectangle 657" width="19.145" height="3.513" transform="translate(17.727 125.643) rotate(0.26)" fill="#015641"/>
      <rect id="Rectangle_658" data-name="Rectangle 658" width="19.145" height="3.513" transform="translate(17.727 125.643) rotate(0.26)" fill="#fb133b"/>
      <path id="Path_1658" data-name="Path 1658" d="M295.992,276.291a3.558,3.558,0,0,0,.447-.082,1.533,1.533,0,0,0,.938-.841,2.1,2.1,0,0,0,.134-.945c0-.365,0-.744,0-1.184v-7.7a1.6,1.6,0,0,0-.216-.983,1.489,1.489,0,0,0-.811-.625,4.548,4.548,0,0,0-1.124-.067H284.648l-62.043-.231a1.377,1.377,0,0,0-1.362,1.2v8.932a4.211,4.211,0,0,0,.045,1.035,1.362,1.362,0,0,0,.543.744,1.489,1.489,0,0,0,.923.238h3.238l16.473.089,27.891.171,18.8.149,5.114.06H270.356l-27.891-.082-16.473-.067h-3.238a1.824,1.824,0,0,1-1.139-.305,1.787,1.787,0,0,1-.7-.975,4.692,4.692,0,0,1-.06-1.146q0-1.117,0-2.233V264.7a1.757,1.757,0,0,1,1.742-1.541l62.043.342,10.711.082a4.609,4.609,0,0,1,1.191.082,1.645,1.645,0,0,1,.916.744,1.794,1.794,0,0,1,.238,1.087v8.918a2.039,2.039,0,0,1-.156.975,1.578,1.578,0,0,1-1,.849A1.176,1.176,0,0,1,295.992,276.291Z" transform="translate(-203.356 -129.003)" fill="#e0e0e0"/>
      <rect id="Rectangle_659" data-name="Rectangle 659" width="35.015" height="3.283" transform="translate(23.005 105.71) rotate(0.26)" fill="#015641"/>
      <path id="Path_2635" data-name="Path 2635" d="M0,0H35.015V3.283H0Z" transform="translate(23.005 105.71) rotate(0.26)" fill="#fb133b"/>
      <path id="Path_1659" data-name="Path 1659" d="M231.458,272.075a1.533,1.533,0,1,1-1.489-1.645A1.578,1.578,0,0,1,231.458,272.075Z" transform="translate(-205.286 -130.861)" fill="#015641"/>
      <path id="Path_1660" data-name="Path 1660" d="M237.828,272.107a1.533,1.533,0,1,1-.732-1.417,1.533,1.533,0,0,1,.732,1.417Z" transform="translate(-206.914 -130.871)" fill="#015641"/>
      <path id="Path_1661" data-name="Path 1661" d="M244.208,272.135a1.533,1.533,0,1,1-1.489-1.645A1.585,1.585,0,0,1,244.208,272.135Z" transform="translate(-208.546 -130.877)" fill="#015641"/>
      <path id="Path_1662" data-name="Path 1662" d="M250.578,272.165a1.533,1.533,0,1,1-1.489-1.645A1.585,1.585,0,0,1,250.578,272.165Z" transform="translate(-210.174 -130.884)" fill="#015641"/>
      <path id="Path_1663" data-name="Path 1663" d="M256.948,272.187a1.533,1.533,0,1,1-1.489-1.638A1.585,1.585,0,0,1,256.948,272.187Z" transform="translate(-211.802 -130.892)" fill="#015641"/>
      <path id="Path_1664" data-name="Path 1664" d="M263.328,272.218a1.533,1.533,0,1,1-1.526-1.638,1.586,1.586,0,0,1,1.526,1.638Z" transform="translate(-213.433 -130.9)" fill="#015641"/>
      <path id="Path_1665" data-name="Path 1665" d="M269.7,272.247a1.533,1.533,0,1,1-.732-1.417A1.533,1.533,0,0,1,269.7,272.247Z" transform="translate(-215.062 -130.907)" fill="#015641"/>
      <path id="Path_1666" data-name="Path 1666" d="M276.068,272.278a1.533,1.533,0,1,1-1.526-1.638,1.586,1.586,0,0,1,1.526,1.638Z" transform="translate(-216.69 -130.915)" fill="#015641"/>
      <path id="Path_1667" data-name="Path 1667" d="M282.438,272.307a1.533,1.533,0,1,1-1.489-1.638A1.586,1.586,0,0,1,282.438,272.307Z" transform="translate(-218.318 -130.923)" fill="#015641"/>
      <g id="Group_1104" data-name="Group 1104" transform="translate(23.109 139.568)">
        <path id="Path_1668" data-name="Path 1668" d="M231.458,272.075a1.533,1.533,0,1,1-1.489-1.645A1.578,1.578,0,0,1,231.458,272.075Z" transform="translate(-228.395 -270.429)" fill="#fb133b"/>
        <path id="Path_1669" data-name="Path 1669" d="M237.828,272.107a1.533,1.533,0,1,1-.732-1.417,1.533,1.533,0,0,1,.732,1.417Z" transform="translate(-230.024 -270.439)" fill="#fb133b"/>
        <path id="Path_1670" data-name="Path 1670" d="M244.208,272.135a1.533,1.533,0,1,1-1.489-1.645A1.585,1.585,0,0,1,244.208,272.135Z" transform="translate(-231.655 -270.445)" fill="#fb133b"/>
        <path id="Path_1671" data-name="Path 1671" d="M250.578,272.165a1.533,1.533,0,1,1-1.489-1.645A1.585,1.585,0,0,1,250.578,272.165Z" transform="translate(-233.283 -270.452)" fill="#fb133b"/>
        <path id="Path_1672" data-name="Path 1672" d="M256.948,272.187a1.533,1.533,0,1,1-1.489-1.638A1.585,1.585,0,0,1,256.948,272.187Z" transform="translate(-234.911 -270.46)" fill="#fb133b"/>
        <path id="Path_1673" data-name="Path 1673" d="M263.328,272.218a1.533,1.533,0,1,1-1.526-1.638,1.586,1.586,0,0,1,1.526,1.638Z" transform="translate(-236.542 -270.468)" fill="#fb133b"/>
        <path id="Path_1674" data-name="Path 1674" d="M269.7,272.247a1.533,1.533,0,1,1-.732-1.417A1.533,1.533,0,0,1,269.7,272.247Z" transform="translate(-238.171 -270.475)" fill="#fb133b"/>
        <path id="Path_1675" data-name="Path 1675" d="M276.068,272.278a1.533,1.533,0,1,1-1.526-1.638,1.586,1.586,0,0,1,1.526,1.638Z" transform="translate(-239.799 -270.483)" fill="#fb133b"/>
        <path id="Path_1676" data-name="Path 1676" d="M282.438,272.307a1.533,1.533,0,1,1-1.489-1.638A1.586,1.586,0,0,1,282.438,272.307Z" transform="translate(-241.428 -270.491)" fill="#fb133b"/>
      </g>
      <path id="Path_1677" data-name="Path 1677" d="M272.4,126.613a2.881,2.881,0,0,0,1.719-2.672,2.709,2.709,0,1,0-5.411,0,2.888,2.888,0,0,0,1.727,2.7c-4.168.625-3.982,5.151-3.982,5.151l9.855.045S276.536,127.231,272.4,126.613Z" transform="translate(-215.014 -92.685)" fill="#015641"/>
      <path id="Path_1678" data-name="Path 1678" d="M272.4,126.613a2.881,2.881,0,0,0,1.719-2.672,2.709,2.709,0,1,0-5.411,0,2.888,2.888,0,0,0,1.727,2.7c-4.168.625-3.982,5.151-3.982,5.151l9.855.045S276.536,127.231,272.4,126.613Z" transform="translate(-215.014 -92.685)" fill="#fb133b" stroke="#fb133b" stroke-width="1"/>
      <rect id="Rectangle_661" data-name="Rectangle 661" width="35.127" height="4.198" transform="translate(38.271 41.914) rotate(0.26)" fill="#015641"/>
      <path id="Path_1718" data-name="Path 1718" d="M0,0H35.127V4.2H0Z" transform="translate(38.271 41.914) rotate(0.26)" fill="#fb133b"/>
    </g>
    <g id="freepik--speech-bubble--inject-64" transform="translate(82.157 134.264)">
      <path id="Path_1679" data-name="Path 1679" d="M115.894,168.68h-.35l-1.012.074a11.486,11.486,0,0,0-1.63.216,10.072,10.072,0,0,0-1.035.2l-1.154.32a18.958,18.958,0,0,0-5.486,2.717,19.309,19.309,0,0,0-5.4,6.014,20.157,20.157,0,0,0-1.891,4.325,20.8,20.8,0,0,0-.826,5.047,20.452,20.452,0,0,0,.045,2.695,10.99,10.99,0,0,0,.186,1.37,8.8,8.8,0,0,0,.261,1.377,19.644,19.644,0,0,0,11.165,13.644,17.686,17.686,0,0,0,6.394,1.437,17.262,17.262,0,0,0,6.7-.96l.655-.246h.089l.074.045,9.386,4.764-.275.238c-1-3.111-1.973-6.126-2.91-9.022v-.112l.082-.082a20.1,20.1,0,0,0,4.928-8.188,20.619,20.619,0,0,0,.744-8.724,20.381,20.381,0,0,0-2.464-7.4,20.1,20.1,0,0,0-4.243-5.211,20.731,20.731,0,0,0-4.608-2.933,20.053,20.053,0,0,0-3.9-1.228l-1.489-.246-1.079-.082-.655-.045h-.223a1.012,1.012,0,0,1,.223,0h.662l1.079.045,1.489.216a19.725,19.725,0,0,1,3.953,1.184,20.686,20.686,0,0,1,4.689,2.925,20.15,20.15,0,0,1,4.332,5.211,20.433,20.433,0,0,1,2.538,7.5,20.842,20.842,0,0,1-.692,8.873,20.366,20.366,0,0,1-5,8.359l.045-.194c.938,2.9,1.913,5.91,2.925,9.014l.141.454-.424-.216-9.386-4.757h.164l-.67.246a17.761,17.761,0,0,1-6.826.983,18.088,18.088,0,0,1-6.528-1.489,19.584,19.584,0,0,1-9.327-8.344,19.874,19.874,0,0,1-2.107-5.508,11.4,11.4,0,0,1-.261-1.407c-.06-.469-.156-.93-.179-1.392a22,22,0,0,1,.826-7.86,20.016,20.016,0,0,1,1.943-4.377,19.48,19.48,0,0,1,5.516-6.052,18.818,18.818,0,0,1,5.575-2.695l1.169-.3a10.336,10.336,0,0,1,1.042-.186,11.052,11.052,0,0,1,1.645-.179l1.02-.037A2.5,2.5,0,0,1,115.894,168.68Z" transform="translate(-96.745 -168.68)" fill="#fb133b"/>
      <path id="Path_1680" data-name="Path 1680" d="M124.2,189.62h-1.377l-2.977-4.183V182.69s-2.129-.134-1.876,3.461,0,2.68,0,2.68-4.518,0-4.89.409-.395,4.771-.447,7.205a2.635,2.635,0,0,0,1.868,2.65,1.845,1.845,0,0,0,.484.067c1.131,0,6.885-.916,6.885-.916h2.375Z" transform="translate(-100.805 -172.261)" fill="#fb133b"/>
      <path id="Path_1681" data-name="Path 1681" d="M132.361,191.01l-.849,9.409H129.16V191.2Z" transform="translate(-105.031 -174.388)" fill="#fb133b"/>
    </g>
    <g id="freepik--Character--inject-64" transform="translate(101.299 138.689)">
      <path id="Path_1682" data-name="Path 1682" d="M167.2,446.126v-6.364l-11.411-.082-.1,9.625.707.052c3.149.2,16.019.5,18.133-.156C176.882,448.471,167.2,446.126,167.2,446.126Z" transform="translate(-130.955 -242.382)" fill="#ff9eae"/>
      <path id="Path_1683" data-name="Path 1683" d="M174.811,451.6c0,.1-4.273.194-9.535.194s-9.535-.089-9.535-.194,4.273-.194,9.535-.194S174.811,451.5,174.811,451.6Z" transform="translate(-130.968 -245.381)" fill="#263238"/>
      <path id="Path_1684" data-name="Path 1684" d="M171.407,449.68c-.1-.052,0-.387.231-.744s.543-.506.618-.432-.082.357-.305.662S171.5,449.732,171.407,449.68Z" transform="translate(-134.963 -244.633)" fill="#263238"/>
      <path id="Path_1685" data-name="Path 1685" d="M172.382,450.171c-.1,0-.052-.417.171-.811s.521-.633.6-.573-.052.395-.261.744S172.479,450.209,172.382,450.171Z" transform="translate(-135.209 -244.708)" fill="#263238"/>
      <path id="Path_1686" data-name="Path 1686" d="M159.23,450.863c-.045,0-.216-.134-.462-.417a7.38,7.38,0,0,0-1-1,2.628,2.628,0,0,0-1.236-.543c-.35-.045-.573,0-.6-.045s.194-.2.6-.231a2.3,2.3,0,0,1,1.489.506,4.2,4.2,0,0,1,.983,1.154C159.185,450.617,159.274,450.833,159.23,450.863Z" transform="translate(-131.018 -244.67)" fill="#263238"/>
      <path id="Path_1687" data-name="Path 1687" d="M171.091,448.467c.052.089-.141.313-.469.432s-.618.074-.633,0,.216-.231.5-.335S171.032,448.378,171.091,448.467Z" transform="translate(-134.61 -244.619)" fill="#263238"/>
      <path id="Path_1688" data-name="Path 1688" d="M170.76,447.586c0,.112-.3.2-.685.208s-.692-.082-.685-.186.313-.2.685-.208S170.745,447.482,170.76,447.586Z" transform="translate(-134.457 -244.356)" fill="#263238"/>
      <path id="Path_1689" data-name="Path 1689" d="M204.948,446.126v-6.364l-11.411-.082-.1,9.528.707.052c3.149.2,16.026.6,18.133-.06C214.632,448.471,204.948,446.126,204.948,446.126Z" transform="translate(-140.88 -242.382)" fill="#ff9eae"/>
      <path id="Path_1690" data-name="Path 1690" d="M212.563,451.624c0,.1-4.265.194-9.535.194s-9.528-.089-9.528-.194,4.265-.194,9.528-.194S212.563,451.519,212.563,451.624Z" transform="translate(-140.62 -245.386)" fill="#263238"/>
      <path id="Path_1691" data-name="Path 1691" d="M209.158,449.68c-.089-.052,0-.387.231-.744s.543-.506.618-.432-.082.357-.305.662S209.255,449.732,209.158,449.68Z" transform="translate(-144.614 -244.633)" fill="#263238"/>
      <path id="Path_1692" data-name="Path 1692" d="M210.133,450.171c-.1,0-.052-.417.179-.811s.521-.633.6-.573-.06.395-.268.744S210.238,450.209,210.133,450.171Z" transform="translate(-144.86 -244.708)" fill="#263238"/>
      <path id="Path_1693" data-name="Path 1693" d="M196.98,450.863c-.045,0-.208-.134-.462-.417a7.379,7.379,0,0,0-1-1,2.628,2.628,0,0,0-1.236-.543c-.342-.045-.573,0-.6-.045s.194-.2.6-.231a2.3,2.3,0,0,1,1.489.506,4.071,4.071,0,0,1,.983,1.154C196.935,450.617,197.024,450.833,196.98,450.863Z" transform="translate(-140.668 -244.67)" fill="#263238"/>
      <path id="Path_1694" data-name="Path 1694" d="M208.841,448.467c.052.089-.141.313-.469.432s-.618.074-.633,0,.216-.231.5-.335S208.782,448.378,208.841,448.467Z" transform="translate(-144.26 -244.619)" fill="#263238"/>
      <path id="Path_1695" data-name="Path 1695" d="M208.532,447.586c0,.112-.3.2-.685.208s-.685-.082-.677-.186.305-.2.677-.208S208.532,447.482,208.532,447.586Z" transform="translate(-144.115 -244.356)" fill="#263238"/>
      <path id="Path_1696" data-name="Path 1696" d="M228.845,190.994c-.3-.305-1.035-.156-1.035-.156a3.81,3.81,0,0,0,0-1.3c-.134-.417-1.072-.335-1.072-.335a4.324,4.324,0,0,1,0-1.057.38.38,0,0,0-.216-.38,3.439,3.439,0,0,0-1.4-.253c-.573-.409,1.749-3.662,2.613-4.7s.707-1.853-.06-1.853c-.529,0-3.238,3.126-4.072,4.176s-3.044,3.967-3.119,1.638-1.012-4.087-1.6-4.384-1.213.4-.893,1.05a8.329,8.329,0,0,1,.521,2.293,5.479,5.479,0,0,1-.082,1.876,22.494,22.494,0,0,1-1,3.365h-.06s-16.242,15.58-17.418,16.689c-1.05,1-22.16-1.184-26.4-1.63a28.35,28.35,0,0,0-4.347-.3c-1.839.082-2.166.342-4,.365a90.529,90.529,0,0,0-13.8,1.213,11.441,11.441,0,0,0-8.977,7.786c-4.265,13.324-13.927,44.863-15.632,62.579a75.181,75.181,0,0,0-3.484,7.2c-1.2,3.26-.908,3.372-.506,3.446,1.087.2,2.322-5.65,2.784-4.235s-2.345,6.975-1.206,7.138c1.489.208,2.672-5.955,2.814-6.446s.878-.335.744.127c-.216.655-2.308,7.6-.849,7.823.8.119.893-1.347.893-1.347s1.489-6.647,2.166-6.513-.045,4.057-.387,5.367.134,1.973.834,1.652c.476-.223,1.615-4.206,1.928-5.5s1.094-4.883,2.144-2.806,2.643,3.283,3.3,3.312a.744.744,0,0,0,.365-1.332A8.434,8.434,0,0,1,136.9,283.7a5.486,5.486,0,0,1-.744-1.742,18.886,18.886,0,0,1-.521-3.766l-.119-.744c1.667-8.255,6.469-32.484,13.4-47.959l2.843,5.851,1.236,4.332-7.578,18.706,32.32-.424-4.823-18.564,5.858-19.353h0c6.335.141,22.6.38,25.308-.849,3.409-1.489,21.043-23.76,21.043-23.76h0a40.732,40.732,0,0,0,3.3-2.858S229.492,191.664,228.845,190.994Z" transform="translate(-122.46 -176.244)" fill="#ffbe9d"/>
      <path id="Path_1697" data-name="Path 1697" d="M147.934,252.532c.938-3.2,5.754-19.026,5.754-19.026s2.367,12.9,1.742,14.456A27.541,27.541,0,0,1,153.4,251.8c-5.464,8.315-4.749,12.476-4.749,12.476l33.013-1c.074-4.615-2.657-15.349-3.223-17.061s1.318-7.317,1.318-7.317,3.722-3.789,3.588-5.739a31.546,31.546,0,0,0-.648-5.211l20.1.744-.633-13.622-28.866-2.888c-1,2.836-10.094,1.444-10.094,1.444-9.811.328-10.421,2.129-14.5,5.3s-10.831,30.385-10.831,30.385Z" transform="translate(-126.399 -184.225)" fill="#f99300"/>
      <path id="Path_1698" data-name="Path 1698" d="M173.568,261.654a6.946,6.946,0,0,1-1.734.089c-1.079,0-2.561-.074-4.191-.238s-3.1-.395-4.154-.6a7.162,7.162,0,0,1-1.69-.432,9.3,9.3,0,0,1,1.734.164c1.057.134,2.523.32,4.146.484s3.1.275,4.161.35A9.188,9.188,0,0,1,173.568,261.654Z" transform="translate(-132.517 -196.57)"/>
      <path id="Path_1699" data-name="Path 1699" d="M176.256,258.29a7.632,7.632,0,0,1-1.8.618,33.1,33.1,0,0,1-9.1,1.079,7.51,7.51,0,0,1-1.891-.179,12.727,12.727,0,0,1,1.891-.1c1.169-.037,2.776-.119,4.548-.328s3.35-.506,4.466-.744a12.343,12.343,0,0,1,1.891-.35Z" transform="translate(-132.941 -196.013)"/>
      <path id="Path_1700" data-name="Path 1700" d="M194.624,241.47a7.748,7.748,0,0,1-.231,1.682c-.194,1.035-.491,2.449-.871,4s-.744,2.977-1.072,3.945a7.444,7.444,0,0,1-.581,1.6,7.576,7.576,0,0,1,.313-1.667c.283-1.161.6-2.5.96-3.967s.7-2.806.983-3.967a7.1,7.1,0,0,1,.5-1.623Z" transform="translate(-140.204 -191.713)" fill="#263238"/>
      <path id="Path_1701" data-name="Path 1701" d="M148.4,262.9a34.606,34.606,0,0,1-5.084-1.184,35.329,35.329,0,0,1-4.987-1.563,35.786,35.786,0,0,1,5.084,1.184A34.934,34.934,0,0,1,148.4,262.9Z" transform="translate(-126.517 -196.488)" fill="#263238"/>
      <path id="Path_1702" data-name="Path 1702" d="M195.413,228.05a2.5,2.5,0,0,1-.849,0,8.821,8.821,0,0,1-2.27-.543,9.327,9.327,0,0,1-5.389-5.292,9.617,9.617,0,0,1-.663-4.191,6.513,6.513,0,0,1,1.02-3.32,3.447,3.447,0,0,1,1.883-1.392,2.278,2.278,0,0,1,.633-.082H190a2.414,2.414,0,0,0-.811.2,3.387,3.387,0,0,0-1.7,1.392,8.5,8.5,0,0,0-.216,7.22,9.1,9.1,0,0,0,2.3,3.365,9.773,9.773,0,0,0,2.821,1.816,14.336,14.336,0,0,0,3.022.826Z" transform="translate(-138.76 -184.494)" fill="#263238"/>
      <path id="Path_1703" data-name="Path 1703" d="M221.809,229.289a62.023,62.023,0,0,1-.179-6.863,61.409,61.409,0,0,1,.208-6.856,61.829,61.829,0,0,1,.179,6.856A59.546,59.546,0,0,1,221.809,229.289Z" transform="translate(-147.805 -185.092)" fill="#263238"/>
      <path id="Path_1704" data-name="Path 1704" d="M181.388,204.345c.082-1.66.253-3.536.253-3.536a4.973,4.973,0,0,0,4.355-4.7c.246-4.243,0-14.031,0-14.031l-7.444-3.811-8.262,6.5,1.273,21.214,7.578.484a2.188,2.188,0,0,0,2.248-2.121Z" transform="translate(-134.687 -175.557)" fill="#ffbe9d"/>
      <path id="Path_1705" data-name="Path 1705" d="M185.608,196.9a.345.345,0,0,1-.067.179.551.551,0,0,1-.469.208c-.476,0-.938-.551-1.1-1.191a1.943,1.943,0,0,1,0-.945.819.819,0,0,1,.447-.64.409.409,0,0,1,.313,0,.38.38,0,0,1,.171.171.21.21,0,0,1,0,.2.217.217,0,0,0-.074-.149.268.268,0,0,0-.35-.074.633.633,0,0,0-.305.528,1.906,1.906,0,0,0,0,.841c.149.581.551,1.05.908,1.094a.514.514,0,0,0,.395-.112C185.563,196.951,185.593,196.891,185.608,196.9Z" transform="translate(-138.169 -179.7)" fill="#eb996e"/>
      <path id="Path_1706" data-name="Path 1706" d="M181.865,178.857c-.573-1.95-2.65-2.918-4.541-3.454a14.306,14.306,0,0,0-8.806-.141c-2.814,1.035-6.193,2.851-6.193,5.955-1.66-.134-2.613,1.318-3.268,3.119a11.687,11.687,0,0,0-.744,3.424h0c-.208,4.064-1.347,9.677-3.982,12.654-1.489,1.66-3.551,2.806-4.4,4.876-.744,1.794-.357,3.923-1.05,5.739-.618,1.6-1.98,2.739-2.977,4.131a11.076,11.076,0,0,0-.707,10.711,13.562,13.562,0,0,0,8.106,7,18.958,18.958,0,0,0,10.682.1,17.864,17.864,0,0,0,7.161-3.551,11.954,11.954,0,0,0,4.154-6.878c.528-3.037-.32-6.126-.953-9.148-1.98-9.55-1.414-10.049,1.087-18.914.06-.156.089-.32.134-.476s.067-.231.1-.35h0a5.612,5.612,0,0,0,.112-1.064,2.047,2.047,0,0,1-2.151-.461,2.233,2.233,0,0,1-.506-2.233,3.246,3.246,0,0,1,1.92-1.809c.826-.342,1.712-.521,2.523-.9a8.431,8.431,0,0,0,3.722-4.295,5.9,5.9,0,0,0,.581-4.034Z" transform="translate(-128.003 -174.625)"/>
      <path id="Path_1707" data-name="Path 1707" d="M186.155,198a3.641,3.641,0,0,1,.387.744c.223.469.521,1.131.849,1.9l.06.141h-.156l-.744.067c-.514,0-.945.1-1.452.089a.268.268,0,0,1-.194-.171.335.335,0,0,1,0-.208,2.982,2.982,0,0,1,.067-.3l.134-.529a5.04,5.04,0,0,1,.313-1.027,5.025,5.025,0,0,1-.156,1.064l-.1.529c-.037.179-.1.454,0,.432.372,0,.9-.082,1.392-.112l.744-.067-.1.164c-.32-.744-.588-1.444-.744-1.928A2.9,2.9,0,0,1,186.155,198Z" transform="translate(-138.419 -180.6)" fill="#015641"/>
      <path id="Path_1708" data-name="Path 1708" d="M151.8,281.825l33.013-1,14.366,56.08-2.643,64.328H179.084l2.136-62.958-12.766-39.042,1.965,104.494-17.641.261-1.853-98.219c-.082-2.732-.975-8.888-.64-11.6Z" transform="translate(-129.554 -201.772)" fill="#fb133b"/>
      <path id="Path_1709" data-name="Path 1709" d="M176.924,305.869a6.611,6.611,0,0,1-1.615-.1c-1-.119-2.36-.328-3.856-.625s-2.836-.64-3.8-.916a6.141,6.141,0,0,1-1.489-.536c0-.112,2.427.469,5.4,1.072S176.938,305.757,176.924,305.869Z" transform="translate(-133.631 -207.616)"/>
      <path id="Path_1710" data-name="Path 1710" d="M206.144,437.773c0,.1-3.953.194-8.828.194s-8.836-.089-8.836-.194,3.953-.194,8.836-.194S206.144,437.662,206.144,437.773Z" transform="translate(-139.337 -241.845)"/>
      <path id="Path_1711" data-name="Path 1711" d="M171.263,442.214c0,.112-3.841.194-8.575.194s-8.568-.082-8.568-.194,3.841-.194,8.568-.194S171.263,442.109,171.263,442.214Z" transform="translate(-130.553 -242.98)"/>
      <path id="Path_1712" data-name="Path 1712" d="M173.506,406.893c-.1,0-.566-22.83-1.035-50.989s-.744-51-.648-51,.573,22.822,1.035,51S173.617,406.893,173.506,406.893Z" transform="translate(-135.074 -207.928)"/>
      <path id="Path_1713" data-name="Path 1713" d="M204.972,398.045a1.9,1.9,0,0,1,0-.305v-.893c0-.8.06-1.958.1-3.424.1-2.977.253-7.3.439-12.6.4-10.659.968-25.353,1.586-41.573v-.387c-3.908-15.632-7.444-29.819-10.012-40.084l-2.977-12.141c-.342-1.422-.6-2.531-.789-3.3-.089-.365-.149-.648-.2-.863a1.288,1.288,0,0,1-.052-.3,1.645,1.645,0,0,1,.089.29c.06.208.134.491.238.849.2.744.491,1.876.863,3.29.744,2.873,1.794,7.012,3.1,12.111,2.59,10.257,6.163,24.408,10.123,40.062v.491c-.662,16.22-1.265,30.906-1.7,41.565-.231,5.307-.424,9.6-.558,12.595-.074,1.489-.134,2.62-.171,3.424,0,.38-.045.677-.052.893a1.423,1.423,0,0,1-.03.305Z" transform="translate(-140.51 -202.117)"/>
      <path id="Path_1714" data-name="Path 1714" d="M198.687,356.5a19.94,19.94,0,0,1-3.856.856c-1.608.275-2.977.469-3.6.5v-.149c.2.06.305.1.305.127s-.127,0-.335,0h-.447l.447-.134c.581-.171,1.95-.454,3.558-.744a20.1,20.1,0,0,1,3.923-.454Z" transform="translate(-139.92 -221.118)"/>
      <path id="Path_1715" data-name="Path 1715" d="M198.617,359.161a19.21,19.21,0,0,1-3.476-.156,19.64,19.64,0,0,1-3.461-.38A22.04,22.04,0,0,1,198.617,359.161Z" transform="translate(-140.155 -221.643)"/>
      <path id="Path_1716" data-name="Path 1716" d="M152.16,283.008a4.525,4.525,0,0,0,3.26,1.734,14.685,14.685,0,0,0,4-.074c8.523-.945,17.552-1.816,25.9-3.848-10.8.6-22.212.4-33.013,1l-.112.923" transform="translate(-130.052 -201.772)" opacity="0.2"/>
      <g id="Group_1105" data-name="Group 1105" transform="translate(33.236 96.459)" opacity="0.2">
        <path id="Path_1717" data-name="Path 1717" d="M167.11,304.21l6.089,23.626-.424-22.629Z" transform="translate(-167.11 -304.21)"/>
      </g>
    </g>
  </g>
</svg>
