<svg id="Group_1323" data-name="Group 1323" xmlns="http://www.w3.org/2000/svg" xmlns:xlink="http://www.w3.org/1999/xlink" width="398" height="355.521" viewBox="0 0 398 355.521">
  <defs>
    <clipPath id="clip-path">
      <rect id="Rectangle_726" data-name="Rectangle 726" width="398" height="355.521" fill="none"/>
    </clipPath>
    <clipPath id="clip-path-2">
      <rect id="Rectangle_721" data-name="Rectangle 721" width="398.002" height="355.521" fill="none"/>
    </clipPath>
    <clipPath id="clip-path-3">
      <rect id="Rectangle_710" data-name="Rectangle 710" width="13.18" height="17.236" fill="none"/>
    </clipPath>
    <clipPath id="clip-path-4">
      <rect id="Rectangle_711" data-name="Rectangle 711" width="18.599" height="25.265" fill="none"/>
    </clipPath>
    <clipPath id="clip-path-6">
      <rect id="Rectangle_722" data-name="Rectangle 722" width="10.013" height="11.45" fill="none"/>
    </clipPath>
    <clipPath id="clip-path-7">
      <rect id="Rectangle_723" data-name="Rectangle 723" width="12.264" height="14.024" fill="none"/>
    </clipPath>
    <clipPath id="clip-path-8">
      <rect id="Rectangle_724" data-name="Rectangle 724" width="12.425" height="14.208" fill="none"/>
    </clipPath>
  </defs>
  <g id="Group_1322" data-name="Group 1322" clip-path="url(#clip-path)">
    <path id="Path_1979" data-name="Path 1979" d="M606,141.371l0,.018,16.243,2.7,4.889.811,16.243,2.7,0-.018Z" transform="translate(-366.658 -81.861)" fill="#ed9494"/>
    <g id="Group_1310" data-name="Group 1310">
      <g id="Group_1309" data-name="Group 1309" clip-path="url(#clip-path-2)">
        <path id="Path_1980" data-name="Path 1980" d="M644.2,101.235a10.384,10.384,0,0,0-1.583-7.211l-6.7-10.132a6.4,6.4,0,0,1-.975-4.442l.9-6.14-4.091-.679-4.889-.812-4.091-.679-.9,6.14a6.166,6.166,0,0,1-2.2,3.916l-9.277,7.479a10,10,0,0,0-3.565,6.356L606,100.7l37.374,6.2Z" transform="translate(-366.661 -41.194)" fill="#e1eff5"/>
        <path id="Path_1981" data-name="Path 1981" d="M614.812,248.12l8.733-59.778-37.355-6.2-8.733,59.778a6.028,6.028,0,0,0,4.75,6.929l26.1,4.332a5.753,5.753,0,0,0,6.5-5.062" transform="translate(-349.351 -105.469)" fill="#e1eff5"/>
        <path id="Path_1982" data-name="Path 1982" d="M644.2,101.235a10.384,10.384,0,0,0-1.583-7.211l-6.7-10.132a6.4,6.4,0,0,1-.975-4.442l.9-6.14-4.091-.679-4.889-.812-4.091-.679-.9,6.14a6.166,6.166,0,0,1-2.2,3.916l-9.277,7.479a10,10,0,0,0-3.565,6.356L606,100.7l37.374,6.2Z" transform="translate(-366.661 -41.194)" fill="#e1eff5"/>
        <path id="Path_1983" data-name="Path 1983" d="M646.727,191.761l-9.609,65.774,7.332,1.217a5.753,5.753,0,0,0,6.5-5.062l8.734-59.778Z" transform="translate(-385.49 -111.039)" fill="#c4e0e8"/>
        <path id="Path_1984" data-name="Path 1984" d="M646.727,191.761l-9.609,65.774,7.332,1.217a5.753,5.753,0,0,0,6.5-5.062l8.734-59.778Z" transform="translate(-385.49 -111.039)" fill="#c4e0e8"/>
        <path id="Path_1985" data-name="Path 1985" d="M680.01,96.821l-6.7-10.132a6.4,6.4,0,0,1-.975-4.442l.9-6.141-.816-.135L667.8,107.552l12.967,2.152.829-5.672a10.384,10.384,0,0,0-1.583-7.211" transform="translate(-404.053 -43.991)" fill="#c4e0e8"/>
        <path id="Path_2126" data-name="Path 2126" d="M.182.1,24.075-.12,23.7,37.744-.2,37.969Z" transform="matrix(0.154, -0.988, 0.988, 0.154, 233.255, 100.48)" fill="#85a1f1"/>
        <path id="Path_1986" data-name="Path 1986" d="M660.272,50.215l-14.26-2.367a1.821,1.821,0,0,0-2.057,1.6l-.87,5.954a1.908,1.908,0,0,0,1.5,2.193l14.26,2.367a1.82,1.82,0,0,0,2.057-1.6l.87-5.954a1.908,1.908,0,0,0-1.5-2.193" transform="translate(-389.088 -27.693)" fill="#85a1f1"/>
        <path id="Path_1987" data-name="Path 1987" d="M679.552,52.772l-3.2-.531-1.424,9.748,3.2.531a1.821,1.821,0,0,0,2.057-1.6l.87-5.954a1.908,1.908,0,0,0-1.5-2.193" transform="translate(-408.368 -30.25)" fill="#6782b8"/>
        <path id="Path_1988" data-name="Path 1988" d="M639.758,147.574l-7.429-1.233-4.661-.773L602.4,141.374l-1.838,1.52-.526,3.6,1.317,2.044,25.266,4.193,4.661.774,7.428,1.233,1.838-1.52.526-3.6Z" transform="translate(-363.055 -81.863)" fill="#c4e0e8"/>
        <path id="Path_2127" data-name="Path 2127" d="M.2.015,3.836-.019l-.41,41.063-3.638.034Z" transform="translate(236.938 64.825) rotate(-81.149)" fill="#e1eff5"/>
        <path id="Path_1989" data-name="Path 1989" d="M637.76,160.4l-7.428-1.233-4.661-.773L600.4,154.2l-1.838,1.52-.526,3.6,1.317,2.044,25.266,4.193,4.661.774,7.428,1.233,1.838-1.52.526-3.6Z" transform="translate(-361.846 -89.292)" fill="#c4e0e8"/>
        <path id="Path_2128" data-name="Path 2128" d="M.2.015,3.836-.019l-.41,41.063-3.638.034Z" transform="translate(236.149 70.226) rotate(-81.149)" fill="#e1eff5"/>
        <path id="Path_1990" data-name="Path 1990" d="M635.769,173.188l-7.429-1.233-4.661-.773-25.266-4.194-1.838,1.521-.526,3.6,1.317,2.044,25.266,4.193,4.661.774,7.429,1.233,1.838-1.52.526-3.6Z" transform="translate(-360.642 -96.694)" fill="#c4e0e8"/>
        <path id="Path_2129" data-name="Path 2129" d="M.2.015,3.836-.019l-.41,41.063-3.638.034Z" transform="translate(235.363 75.607) rotate(-81.149)" fill="#e1eff5"/>
        <path id="Path_1991" data-name="Path 1991" d="M658.717,73.157l-17.425-2.892a.944.944,0,0,0-1.063.828.989.989,0,0,0,.777,1.133l17.425,2.892a.943.943,0,0,0,1.063-.828.989.989,0,0,0-.777-1.133" transform="translate(-387.365 -40.68)" fill="#e1eff5"/>
        <path id="Path_1992" data-name="Path 1992" d="M626.114,235.19l-7.429-1.233-4.661-.773-25.266-4.194-1.838,1.52-.526,3.6,1.317,2.044,25.266,4.193,4.661.774,7.428,1.233,1.838-1.52.526-3.6Z" transform="translate(-354.8 -132.597)" fill="#c4e0e8"/>
        <path id="Path_2130" data-name="Path 2130" d="M.2.015,3.836-.019l-.41,41.063-3.638.034Z" transform="translate(231.55 101.707) rotate(-81.149)" fill="#e1eff5"/>
        <path id="Path_1993" data-name="Path 1993" d="M624.116,248.021l-7.429-1.233-4.661-.773-25.266-4.194-1.838,1.52-.526,3.6,1.317,2.044,25.266,4.193,4.661.774,7.429,1.233,1.838-1.52.526-3.6Z" transform="translate(-353.591 -140.026)" fill="#c4e0e8"/>
        <path id="Path_2131" data-name="Path 2131" d="M.2.015,3.836-.019l-.41,41.063-3.638.034Z" transform="translate(230.76 107.108) rotate(-81.149)" fill="#e1eff5"/>
        <path id="Path_1994" data-name="Path 1994" d="M622.126,260.8l-7.429-1.233-4.661-.773L584.77,254.6l-1.838,1.52-.526,3.6,1.317,2.044,25.266,4.193,4.661.773,7.429,1.233,1.838-1.52.526-3.6Z" transform="translate(-352.387 -147.429)" fill="#c4e0e8"/>
        <path id="Path_2132" data-name="Path 2132" d="M.2.015,3.836-.019l-.41,41.063-3.638.034Z" transform="translate(229.974 112.489) rotate(-81.149)" fill="#e1eff5"/>
        <path id="Path_1995" data-name="Path 1995" d="M606.518,200.823l.392,4.076,1.529-3.757,1.3.215.391,4.075,1.529-3.757,1.362.226-2.465,5.136-1.37-.227-.379-3.8-1.475,3.5-1.362-.226-.875-5.69Z" transform="translate(-366.112 -116.149)" fill="#e1eff5"/>
        <path id="Path_1996" data-name="Path 1996" d="M627.828,209.411l-2.2-.365-.494.9-1.362-.226,2.971-5.052,1.362.226,1.34,5.767-1.413-.234Zm-.233-1.146-.414-2.046-.992,1.813Z" transform="translate(-377.417 -118.512)" fill="#e1eff5"/>
        <path id="Path_1997" data-name="Path 1997" d="M644.738,206.845l-.17,1.167-1.521-.253-.621,4.247-1.326-.22.62-4.247-1.508-.25.171-1.167Z" transform="translate(-387.363 -119.355)" fill="#e1eff5"/>
        <path id="Path_1998" data-name="Path 1998" d="M657.666,209l-.165,1.128-2.68-.445-.148,1.012,2.42.4-.164,1.12-2.421-.394-.149,1.02,2.753.457-.165,1.128-4.079-.677.791-5.414Z" transform="translate(-395.02 -120.638)" fill="#e1eff5"/>
        <path id="Path_1999" data-name="Path 1999" d="M670.145,216.472l-.521-1.621-.028,0-.957-.159-.219,1.5-1.326-.22.791-5.414,2.282.379a1.9,1.9,0,0,1,1.838,2.252,1.833,1.833,0,0,1-1.161,1.595l.8,1.944Zm-1.34-2.912.963.16a.757.757,0,0,0,.971-.7.78.78,0,0,0-.728-.96l-.963-.16Z" transform="translate(-403.628 -121.92)" fill="#e1eff5"/>
        <path id="Path_2133" data-name="Path 2133" d="M.064.01,2.329-.012,2.2,13.238l-2.265.021Z" transform="translate(255.462 34.266) rotate(-81.15)" fill="#c4e0e8"/>
        <path id="Path_2000" data-name="Path 2000" d="M471.061,110.359,428.9,120.337l-1.844-8.852a3.226,3.226,0,0,1,2.293-3.839l36.27-8.584a3.022,3.022,0,0,1,3.6,2.444Z" transform="translate(-258.345 -57.318)" fill="#ddd9da"/>
        <path id="Path_2001" data-name="Path 2001" d="M479.366,143.643l-12.17-17.37-12.717,3.009-16.253,3.847-12.718,3.009-4.129,21.227Z" transform="translate(-254.957 -73.118)" fill="#c4c0c1"/>
        <path id="Path_2002" data-name="Path 2002" d="M485.9,150.528a6.1,6.1,0,0,0-7.27-4.933A6.512,6.512,0,0,0,474,153.344a6.1,6.1,0,0,0,7.271,4.933,6.512,6.512,0,0,0,4.628-7.749" transform="translate(-286.709 -84.216)" fill="#86a2ce"/>
        <path id="Path_2003" data-name="Path 2003" d="M487.551,155.557a3.135,3.135,0,0,0-3.736-2.535A3.346,3.346,0,0,0,481.437,157a3.135,3.135,0,0,0,3.736,2.535,3.346,3.346,0,0,0,2.378-3.981" transform="translate(-291.249 -88.561)" fill="#6782b8"/>
        <path id="Path_2134" data-name="Path 2134" d="M.658.395,60.24-.433l-1.409,107.5-59.582.828Z" transform="translate(165.695 84.005) rotate(-12.519)" fill="#ddd9da"/>
        <path id="Path_2135" data-name="Path 2135" d="M.326.4,59.908-.43l-.7,53.5L-.376,53.9Z" transform="translate(171.044 108.054) rotate(-12.519)" fill="#6782b8"/>
        <path id="Path_2004" data-name="Path 2004" d="M516.584,317.561c-2.9,5.822-14.815,10.153-14.3-9.78.709-27.217-29.68,31.469-29.864,13-.11-11.087-7.917-3.478-14.688,6.369l7.567,36.324,57.986-13.723Z" transform="translate(-276.954 -173.975)" fill="#85a1f1"/>
        <path id="Path_2005" data-name="Path 2005" d="M735.576,75.343A18.869,18.869,0,0,0,717.5,65.969c-7.936.879-18.583,5.427-25.952,21.573l-20.614,45.165-4.672,10.236L652.49,173.113c-7.369,16.146-4.153,27.881.1,35.078a18.868,18.868,0,0,0,18.079,9.373c7.936-.879,18.583-5.427,25.952-21.572l13.769-30.169,4.672-10.236,20.613-45.165c7.369-16.146,4.153-27.881-.1-35.078" transform="translate(-392.132 -38.139)" fill="#ec9929"/>
        <path id="Path_2006" data-name="Path 2006" d="M745.677,75.358a19,19,0,0,0-16.326-9.467,19.6,19.6,0,0,1,2.1,2.9c4.25,7.2,7.465,18.933.1,35.078l-20.613,45.165-4.672,10.236L692.5,189.438c-7.369,16.146-18.016,20.693-25.952,21.573a17.268,17.268,0,0,1-1.754.093,18.64,18.64,0,0,0,15.976,6.475c7.936-.879,18.583-5.427,25.952-21.573l13.769-30.169L725.16,155.6l20.614-45.165c7.369-16.146,4.153-27.881-.1-35.078" transform="translate(-402.233 -38.154)" fill="#d68018"/>
        <path id="Path_2007" data-name="Path 2007" d="M762.63,220.651c1.879-.3,2.926-2.592,1.539-3.372a50.8,50.8,0,0,0-17.266-5.886,68.771,68.771,0,0,0-20.121.37c-1.879.3-2.926,2.592-1.539,3.372a50.8,50.8,0,0,0,17.266,5.886,68.772,68.772,0,0,0,20.121-.37" transform="translate(-438.425 -122.069)" fill="#f7d18c"/>
        <path id="Path_2008" data-name="Path 2008" d="M762.631,222.8a68.818,68.818,0,0,1-20.121.368,50.8,50.8,0,0,1-17.266-5.883c-1.012-.57-.728-1.945.231-2.765a1.245,1.245,0,0,0,.733.651,76.726,76.726,0,0,0,17.729,4.868,94.689,94.689,0,0,0,19.659.647,2.528,2.528,0,0,0,1.2-.366,2.5,2.5,0,0,1-2.162,2.48" transform="translate(-438.426 -124.218)" fill="#b46732"/>
        <path id="Path_2009" data-name="Path 2009" d="M788.948,168.646c1.745-.277,2.718-2.407,1.429-3.131a47.167,47.167,0,0,0-16.035-5.466,63.872,63.872,0,0,0-18.686.344c-1.745.277-2.718,2.407-1.429,3.132a47.184,47.184,0,0,0,16.035,5.466,63.872,63.872,0,0,0,18.686-.344" transform="translate(-455.989 -92.363)" fill="#f7d18c"/>
        <path id="Path_2010" data-name="Path 2010" d="M788.948,170.643a63.913,63.913,0,0,1-18.687.342,47.2,47.2,0,0,1-16.035-5.464c-.94-.53-.676-1.807.215-2.568a1.155,1.155,0,0,0,.681.6,71.228,71.228,0,0,0,16.465,4.521,87.921,87.921,0,0,0,18.256.6,2.344,2.344,0,0,0,1.112-.34,2.319,2.319,0,0,1-2.008,2.3" transform="translate(-455.99 -94.358)" fill="#b46732"/>
        <path id="Path_2011" data-name="Path 2011" d="M811,130.912c1.259-.2,1.961-1.737,1.031-2.26a34.023,34.023,0,0,0-11.571-3.944,46.094,46.094,0,0,0-13.485.248c-1.259.2-1.961,1.737-1.031,2.26a34.025,34.025,0,0,0,11.571,3.944A46.093,46.093,0,0,0,811,130.912" transform="translate(-475.282 -71.986)" fill="#f7d18c"/>
        <path id="Path_2012" data-name="Path 2012" d="M811.005,132.353a46.116,46.116,0,0,1-13.485.247,34.046,34.046,0,0,1-11.571-3.943c-.678-.382-.488-1.3.155-1.853a.834.834,0,0,0,.491.436,51.4,51.4,0,0,0,11.882,3.263,63.419,63.419,0,0,0,13.175.434,1.692,1.692,0,0,0,.8-.245,1.674,1.674,0,0,1-1.449,1.662" transform="translate(-475.283 -73.426)" fill="#b46732"/>
        <path id="Path_2013" data-name="Path 2013" d="M740.029,267.109c1.879-.3,2.926-2.592,1.539-3.372a50.8,50.8,0,0,0-17.266-5.886,68.772,68.772,0,0,0-20.121.37c-1.879.3-2.926,2.592-1.539,3.372a50.8,50.8,0,0,0,17.266,5.886,68.771,68.771,0,0,0,20.121-.37" transform="translate(-424.751 -148.971)" fill="#f7d18c"/>
        <path id="Path_2014" data-name="Path 2014" d="M740.031,269.257a68.817,68.817,0,0,1-20.121.368,50.8,50.8,0,0,1-17.266-5.883c-1.012-.57-.728-1.945.231-2.765a1.245,1.245,0,0,0,.733.651,76.726,76.726,0,0,0,17.729,4.868,94.659,94.659,0,0,0,19.659.647,2.527,2.527,0,0,0,1.2-.366,2.5,2.5,0,0,1-2.162,2.48" transform="translate(-424.752 -151.119)" fill="#b46732"/>
        <path id="Path_2015" data-name="Path 2015" d="M715.881,318.849c1.745-.276,2.718-2.407,1.429-3.131a47.157,47.157,0,0,0-16.035-5.466,63.855,63.855,0,0,0-18.686.344c-1.745.277-2.718,2.407-1.429,3.131a47.2,47.2,0,0,0,16.035,5.466,63.839,63.839,0,0,0,18.686-.344" transform="translate(-411.781 -179.338)" fill="#f7d18c"/>
        <path id="Path_2016" data-name="Path 2016" d="M715.882,320.845a63.914,63.914,0,0,1-18.686.342,47.183,47.183,0,0,1-16.034-5.464c-.94-.53-.677-1.806.215-2.567a1.157,1.157,0,0,0,.681.6,71.248,71.248,0,0,0,16.465,4.521,87.913,87.913,0,0,0,18.256.6,2.349,2.349,0,0,0,1.112-.34,2.319,2.319,0,0,1-2.008,2.3" transform="translate(-411.781 -181.332)" fill="#b46732"/>
        <path id="Path_2017" data-name="Path 2017" d="M695.992,367.344c1.26-.2,1.961-1.737,1.031-2.26a34.024,34.024,0,0,0-11.571-3.944,46.094,46.094,0,0,0-13.485.248c-1.259.2-1.961,1.737-1.031,2.26a34.041,34.041,0,0,0,11.571,3.944,46.108,46.108,0,0,0,13.484-.248" transform="translate(-405.694 -208.892)" fill="#f7d18c"/>
        <path id="Path_2018" data-name="Path 2018" d="M695.992,368.785a46.13,46.13,0,0,1-13.485.247,34.049,34.049,0,0,1-11.571-3.943c-.678-.382-.488-1.3.155-1.853a.835.835,0,0,0,.491.436,51.424,51.424,0,0,0,11.882,3.263,63.441,63.441,0,0,0,13.174.434,1.691,1.691,0,0,0,.8-.245,1.674,1.674,0,0,1-1.449,1.662" transform="translate(-405.694 -210.332)" fill="#b46732"/>
        <path id="Path_2019" data-name="Path 2019" d="M738.748,239.411s7.083,29.029-21.324,39.36c-39.764,14.461-24.844,52.438,19.11,32.6,49.339-22.264,21.474-78.46,21.474-78.46Z" transform="translate(-420.097 -134.869)" fill="#72258f"/>
        <path id="Path_2020" data-name="Path 2020" d="M758.1,232.915l-7.542,2.544a50.228,50.228,0,0,1,5.8,23.557c0,26.511-20.164,48-45.038,48a42.489,42.489,0,0,1-16.858-3.489c1.052,11.46,16.758,19.309,42.164,7.845,49.339-22.263,21.474-78.46,21.474-78.46" transform="translate(-420.184 -134.869)" fill="#5b1d77"/>
        <path id="Path_2021" data-name="Path 2021" d="M809.635,167.115a21.148,21.148,0,0,0,6.717,21.895,1.6,1.6,0,0,0,2.453-.16,1.986,1.986,0,0,0-.615-2.4,17.8,17.8,0,0,1-5.654-18.43,1.965,1.965,0,0,0-.833-2.322c-.763-.355-1.753.269-2.068,1.416" transform="translate(-489.404 -95.89)" fill="#68bd2c"/>
        <path id="Path_2022" data-name="Path 2022" d="M808.716,225.691l4.548,2.784,2.462-5.173,4.953,2.678.349-.119,2.191-4.6a10.685,10.685,0,0,0,5.587,1.963s-9.812-16.644-18.056-13.825c-7.916,2.707-6.1,22.026-6.1,22.026s3.195-2.947,4.062-5.73" transform="translate(-486.75 -121.064)" fill="#68bd2c"/>
        <path id="Path_2023" data-name="Path 2023" d="M835.63,223.22a10.665,10.665,0,0,1-5.583-1.965l-2.2,4.6-.343.114-1.972-1.062a48.233,48.233,0,0,0-9.784-14.483,5.536,5.536,0,0,1,1.822-1.039c8.241-2.821,18.057,13.832,18.057,13.832" transform="translate(-493.572 -121.06)" fill="#57a519"/>
        <path id="Path_2024" data-name="Path 2024" d="M733.412,366.758c.932,1.972-1.155,5.1-4.663,6.982s-7.107,1.813-8.04-.16,1.155-5.1,4.663-6.982,7.107-1.813,8.04.16" transform="translate(-435.933 -211.487)" fill="#fff"/>
        <path id="Path_2025" data-name="Path 2025" d="M761.671,354.16a2.186,2.186,0,0,1-1.292,2.716,2,2,0,0,1-2.548-1.377,2.186,2.186,0,0,1,1.292-2.716,2,2,0,0,1,2.548,1.377" transform="translate(-458.467 -204.216)" fill="#fff"/>
        <path id="Path_2026" data-name="Path 2026" d="M656.1,258.844h0c-10.468-6.171-14.26-20.217-8.471-31.374C658.1,233.641,661.891,247.687,656.1,258.844Z" transform="translate(-390.211 -131.716)" fill="#68bd2c"/>
        <path id="Path_2027" data-name="Path 2027" d="M649.814,231.281s-5.834,16.726,7.037,27.421c0,0-7.015-18.691-7.037-27.421" transform="translate(-392.374 -133.923)" fill="#90db56"/>
        <path id="Path_2028" data-name="Path 2028" d="M674.058,284.9h0c5-9.633,16.378-13.123,25.415-7.795C694.475,286.734,683.1,290.224,674.058,284.9Z" transform="translate(-407.841 -159.012)" fill="#68bd2c"/>
        <path id="Path_2029" data-name="Path 2029" d="M701.089,278.908s-13.549-5.369-22.213,6.475c0,0,15.141-6.456,22.213-6.475" transform="translate(-410.756 -160.799)" fill="#90db56"/>
        <path id="Path_2030" data-name="Path 2030" d="M646.4,298.291c-4-7.463-11.226-8.593-16-8.416a10,10,0,0,1-7.025-2.575c-3.658-3.267-10.009-7.116-17.468-3.853-11.707,5.122-23.328,56.656,5.991,51.585,20.19,23.221,40.772-25.028,34.5-36.742" transform="translate(-359.068 -163.412)" fill="#c32c3e"/>
        <g id="Group_1305" data-name="Group 1305" transform="translate(241.966 128.025)" opacity="0.52">
          <g id="Group_1304" data-name="Group 1304">
            <g id="Group_1303" data-name="Group 1303" clip-path="url(#clip-path-3)">
              <path id="Path_2031" data-name="Path 2031" d="M630.186,311.307a5.008,5.008,0,0,1-6.453,3.358,5.5,5.5,0,0,1-3.15-6.878,5.008,5.008,0,0,1,6.453-3.358,5.505,5.505,0,0,1,3.15,6.877" transform="translate(-617.283 -304.133)" fill="#fff"/>
              <path id="Path_2032" data-name="Path 2032" d="M615.742,339.283a1.565,1.565,0,0,1-2.017,1.049,1.721,1.721,0,0,1-.985-2.149,1.565,1.565,0,0,1,2.017-1.049,1.72,1.72,0,0,1,.984,2.149" transform="translate(-612.654 -323.189)" fill="#fff"/>
            </g>
          </g>
        </g>
        <path id="Path_2033" data-name="Path 2033" d="M672.362,302.828c.223-.692-1.913-1.327-4.5-2.274s-4.634-1.846-4.857-1.155,1.69,2.021,4.272,2.967,4.858,1.154,5.081.462" transform="translate(-401.145 -173.225)" fill="#911227"/>
        <path id="Path_2034" data-name="Path 2034" d="M678.99,264.651h0a2.749,2.749,0,0,1,1.3,3.99,120.152,120.152,0,0,0-7,12.876l-2.5-.917a55,55,0,0,1,5.211-14.762,2.452,2.452,0,0,1,3-1.188" transform="translate(-405.859 -153.161)" fill="#911227"/>
        <path id="Path_2035" data-name="Path 2035" d="M646.587,314.168a15.809,15.809,0,0,0-3.579-4.54c.018.461.033.923.033,1.388,0,17.442-13.266,31.581-29.63,31.581a28.5,28.5,0,0,1-19.649-7.951c.816,10.368,5.883,18.417,18.329,16.265,20.19,23.221,40.772-25.028,34.5-36.742" transform="translate(-359.256 -179.29)" fill="#ad1a33"/>
        <path id="Path_2036" data-name="Path 2036" d="M507.11,299.191l-13.549,16.6,63.413-.282Z" transform="translate(-298.63 -173.247)" fill="#fcab35"/>
        <path id="Path_2037" data-name="Path 2037" d="M493.561,338.229l.5,22.294,63.751,1.647-.839-24.224Z" transform="translate(-298.63 -195.688)" fill="#fcab35"/>
        <path id="Path_2038" data-name="Path 2038" d="M525.478,360.235c.053,2.349-2.652,4.324-6.042,4.41s-6.18-1.748-6.233-4.1,2.652-4.323,6.042-4.41,6.18,1.748,6.233,4.1" transform="translate(-310.514 -206.22)" fill="#ea8928"/>
        <path id="Path_2039" data-name="Path 2039" d="M525.479,364.212c.053,2.349-2.652,4.321-6.039,4.408s-6.181-1.746-6.233-4.1a3.086,3.086,0,0,1,.227-1.223c.792,1.736,3.17,2.959,5.951,2.889s5.1-1.414,5.813-3.188a3.083,3.083,0,0,1,.282,1.21" transform="translate(-310.516 -210.196)" fill="#c46b1a"/>
        <path id="Path_2040" data-name="Path 2040" d="M581.123,375.482c.035,1.547-2.039,2.856-4.632,2.922s-4.722-1.135-4.757-2.682,2.039-2.856,4.632-2.922,4.722,1.135,4.757,2.682" transform="translate(-345.929 -215.868)" fill="#ea8928"/>
        <path id="Path_2041" data-name="Path 2041" d="M581.12,378.034c.035,1.549-2.036,2.857-4.629,2.923s-4.725-1.135-4.76-2.684a1.8,1.8,0,0,1,.191-.84c.623,1.128,2.422,1.909,4.53,1.856s3.87-.926,4.438-2.084a1.794,1.794,0,0,1,.229.829" transform="translate(-345.928 -218.42)" fill="#c46b1a"/>
        <path id="Path_2042" data-name="Path 2042" d="M522.322,325.682c.021.951-1.327,1.758-3.012,1.8s-3.068-.693-3.089-1.645,1.327-1.758,3.012-1.8,3.068.694,3.089,1.645" transform="translate(-312.341 -187.632)" fill="#ea8928"/>
        <path id="Path_2043" data-name="Path 2043" d="M522.319,327.245c.021.952-1.326,1.759-3.01,1.8s-3.069-.694-3.09-1.646a1.06,1.06,0,0,1,.125-.517,4.113,4.113,0,0,0,5.828-.149,1.056,1.056,0,0,1,.148.509" transform="translate(-312.339 -189.196)" fill="#c46b1a"/>
        <path id="Path_2044" data-name="Path 2044" d="M546.1,312.138c.016.718-1.173,1.33-2.656,1.368s-2.7-.514-2.714-1.231,1.173-1.33,2.656-1.368,2.7.513,2.714,1.231" transform="translate(-327.172 -180.03)" fill="#ea8928"/>
        <path id="Path_2045" data-name="Path 2045" d="M546.1,313.306c.016.718-1.172,1.331-2.654,1.368s-2.7-.513-2.716-1.232a.711.711,0,0,1,.111-.39,4.059,4.059,0,0,0,5.13-.131.713.713,0,0,1,.129.384" transform="translate(-327.171 -181.197)" fill="#c46b1a"/>
        <path id="Path_2046" data-name="Path 2046" d="M579.717,324.814c.023,1.011-1.652,1.873-3.74,1.926s-3.8-.723-3.822-1.733,1.652-1.873,3.74-1.926,3.8.723,3.822,1.733" transform="translate(-346.184 -187.078)" fill="#ea8928"/>
        <path id="Path_2047" data-name="Path 2047" d="M579.714,326.459c.023,1.012-1.65,1.874-3.738,1.927s-3.8-.723-3.824-1.734a1.006,1.006,0,0,1,.157-.549c.5.734,1.944,1.238,3.642,1.194s3.12-.62,3.581-1.379a1,1,0,0,1,.181.54" transform="translate(-346.183 -188.723)" fill="#c46b1a"/>
        <path id="Path_2048" data-name="Path 2048" d="M575.956,350.172c.027,1.228-1.363,2.259-3.107,2.3s-3.179-.915-3.207-2.143,1.363-2.259,3.107-2.3,3.179.915,3.207,2.143" transform="translate(-344.664 -201.525)" fill="#ea8928"/>
        <path id="Path_2049" data-name="Path 2049" d="M576.068,352.684c.026,1.155-1.282,2.122-2.917,2.163s-2.985-.857-3.01-2.012a1.5,1.5,0,0,1,.1-.564,3.436,3.436,0,0,0,5.707-.146,1.5,1.5,0,0,1,.122.558" transform="translate(-344.965 -203.898)" fill="#c46b1a"/>
        <path id="Path_2050" data-name="Path 2050" d="M626.992,358.1c.053,2.361-2.659,4.345-6.058,4.431s-6.2-1.757-6.249-4.118,2.659-4.345,6.058-4.431,6.2,1.757,6.249,4.118" transform="translate(-371.916 -204.97)" fill="#ea8928"/>
        <path id="Path_2051" data-name="Path 2051" d="M626.989,362.167c.053,2.362-2.659,4.348-6.058,4.434s-6.2-1.758-6.25-4.121a3.051,3.051,0,0,1,.209-1.171c.773,1.773,3.178,3.026,5.989,2.954s5.16-1.446,5.85-3.256a3.041,3.041,0,0,1,.261,1.159" transform="translate(-371.914 -209.042)" fill="#c46b1a"/>
        <path id="Path_2052" data-name="Path 2052" d="M556.973,337.947l-63.413.282.057,2.552Z" transform="translate(-298.63 -195.688)" fill="#f9dd67"/>
        <path id="Path_2053" data-name="Path 2053" d="M611.565,381.012,599.21,523.332h-131.1L455.753,381l5.9,1.886,7.962-3.6,7.954,3.6,7.954-3.6,7.954,3.6,7.954-3.6,7.954,3.6,7.962-3.6,7.954,3.6,7.954-3.6,7.953,3.6,7.962-3.6,7.954,3.6,8.352-3.945,8.361,3.945,7.963-3.6,7.954,3.6,7.954-3.6,7.954,3.6Z" transform="translate(-275.755 -219.428)" fill="#cc8656"/>
        <path id="Path_2054" data-name="Path 2054" d="M777.628,523.8l12.355-142.32-5.9,1.878-7.954-3.6-7.954,3.6-7.954-3.6L750.634,523.8Z" transform="translate(-454.173 -219.896)" fill="#bc7646"/>
        <path id="Path_2055" data-name="Path 2055" d="M468.108,526.165h6.568L461.655,385.723l-5.9-1.886Z" transform="translate(-275.755 -222.261)" fill="#e29661"/>
        <path id="Path_2056" data-name="Path 2056" d="M749.587,478.43s16.673-18.886,5.1-34.885A307.584,307.584,0,0,1,735.7,413.971s-15.081,43.306,13.883,64.459" transform="translate(-442.765 -239.71)" fill="#68bd2c"/>
        <path id="Path_2057" data-name="Path 2057" d="M831.811,472.377c-6.784,8.036-15.877,11.1-20.31,6.854s-2.527-14.212,4.257-22.249c14.848-17.589,29.9-18.212,29.9-18.212s3.254,13.352-13.845,33.606" transform="translate(-489.554 -254.07)" fill="#68bd2c"/>
        <path id="Path_2058" data-name="Path 2058" d="M817.143,572.23c-8.176,3.458-16.634,4.7-19.816.264-3.19-4.353,2.016-14.313,12.891-18.974,11.848-5.01,21.366-3.614,27.207-1.562a22.732,22.732,0,0,1,8.341,4.9,26.56,26.56,0,0,1-6.6,5.071c-4.583,2.817-11.6,5.929-22.024,10.307" transform="translate(-481.863 -318.529)" fill="#68bd2c"/>
        <path id="Path_2059" data-name="Path 2059" d="M767.639,543.587a.876.876,0,0,1-.291-.489c-2.542-11.878,3.829-28.479,18.936-49.344a262.537,262.537,0,0,1,23.368-27.723.778.778,0,0,1,1.148.037.905.905,0,0,1-.034,1.223c-.477.479-47.654,48.223-41.833,75.421a.869.869,0,0,1-.611,1.037.773.773,0,0,1-.682-.162" transform="translate(-463.957 -269.719)" fill="#4b8a4b"/>
        <path id="Path_2060" data-name="Path 2060" d="M769.5,590.5a.905.905,0,0,1-.164-1.18c.43-.651,10.875-15.988,41.248-20.114a.824.824,0,0,1,.909.749.858.858,0,0,1-.7.969c-29.669,4.031-40.024,19.239-40.125,19.392a.781.781,0,0,1-1.132.21l-.033-.027" transform="translate(-465.399 -329.598)" fill="#4b8a4b"/>
        <path id="Path_2061" data-name="Path 2061" d="M763.446,520.281a.885.885,0,0,1-.312-.663c-.007-.3-.743-29.824-9.848-51.465a.891.891,0,0,1,.409-1.145.8.8,0,0,1,1.074.436c9.24,21.965,9.982,51.835,9.989,52.134a.844.844,0,0,1-.794.886.779.779,0,0,1-.518-.184" transform="translate(-455.735 -270.377)" fill="#4b8a4b"/>
        <path id="Path_2062" data-name="Path 2062" d="M842.293,448.52s-26.424,13.595-25.675,27.33c0,0,20.224-23.182,25.675-27.33" transform="translate(-494.088 -259.715)" fill="#90db56"/>
        <path id="Path_2063" data-name="Path 2063" d="M807.762,564.537S824,549.151,843.5,557.566c0,0-19-2.163-35.735,6.971" transform="translate(-488.739 -321.401)" fill="#90db56"/>
        <path id="Path_2064" data-name="Path 2064" d="M740.6,443.4c0-.694-7.323,26.919,9.517,45.236,0,0-9.432-27.316-9.517-45.236" transform="translate(-447.144 -256.744)" fill="#90db56"/>
        <path id="Path_2065" data-name="Path 2065" d="M574.369,547.031h0c-13.327,0-24.132-11.515-24.132-25.72h0C563.565,521.311,574.369,532.826,574.369,547.031Z" transform="translate(-332.923 -301.865)" fill="#68bd2c"/>
        <path id="Path_2066" data-name="Path 2066" d="M552.344,525s2.774,19.66,20.734,22.69c0,0-16.3-14.191-20.734-22.69" transform="translate(-334.197 -304)" fill="#90db56"/>
        <path id="Path_2067" data-name="Path 2067" d="M614.5,555.267h0c0-10.9,8.29-19.734,18.515-19.734h0c0,10.9-8.29,19.734-18.515,19.734Z" transform="translate(-371.804 -310.1)" fill="#68bd2c"/>
        <path id="Path_2068" data-name="Path 2068" d="M633.527,537.149s-14.152,2.268-16.334,16.955c0,0,10.215-13.326,16.334-16.955" transform="translate(-373.434 -311.036)" fill="#90db56"/>
        <path id="Path_2069" data-name="Path 2069" d="M600.813,607.3c0,17.573-13.365,32.483-29.853,32.483s-29.853-14.91-29.853-32.483,13.365-28.048,29.853-28.048,29.853,10.476,29.853,28.048" transform="translate(-327.398 -335.416)" fill="#fcab35"/>
        <path id="Path_2070" data-name="Path 2070" d="M598.53,591.2a28.008,28.008,0,0,1,4.3,15.439c0,17.573-13.366,32.483-29.853,32.483a27.74,27.74,0,0,1-16-5.154c5.462,7.681,13.991,12.733,23.582,12.733,16.487,0,29.853-14.91,29.853-32.483,0-10.384-4.669-18.287-11.889-23.018" transform="translate(-337.005 -342.335)" fill="#f29922"/>
        <g id="Group_1308" data-name="Group 1308" transform="translate(217.153 251.879)" opacity="0.33">
          <g id="Group_1307" data-name="Group 1307">
            <g id="Group_1306" data-name="Group 1306" clip-path="url(#clip-path-4)">
              <path id="Path_2071" data-name="Path 2071" d="M571.5,611.6c-2.832,4.684-7.672,6.733-10.811,4.577s-3.388-7.7-.556-12.384,7.672-6.733,10.811-4.577,3.387,7.7.556,12.384" transform="translate(-554.869 -598.359)" fill="#fff"/>
              <path id="Path_2072" data-name="Path 2072" d="M555.052,647.936a2.617,2.617,0,1,1-2.612-2.784,2.7,2.7,0,0,1,2.612,2.784" transform="translate(-549.827 -625.455)" fill="#fff"/>
            </g>
          </g>
        </g>
        <path id="Path_2073" data-name="Path 2073" d="M613.4,583.986c0-.837-2.453-1.515-5.479-1.515s-5.478.678-5.478,1.515,2.453,1.515,5.478,1.515,5.479-.678,5.479-1.515" transform="translate(-364.51 -337.28)" fill="#c96912"/>
        <path id="Path_2074" data-name="Path 2074" d="M610.643,553.417a.694.694,0,0,0,.633-.894,29.23,29.23,0,0,1,.864-17.794,4.309,4.309,0,0,0-1.694-5.313c-1.761-.921-4.134.607-4.647,3.343a34.881,34.881,0,0,0,2.2,20.252.658.658,0,0,0,.6.406Z" transform="translate(-366.17 -306.402)" fill="#872f17"/>
        <path id="Path_2075" data-name="Path 2075" d="M762.647,652.512c0,10.386-7.9,18.805-17.643,18.805H675.613c9.745,0,17.643-8.419,17.643-18.805s-7.9-18.8-17.643-18.8H745c9.744,0,17.643,8.418,17.643,18.8" transform="translate(-408.782 -366.95)" fill="#c32c3e"/>
        <path id="Path_2076" data-name="Path 2076" d="M691.17,699.44a17.523,17.523,0,0,1-15.558,9.938H745a17.524,17.524,0,0,0,15.558-9.938Z" transform="translate(-408.781 -405.011)" fill="#ad1a33"/>
        <path id="Path_2077" data-name="Path 2077" d="M666.228,652.513c0,10.385-7.9,18.8-17.642,18.8s-17.642-8.419-17.642-18.8,7.9-18.8,17.642-18.8,17.642,8.418,17.642,18.8" transform="translate(-381.754 -366.95)" fill="#ed9494"/>
        <path id="Path_2078" data-name="Path 2078" d="M650.256,661.206a3.894,3.894,0,1,1-3.887-4.142,4.021,4.021,0,0,1,3.887,4.142" transform="translate(-388.736 -380.473)" fill="#c32c3e"/>
        <path id="Path_2079" data-name="Path 2079" d="M665.137,697.722a2.873,2.873,0,1,1-2.867-3.056,2.966,2.966,0,0,1,2.867,3.056" transform="translate(-398.974 -402.246)" fill="#c32c3e"/>
        <path id="Path_2080" data-name="Path 2080" d="M698.221,683.711a2.6,2.6,0,1,1-2.594-2.765,2.683,2.683,0,0,1,2.594,2.765" transform="translate(-419.321 -394.302)" fill="#c32c3e"/>
        <path id="Path_2081" data-name="Path 2081" d="M690.8,653.038a2.559,2.559,0,1,1-2.554-2.722,2.642,2.642,0,0,1,2.554,2.722" transform="translate(-414.879 -376.565)" fill="#c32c3e"/>
        <path id="Path_2082" data-name="Path 2082" d="M675.412,674.466a2.966,2.966,0,1,1-2.96-3.156,3.062,3.062,0,0,1,2.96,3.156" transform="translate(-405.078 -388.722)" fill="#c32c3e"/>
        <path id="Path_2083" data-name="Path 2083" d="M689.836,702.994a1.411,1.411,0,1,1-1.408-1.5,1.457,1.457,0,0,1,1.408,1.5" transform="translate(-415.684 -406.199)" fill="#c32c3e"/>
        <path id="Path_2084" data-name="Path 2084" d="M668.133,645.1a2.657,2.657,0,1,1-2.652-2.827,2.743,2.743,0,0,1,2.652,2.827" transform="translate(-401.047 -371.906)" fill="#c32c3e"/>
        <path id="Path_2085" data-name="Path 2085" d="M643.338,689.163a1.619,1.619,0,1,1-1.615-1.722,1.671,1.671,0,0,1,1.615,1.722" transform="translate(-387.299 -398.062)" fill="#c32c3e"/>
        <path id="Path_2086" data-name="Path 2086" d="M708.992,670.278a1.445,1.445,0,1,1-1.443-1.537,1.492,1.492,0,0,1,1.443,1.537" transform="translate(-427.232 -387.234)" fill="#c32c3e"/>
        <path id="Path_2087" data-name="Path 2087" d="M775.571,642.952H724.162a.414.414,0,0,0-.4.425v2.878a.414.414,0,0,0,.4.426h51.409a.414.414,0,0,0,.4-.426v-2.878a.414.414,0,0,0-.4-.425" transform="translate(-437.915 -372.301)" fill="#ed9494"/>
        <path id="Path_2088" data-name="Path 2088" d="M460.663,398.861h0a9.288,9.288,0,0,0-13.727,0l-13.3,14.173a10.832,10.832,0,0,0,0,14.63,9.288,9.288,0,0,0,13.727,0l13.3-14.173a10.833,10.833,0,0,0,0-14.631" transform="translate(-260.654 -229.206)" fill="#f6a772"/>
        <path id="Path_2089" data-name="Path 2089" d="M433.836,430.636c-.746.967-1.294,5.349-1.661,6.48l.105,7.1a10.391,10.391,0,0,0,2.193,3.606h0a9.289,9.289,0,0,0,13.727,0l11.168-11.9Z" transform="translate(-261.489 -249.36)" fill="#e28e57"/>
        <path id="Path_2090" data-name="Path 2090" d="M156.01,545.21a31.338,31.338,0,0,1-15.873,15.32,20.082,20.082,0,0,0-11.3,13.464l-9.579,36.269H46.616l28.539-91.452a68.852,68.852,0,0,0,2.5-11.2c1.863-13.558,4.244-46.22,20.272-67.626,15.785-1,28.208,11.337,37.027,16.742,3.384,17.376,21.054,88.48,21.054,88.48" transform="translate(-28.205 -254.742)" fill="#f6a772"/>
        <rect id="Rectangle_712" data-name="Rectangle 712" width="86.188" height="187.113" rx="13" transform="translate(99.219 112.998)"/>
        <path id="Path_2091" data-name="Path 2091" d="M270.562,469.595h56.45c8.2,0,14.869-7.11,14.869-15.848V298.329a16.65,16.65,0,0,0-.989-5.637L258.612,463.137a14.572,14.572,0,0,0,11.95,6.457" transform="translate(-156.474 -169.484)"/>
        <path id="Path_2092" data-name="Path 2092" d="M249.924,455.841h-.583a.273.273,0,0,1-.264-.281V442a.273.273,0,0,1,.264-.281h.583Z" transform="translate(-150.705 -255.778)" fill="#4d5151"/>
        <path id="Path_2093" data-name="Path 2093" d="M249.924,413.76h-.583a.273.273,0,0,1-.264-.281V399.92a.273.273,0,0,1,.264-.281h.583Z" transform="translate(-150.705 -231.411)" fill="#4d5151"/>
        <path id="Path_2094" data-name="Path 2094" d="M249.924,375.59h-.583a.273.273,0,0,1-.264-.281v-6.531a.273.273,0,0,1,.264-.281h.583Z" transform="translate(-150.705 -213.378)" fill="#4d5151"/>
        <path id="Path_2095" data-name="Path 2095" d="M330.738,282.38H318.447a1.062,1.062,0,0,0-1.026,1.094v1.555a3.446,3.446,0,0,1-3.331,3.55H289.595a3.446,3.446,0,0,1-3.331-3.55v-1.555a1.062,1.062,0,0,0-1.026-1.094h-12.38c-5.119,0-9.269,4.423-9.269,9.879V447.873c0,5.456,4.15,9.879,9.269,9.879h57.881c5.119,0,9.269-4.423,9.269-9.879V292.259c0-5.456-4.15-9.879-9.269-9.879" transform="translate(-159.485 -163.512)" fill="#fff"/>
        <path id="Path_2096" data-name="Path 2096" d="M340.008,327.641V292.259c0-5.456-4.15-9.879-9.269-9.879h-12.29a1.062,1.062,0,0,0-1.027,1.094v1.555a3.446,3.446,0,0,1-3.331,3.55H289.6a3.446,3.446,0,0,1-3.331-3.55v-1.555a1.062,1.062,0,0,0-1.027-1.094h-12.38c-5.119,0-9.269,4.423-9.269,9.879v35.382Z" transform="translate(-159.485 -163.512)" fill="#fb133b"/>
        <rect id="Rectangle_713" data-name="Rectangle 713" width="27.044" height="25.7" transform="translate(111.815 175.861)" fill="#fcab35"/>
        <rect id="Rectangle_714" data-name="Rectangle 714" width="27.044" height="25.7" transform="translate(145.886 175.861)" fill="#ff9eae"/>
        <rect id="Rectangle_715" data-name="Rectangle 715" width="27.044" height="2.755" transform="translate(111.815 208.221)" fill="#dbd7d7"/>
        <rect id="Rectangle_716" data-name="Rectangle 716" width="27.044" height="2.755" transform="translate(145.886 208.221)" fill="#dbd7d7"/>
        <rect id="Rectangle_717" data-name="Rectangle 717" width="27.044" height="25.7" transform="translate(111.815 219.438)" fill="#ff9eae"/>
        <rect id="Rectangle_718" data-name="Rectangle 718" width="27.044" height="25.7" transform="translate(145.886 219.438)" fill="#fcab35"/>
        <rect id="Rectangle_719" data-name="Rectangle 719" width="27.044" height="2.755" transform="translate(111.815 251.798)" fill="#dbd7d7"/>
        <rect id="Rectangle_720" data-name="Rectangle 720" width="27.044" height="2.755" transform="translate(145.886 251.798)" fill="#dbd7d7"/>
        <path id="Path_2097" data-name="Path 2097" d="M346.37,632.329H299.7a1.679,1.679,0,0,0-1.623,1.73v11.7a1.679,1.679,0,0,0,1.623,1.73H346.37a1.679,1.679,0,0,0,1.623-1.73v-11.7a1.679,1.679,0,0,0-1.623-1.73" transform="translate(-180.355 -366.15)" fill="#fb133b"/>
      </g>
    </g>
    <text id="BUY" transform="translate(137.712 273.224)" fill="#fff" font-size="3" font-family="SegoeUI, Segoe UI"><tspan x="0" y="0">BUY</tspan></text>
    <text id="Grocery" transform="translate(124.175 140.53)" fill="#fff" font-size="7" font-family="SegoeUI, Segoe UI"><tspan x="0" y="0">G</tspan><tspan y="0" letter-spacing="-0.009em">r</tspan><tspan y="0">o</tspan><tspan y="0" letter-spacing="-0.005em">c</tspan><tspan y="0">e</tspan><tspan y="0" letter-spacing="0.025em">r</tspan><tspan y="0">y</tspan></text>
    <text id="Sale" transform="translate(133.391 152.431)" fill="#fff" font-size="7" font-family="SegoeUI, Segoe UI"><tspan x="0" y="0" letter-spacing="0.002em">S</tspan><tspan y="0">ale</tspan></text>
    <g id="Group_1321" data-name="Group 1321">
      <g id="Group_1320" data-name="Group 1320" clip-path="url(#clip-path-2)">
        <path id="Path_2098" data-name="Path 2098" d="M462.5,564.635v4.854a7.106,7.106,0,0,1-1.445,4.319l-4.961,7.056a8.682,8.682,0,0,0,.731,11.316,7.447,7.447,0,0,0,11.12-.593l5.9-7.474a8.268,8.268,0,0,0-1.216-11.664Z" transform="translate(-274.897 -326.952)" fill="#f6a772"/>
        <g id="Group_1313" data-name="Group 1313" transform="translate(184.885 252.865)" opacity="0.33">
          <g id="Group_1312" data-name="Group 1312">
            <g id="Group_1311" data-name="Group 1311" clip-path="url(#clip-path-6)">
              <path id="Path_2099" data-name="Path 2099" d="M468.352,603.477c1.423,1.182,4.855,4.356,5.846,8.213a.569.569,0,0,0,1.01.233c1.577-2.052,4.715-6.912,1.616-9.779s-6.925-.74-8.436.327a.644.644,0,0,0-.037,1.006" transform="translate(-468.127 -600.699)" fill="#fff"/>
            </g>
          </g>
        </g>
        <path id="Path_2100" data-name="Path 2100" d="M208.425,332.171c.607-10.656-6.711-24.812-13.836-23.847s-4.61,22.058-25.179,49.706a100.077,100.077,0,0,0-10.677,17.392c11.693,5.408,27.2,5.881,36.589,10.065-.378-1.169,12.5-42.66,13.1-53.316" transform="translate(-96.042 -178.508)" fill="#f6a772"/>
        <path id="Path_2101" data-name="Path 2101" d="M454.645,503.757V509.7a8.7,8.7,0,0,1-1.77,5.289l-6.076,8.642a10.634,10.634,0,0,0,.9,13.86,9.121,9.121,0,0,0,13.619-.726l7.222-9.154a10.127,10.127,0,0,0-1.49-14.286Z" transform="translate(-269.037 -291.7)" fill="#f6a772"/>
        <g id="Group_1316" data-name="Group 1316" transform="translate(181.458 230.472)" opacity="0.33">
          <g id="Group_1315" data-name="Group 1315">
            <g id="Group_1314" data-name="Group 1314" clip-path="url(#clip-path-7)">
              <path id="Path_2102" data-name="Path 2102" d="M459.725,550.905c1.743,1.447,5.946,5.334,7.16,10.059a.7.7,0,0,0,1.237.285c1.932-2.513,5.775-8.466,1.98-11.977-3.812-3.528-8.482-.907-10.333.4a.788.788,0,0,0-.045,1.232" transform="translate(-459.45 -547.503)" fill="#fff"/>
            </g>
          </g>
        </g>
        <path id="Path_2103" data-name="Path 2103" d="M453.909,442.868v6.022a8.82,8.82,0,0,1-1.793,5.359L445.96,463a10.773,10.773,0,0,0,.908,14.042h0a9.24,9.24,0,0,0,13.8-.735l7.316-9.274a10.259,10.259,0,0,0-1.509-14.473Z" transform="translate(-268.513 -256.443)" fill="#f6a772"/>
        <g id="Group_1319" data-name="Group 1319" transform="translate(181.828 205.077)" opacity="0.33">
          <g id="Group_1318" data-name="Group 1318">
            <g id="Group_1317" data-name="Group 1317" clip-path="url(#clip-path-8)">
              <path id="Path_2104" data-name="Path 2104" d="M460.664,490.624c1.766,1.466,6.025,5.4,7.254,10.191a.706.706,0,0,0,1.254.289c1.957-2.546,5.85-8.577,2.006-12.134-3.862-3.574-8.593-.919-10.468.406a.8.8,0,0,0-.045,1.248" transform="translate(-460.386 -487.178)" fill="#fff"/>
            </g>
          </g>
        </g>
        <path id="Path_2105" data-name="Path 2105" d="M475.67,578.595c-3.445,3.239-9.336,7.916-14.656,7.927l2.929-4.162a.492.492,0,0,0,.131.012,9.244,9.244,0,0,0,7.142-3.438l1.854-2.35Z" transform="translate(-278.938 -333.871)" fill="#e28e57"/>
        <path id="Path_2106" data-name="Path 2106" d="M473.362,520.016l-2.3-1.778-1.35,1.714a9.4,9.4,0,0,1-7.241,3.485,9.053,9.053,0,0,1-1.072-.071l-.007.011-2.667,3.793c6.778.547,11.862-3.89,14.64-7.154" transform="translate(-277.551 -300.086)" fill="#e28e57"/>
        <path id="Path_2107" data-name="Path 2107" d="M223.765,578.53c-8.2,0-14.875-7.113-14.875-15.843V480.822c-3.681,23.431-16.191,61.908-10.659,97.989l-16.966,55.129h19.463l6.912-26.169h0l2.669-10.1c.17-.648.384-1.276.61-1.9.074-.2.144-.4.224-.6.183-.459.389-.9.6-1.345q.285-.582.6-1.145a19.541,19.541,0,0,1,9.255-8.484,31.034,31.034,0,0,0,8.751-5.679Z" transform="translate(-109.675 -278.42)" fill="#e28e57"/>
        <path id="Path_2108" data-name="Path 2108" d="M242.606,74.692c0,17.28-13.143,31.288-29.356,31.288S183.9,91.972,183.9,74.692,197.038,43.4,213.251,43.4s29.356,14.008,29.356,31.288" transform="translate(-111.266 -25.133)" fill="#ff9eae"/>
        <path id="Path_2109" data-name="Path 2109" d="M233.726,99.753c0,3.586-1.952,5.831-5.034,5.831s-5.034-2.245-5.034-5.831c0-3.559,1.953-5.8,5.034-5.8s5.034,2.245,5.034,5.8m-7.166,0c0,1.97.8,3.176,2.132,3.176s2.132-1.205,2.132-3.176-.8-3.149-2.132-3.149-2.132,1.177-2.132,3.149m18-5.722-12.816,19.19h-4.29l12.816-19.19Zm3.9,13.469c0,3.586-1.952,5.831-5.034,5.831s-5.034-2.245-5.034-5.831c0-3.559,1.953-5.8,5.034-5.8s5.034,2.245,5.034,5.8m-7.166,0c0,1.971.8,3.176,2.131,3.176s2.132-1.2,2.132-3.176-.8-3.148-2.132-3.148-2.131,1.177-2.131,3.148" transform="translate(-135.325 -54.401)" fill="#fff"/>
        <path id="Path_2110" data-name="Path 2110" d="M936.43,343.532c0,13.7-10.419,24.8-23.272,24.8s-23.272-11.105-23.272-24.8,10.42-24.8,23.272-24.8,23.272,11.105,23.272,24.8" transform="translate(-538.427 -184.559)" fill="#ff9eae"/>
        <path id="Path_2111" data-name="Path 2111" d="M939.521,368.766v3.976h-3.244v-4a12.214,12.214,0,0,1-6.143-2.782l1.729-3.716a10.567,10.567,0,0,0,6.2,2.756c1.316,0,2.147-.521,2.147-1.483,0-3.092-9-1.221-9-7.666,0-2.886,1.95-4.886,5.071-5.432V346.6h3.244v3.794a12.12,12.12,0,0,1,5.339,1.95l-1.682,3.768a12.733,12.733,0,0,0-5.511-1.949c-1.072,0-1.779.416-1.779,1.248,0,3.014,9,1.3,9,7.849,0,3.2-2.293,5.069-5.365,5.51" transform="translate(-562.78 -200.696)" fill="#fff"/>
        <path id="Path_2112" data-name="Path 2112" d="M942.885,219.634a4.925,4.925,0,0,0-7.285,0l-.634.676-.634-.676a4.93,4.93,0,0,0-7.535.292,5.866,5.866,0,0,0,.365,7.585l.525.559,5.018,5.348a3.069,3.069,0,0,0,4.535,0l5.013-5.343.634-.681a5.745,5.745,0,0,0,0-7.76" transform="translate(-560.023 -126.247)" fill="#fb133b"/>
        <path id="Path_2113" data-name="Path 2113" d="M468.179,1.677a5.133,5.133,0,0,0-7.591,0l-.66.7-.66-.7a5.138,5.138,0,0,0-7.852.3,6.113,6.113,0,0,0,.38,7.9l.546.583,5.229,5.573a3.2,3.2,0,0,0,4.725,0l5.224-5.567.66-.71a5.986,5.986,0,0,0,0-8.085" transform="translate(-272.361)" fill="#fb133b"/>
        <path id="Path_2114" data-name="Path 2114" d="M67.963,510.446a6.105,6.105,0,0,0-9.029,0l-.786.837-.786-.837a6.111,6.111,0,0,0-9.339.362,7.271,7.271,0,0,0,.452,9.4l.65.693,6.219,6.628a3.8,3.8,0,0,0,5.62,0l6.213-6.622.786-.844a7.12,7.12,0,0,0,0-9.617" transform="translate(-28.142 -294.418)" fill="#fb133b"/>
        <path id="Path_2115" data-name="Path 2115" d="M64.316,292.893c0,17.762-13.559,32.214-30.225,32.214S3.866,310.656,3.866,292.893s13.559-32.215,30.224-32.215a29.066,29.066,0,0,1,18.281,6.561H42.549v4.121H58.276V254.6H54.409v9.126a32.763,32.763,0,0,0-20.319-7.167c-18.8,0-34.09,16.3-34.09,36.335s15.293,36.335,34.09,36.335,34.091-16.3,34.091-36.335Z" transform="translate(0 -147.425)" fill="#fb133b"/>
        <path id="Path_2116" data-name="Path 2116" d="M42.063,333.354c0-.734-.526-1.159-1.45-1.159a5.829,5.829,0,0,0-3.515,1.719l-1.25-2.607a8.6,8.6,0,0,1,5.255-2.047c2.573,0,4.44,1.429,4.44,3.573,0,1.468-1.051,2.994-2.465,4.519l-2.609,2.781H45.9v2.84H36.228l-.018-2.337,4.621-5.061a4.113,4.113,0,0,0,1.232-2.221" transform="translate(-21.689 -190.657)" fill="#ff9eae"/>
        <path id="Path_2117" data-name="Path 2117" d="M71.214,329.626l-3.534,7.938h2.374l-.018-2.858H73.08v2.858h1.631v2.685H73.08v2.936H70.036v-2.936H64.291v-2.375l3.769-8.247Z" transform="translate(-38.9 -190.87)" fill="#ff9eae"/>
        <path id="Path_2118" data-name="Path 2118" d="M98.157,324.67l-5.871,17.77H89.568l5.871-17.77Z" transform="translate(-54.193 -188)" fill="#ff9eae"/>
        <path id="Path_2119" data-name="Path 2119" d="M119.425,329.626v2.453l-4.784,11.106h-3.5l4.639-10.7h-3.552v1.893h-2.936v-4.751Z" transform="translate(-66.129 -190.87)" fill="#ff9eae"/>
        <path id="Path_2120" data-name="Path 2120" d="M137.435,284.252h-.214l.214-.273Z" transform="translate(-83.026 -164.438)" fill="#ea5044"/>
      </g>
    </g>
  </g>
</svg>
