<svg xmlns="http://www.w3.org/2000/svg" width="97.8" height="104.703" viewBox="0 0 97.8 104.703">
  <g id="Group_1747" data-name="Group 1747" transform="translate(-3395.27 -1575.042)">
    <text id="Shop_Now" data-name="Shop Now" transform="translate(3402.65 1677.746)" fill="#fff" font-size="5" font-family="SegoeUI, Segoe UI"><tspan x="0" y="0">Shop Now</tspan></text>
    <path id="Path_3401" data-name="Path 3401" d="M55,40.347H51.586V36.929H48.348v3.418H44.93v3.238h3.418V47h3.238V43.585H55Z" transform="translate(3363.3 1542.109)" fill="#fcbb53"/>
    <path id="Path_3402" data-name="Path 3402" d="M144.767,91.109h-3.418V87.691h-3.238v3.418h-3.418v3.238h3.418v3.418h3.238V94.347h3.418Z" transform="translate(3347.771 1533.327)" fill="#fcbb53"/>
    <path id="Path_3403" data-name="Path 3403" d="M30.533,79.8a.638.638,0,1,1-.638-.638.637.637,0,0,1,.638.638" transform="translate(3366.012 1534.802)" fill="#364f6b"/>
    <path id="Path_3404" data-name="Path 3404" d="M30.533,89.033a.638.638,0,1,1-.638-.638.637.637,0,0,1,.638.638" transform="translate(3366.012 1533.205)" fill="#364f6b"/>
    <path id="Path_3405" data-name="Path 3405" d="M30.533,98.264a.638.638,0,1,1-.638-.638.637.637,0,0,1,.638.638" transform="translate(3366.012 1531.608)" fill="#364f6b"/>
    <path id="Path_3406" data-name="Path 3406" d="M30.533,107.495a.638.638,0,1,1-.638-.638.637.637,0,0,1,.638.638" transform="translate(3366.012 1530.011)" fill="#364f6b"/>
    <path id="Path_3407" data-name="Path 3407" d="M38.652,79.8a.638.638,0,1,1-.638-.638.637.637,0,0,1,.638.638" transform="translate(3364.607 1534.802)" fill="#364f6b"/>
    <path id="Path_3408" data-name="Path 3408" d="M38.652,89.033a.638.638,0,1,1-.638-.638.637.637,0,0,1,.638.638" transform="translate(3364.607 1533.205)" fill="#364f6b"/>
    <path id="Path_3409" data-name="Path 3409" d="M38.652,98.264a.638.638,0,1,1-.638-.638.637.637,0,0,1,.638.638" transform="translate(3364.607 1531.608)" fill="#364f6b"/>
    <path id="Path_3410" data-name="Path 3410" d="M38.652,107.495a.638.638,0,1,1-.638-.638.637.637,0,0,1,.638.638" transform="translate(3364.607 1530.011)" fill="#364f6b"/>
    <path id="Path_3411" data-name="Path 3411" d="M95.729,40.218a.638.638,0,1,1-.638.638.637.637,0,0,1,.638-.638" transform="translate(3354.623 1541.54)" fill="#364f6b"/>
    <path id="Path_3412" data-name="Path 3412" d="M104.96,40.218a.638.638,0,1,1-.638.638.637.637,0,0,1,.638-.638" transform="translate(3353.026 1541.54)" fill="#364f6b"/>
    <path id="Path_3413" data-name="Path 3413" d="M114.191,40.218a.638.638,0,1,1-.638.638.637.637,0,0,1,.638-.638" transform="translate(3351.429 1541.54)" fill="#364f6b"/>
    <path id="Path_3414" data-name="Path 3414" d="M123.421,40.218a.638.638,0,1,1-.638.638.637.637,0,0,1,.638-.638" transform="translate(3349.832 1541.54)" fill="#364f6b"/>
    <path id="Path_3415" data-name="Path 3415" d="M95.729,32.1a.638.638,0,1,1-.638.638.637.637,0,0,1,.638-.638" transform="translate(3354.623 1542.944)" fill="#364f6b"/>
    <path id="Path_3416" data-name="Path 3416" d="M104.96,32.1a.638.638,0,1,1-.638.638.637.637,0,0,1,.638-.638" transform="translate(3353.026 1542.944)" fill="#364f6b"/>
    <path id="Path_3417" data-name="Path 3417" d="M114.191,32.1a.638.638,0,1,1-.638.638.637.637,0,0,1,.638-.638" transform="translate(3351.429 1542.944)" fill="#364f6b"/>
    <path id="Path_3418" data-name="Path 3418" d="M123.421,32.1a.638.638,0,1,1-.638.638.637.637,0,0,1,.638-.638" transform="translate(3349.832 1542.944)" fill="#364f6b"/>
    <path id="Path_3419" data-name="Path 3419" d="M94.385,94.93c-5.23,1.658-13.2-8.782-18.337-24.975s-4.627-29.32.6-30.978,13.2,8.782,18.337,24.975,4.626,29.32-.6,30.978" transform="translate(3358.539 1541.784)" fill="#fc8e3f"/>
    <path id="Path_3420" data-name="Path 3420" d="M84.989,49.6a7.461,7.461,0,0,1-2.4,1.235,10.432,10.432,0,0,1-2.449.461,10.18,10.18,0,0,1-2.489-.125,7.382,7.382,0,0,1-2.541-.9,7.362,7.362,0,0,1,2.4-1.238,10.183,10.183,0,0,1,2.45-.458,10.432,10.432,0,0,1,2.489.128,7.459,7.459,0,0,1,2.541.9m.445,6.373a17.007,17.007,0,0,0-3.176.086,16.723,16.723,0,0,0-3.106.669,10.957,10.957,0,0,0-3.013,1.446,10.93,10.93,0,0,0,3.27.686,16.738,16.738,0,0,0,3.177-.089,17.013,17.013,0,0,0,3.105-.673A11.076,11.076,0,0,0,88.7,56.659a11.038,11.038,0,0,0-3.27-.682m2.794,7.342a22.394,22.394,0,0,0-3.631.229,21.9,21.9,0,0,0-3.546.81,13.819,13.819,0,0,0-3.435,1.585,13.828,13.828,0,0,0,3.743.541,21.924,21.924,0,0,0,3.631-.232,22.268,22.268,0,0,0,3.546-.814,13.973,13.973,0,0,0,3.435-1.58,13.987,13.987,0,0,0-3.743-.538M90.6,70.8a22.2,22.2,0,0,0-3.631.229,21.929,21.929,0,0,0-3.547.81,13.833,13.833,0,0,0-3.435,1.585,13.834,13.834,0,0,0,3.743.542,21.922,21.922,0,0,0,3.631-.233,22.3,22.3,0,0,0,3.547-.814,13.981,13.981,0,0,0,3.435-1.58A13.983,13.983,0,0,0,90.6,70.8m1.948,7.62a17.019,17.019,0,0,0-3.176.086,16.739,16.739,0,0,0-3.106.669,10.954,10.954,0,0,0-3.012,1.446,10.952,10.952,0,0,0,3.27.687,16.727,16.727,0,0,0,3.176-.09,17.037,17.037,0,0,0,3.106-.673A11.044,11.044,0,0,0,95.817,79.1a11.061,11.061,0,0,0-3.269-.683M94.3,86.109a10.436,10.436,0,0,0-2.489-.128,10.222,10.222,0,0,0-2.45.457,7.381,7.381,0,0,0-2.4,1.239,7.382,7.382,0,0,0,2.541.9A10.22,10.22,0,0,0,92,88.707a10.431,10.431,0,0,0,2.449-.461,7.46,7.46,0,0,0,2.4-1.235,7.459,7.459,0,0,0-2.541-.9" transform="translate(3358.079 1540.098)" fill="#fc8e3f"/>
    <rect id="Rectangle_1161" data-name="Rectangle 1161" width="21.733" height="40.182" transform="translate(3433.191 1588.648)" fill="none"/>
    <path id="Path_3421" data-name="Path 3421" d="M95.571,92.54c-5.23,1.658-13.2-8.782-18.337-24.975-3.508-11.07-4.381-20.7-2.911-26.223-2.9,4.493-2.5,15.733,1.725,29.053,5.132,16.193,13.107,26.633,18.337,24.975,1.655-.524,2.835-2.2,3.515-4.754a4.391,4.391,0,0,1-2.329,1.924" transform="translate(3358.539 1541.345)" fill="#fc8e3f"/>
    <rect id="Rectangle_1162" data-name="Rectangle 1162" width="25.445" height="54.2" transform="translate(3430.994 1582.686)" fill="none"/>
    <path id="Path_3422" data-name="Path 3422" d="M88.178,68.894H62.572l-.7-2.522H88.881Z" transform="translate(3360.37 1537.015)" fill="#364f6b"/>
    <path id="Path_3423" data-name="Path 3423" d="M88.881,106.459H61.868l.7-2.522H88.178Z" transform="translate(3360.37 1530.516)" fill="#364f6b"/>
    <path id="Path_3424" data-name="Path 3424" d="M87.43,88.861a22.7,22.7,0,0,1,0-10.337,15.872,15.872,0,0,1,.605-2.069,13.932,13.932,0,0,0,.709-7.034H61.988a13.932,13.932,0,0,0,.709,7.034,15.745,15.745,0,0,1,.605,2.069,22.705,22.705,0,0,1,0,10.337A15.768,15.768,0,0,1,62.7,90.93a13.936,13.936,0,0,0-.709,7.035H88.744a13.936,13.936,0,0,0-.709-7.035,15.9,15.9,0,0,1-.605-2.068" transform="translate(3360.379 1536.488)" fill="#5ec97e"/>
    <path id="Path_3425" data-name="Path 3425" d="M64.985,92.944a19.154,19.154,0,0,1,.243-5.038,14.41,14.41,0,0,0-.52-4.678,25.1,25.1,0,0,0-1.323-3.855c-.06-.136-.521-1.437-.688-1.447A15.749,15.749,0,0,1,63.3,80a22.7,22.7,0,0,1,0,10.337A15.769,15.769,0,0,1,62.7,92.4a13.927,13.927,0,0,0-.708,7.034H75.366c-3.949-.509-9.53-1.853-10.381-6.491" transform="translate(3360.379 1535.016)" fill="#5ec97e"/>
    <rect id="Rectangle_1163" data-name="Rectangle 1163" width="13.548" height="21.508" transform="translate(3422.198 1612.944)" fill="none"/>
    <path id="Path_3426" data-name="Path 3426" d="M80.455,69.421s9.123.645,9.371,3.622-1.292,7.239.254,11.591a.162.162,0,0,1,.007.018,22.694,22.694,0,0,1,.569-6.129,15.769,15.769,0,0,1,.605-2.068,13.932,13.932,0,0,0,.709-7.034Z" transform="translate(3357.155 1536.488)" fill="#5ec97e"/>
    <rect id="Rectangle_1164" data-name="Rectangle 1164" width="11.684" height="15.232" transform="translate(3437.609 1605.909)" fill="none"/>
    <path id="Path_3427" data-name="Path 3427" d="M84.27,85.073A7.675,7.675,0,1,1,76.595,77.4a7.675,7.675,0,0,1,7.675,7.675" transform="translate(3359.15 1535.107)" fill="#fff"/>
    <path id="Path_3428" data-name="Path 3428" d="M77.811,82.531a4,4,0,0,0,0,6.763,4,4,0,0,0,0-6.763" transform="translate(3357.935 1534.22)" fill="#499c62"/>
    <path id="Path_3429" data-name="Path 3429" d="M82.962,84.906a4,4,0,0,0-4.783,4.783,4,4,0,0,0,4.783-4.783" transform="translate(3357.565 1533.826)" fill="#5ec97e"/>
    <path id="Path_3430" data-name="Path 3430" d="M72.4,84.906a4,4,0,0,1,4.783,4.783A4,4,0,0,1,72.4,84.906" transform="translate(3358.565 1533.826)" fill="#5ec97e"/>
    <path id="Path_3431" data-name="Path 3431" d="M111.24,97.771,95.531,94.837a1.6,1.6,0,0,1-1.277-1.864L101.139,56.1l18.851,3.521L113.1,96.493a1.6,1.6,0,0,1-1.864,1.278" transform="translate(3354.772 1538.791)" fill="#3fc1c9"/>
    <path id="Path_3432" data-name="Path 3432" d="M120.5,56.515l-8.039-1.5-8.039-1.5-1.834,2.144,9.425,1.761,9.424,1.76Z" transform="translate(3353.326 1539.24)" fill="#31959c"/>
    <path id="Path_3433" data-name="Path 3433" d="M104.8,53.145l16.079,3,.285-1.525a.283.283,0,0,0-.226-.329l-15.524-2.9a.282.282,0,0,0-.329.226Z" transform="translate(3352.942 1539.607)" fill="#3fc1c9"/>
    <path id="Path_3434" data-name="Path 3434" d="M113.839,87.884a5.532,5.532,0,0,0-4.569-.8,5.779,5.779,0,0,0-3.741,2.921,2.714,2.714,0,0,0-2.14-1.245,2.916,2.916,0,0,0-2.359,1.026,5.516,5.516,0,0,0-4.389-4.558L94.255,98.012a1.6,1.6,0,0,0,1.277,1.864l15.709,2.934a1.6,1.6,0,0,0,1.864-1.278l2.8-14.977a2.777,2.777,0,0,0-2.063,1.329" transform="translate(3354.772 1533.753)" fill="#fff"/>
    <path id="Path_3435" data-name="Path 3435" d="M103.5,84.141a.625.625,0,1,1-.5-.729.625.625,0,0,1,.5.729" transform="translate(3353.383 1534.069)" fill="#fff"/>
    <path id="Path_3436" data-name="Path 3436" d="M117.72,76.907a2.044,2.044,0,1,1-1.634-2.385,2.044,2.044,0,0,1,1.634,2.385" transform="translate(3351.409 1535.611)" fill="#fff"/>
    <rect id="Rectangle_1165" data-name="Rectangle 1165" width="6.084" height="12.831" transform="translate(3457.242 1605.052) rotate(-79.423)" fill="#fcbb53"/>
    <path id="Path_3437" data-name="Path 3437" d="M111.349,84.253a.827.827,0,1,1-.662-.965.828.828,0,0,1,.662.965" transform="translate(3352.094 1534.091)" fill="#fff"/>
    <path id="Path_3438" data-name="Path 3438" d="M107.053,76.28a.509.509,0,1,1-.407-.593.508.508,0,0,1,.407.593" transform="translate(3352.728 1535.405)" fill="#fff"/>
    <path id="Path_3439" data-name="Path 3439" d="M111.24,99.773C95.953,92.281,99.351,67.68,99.351,67.68l-5.1,27.3a1.6,1.6,0,0,0,1.278,1.864l15.709,2.933" transform="translate(3354.772 1536.789)" fill="#c9c9c9"/>
    <rect id="Rectangle_1166" data-name="Rectangle 1166" width="17.013" height="32.094" transform="translate(3448.999 1604.469)" fill="none"/>
    <path id="Path_3440" data-name="Path 3440" d="M105.091,87.459s-1.765-4.51-6.178-5.1a9.082,9.082,0,0,0-7.345,2.55,9.081,9.081,0,0,0-7.345-2.55c-4.413.589-6.179,5.1-6.179,5.1S75.1,95.3,81.771,100.4s9.8,0,9.8,0,3.129,5.1,9.8,0,3.726-12.944,3.726-12.944" transform="translate(3357.684 1534.262)" fill="#fc5151"/>
    <path id="Path_3441" data-name="Path 3441" d="M96.43,97.476a16.637,16.637,0,0,1-12.966-3.822,14.08,14.08,0,0,1-4.331-7.392,9.219,9.219,0,0,0-1.088,1.884S75.1,95.991,81.771,101.09s9.8,0,9.8,0,3.129,5.1,9.8,0a10.643,10.643,0,0,0,4.265-7.239,20.572,20.572,0,0,1-9.2,3.625" transform="translate(3357.684 1533.574)" fill="#fc5151"/>
    <rect id="Rectangle_1167" data-name="Rectangle 1167" width="28.231" height="17.095" transform="translate(3435.082 1619.836)" fill="none"/>
    <path id="Path_3442" data-name="Path 3442" d="M105.837,85.181c1.327,1.063,2.028,2.393,1.565,2.97s-1.914.184-3.24-.878S102.135,84.88,102.6,84.3s1.913-.184,3.24.879" transform="translate(3353.349 1533.959)" fill="#fc5151"/>
    <rect id="Rectangle_1168" data-name="Rectangle 1168" width="5.09" height="4.381" transform="translate(3455.804 1617.995)" fill="none"/>
    <path id="Path_3443" data-name="Path 3443" d="M94.31,83.325A17.051,17.051,0,0,1,96.542,73.9l-2.27-.772s-2.325,5.23.038,10.2" transform="translate(3354.941 1535.846)" fill="#364f6b"/>
    <path id="Path_3444" data-name="Path 3444" d="M94.894,79.256s2.358-5.907,10.595-5.208c0,0-2.656,6.188-10.595,5.208" transform="translate(3354.657 1535.697)" fill="#499c62"/>
    <path id="Path_3445" data-name="Path 3445" d="M51.227,96A6.841,6.841,0,0,0,53.5,99.8a2.624,2.624,0,0,0,2.064.606l5.852-.815A2.619,2.619,0,0,0,63.24,98.44,6.831,6.831,0,0,0,64.4,94.169c-.158-1.776-.765-2.411-1.655-3.889a11.123,11.123,0,0,1-1.214-8.649,8.642,8.642,0,0,0,.276-3.438c-.551-3.957-4.959-6.164-4.959-6.164l-.116-.833-2.2.307-2.2.306.117.833s-3.637,3.327-3.086,7.284a8.62,8.62,0,0,0,1.2,3.231,11.125,11.125,0,0,1,1.2,8.652c-.452,1.665-.863,2.44-.53,4.193" transform="translate(3362.544 1536.18)" fill="#fc8e3f"/>
    <path id="Path_3446" data-name="Path 3446" d="M52.386,92.3l9.851-1.371a10.848,10.848,0,0,1-.493-6.734L51.021,85.685A10.853,10.853,0,0,1,52.386,92.3" transform="translate(3362.247 1533.932)" fill="#fcbb53"/>
    <path id="Path_3447" data-name="Path 3447" d="M57.416,70.581l-4.887.681a.321.321,0,0,1-.361-.273l-.294-2.114a.32.32,0,0,1,.272-.361l4.888-.68a.32.32,0,0,1,.361.273l.294,2.113a.32.32,0,0,1-.273.361" transform="translate(3362.1 1536.763)" fill="#fc5151"/>
    <path id="Path_3448" data-name="Path 3448" d="M51.227,96c.033.174.076.345.126.514.029.1.064.2.1.3.021.06.04.121.063.18.051.131.107.262.166.39l.026.056q.1.216.219.424A7.235,7.235,0,0,0,53.5,99.8a2.624,2.624,0,0,0,2.064.606l5.852-.815A2.619,2.619,0,0,0,63.24,98.44a7.129,7.129,0,0,0,.44-.772A10.351,10.351,0,0,1,61.57,98.9a7.509,7.509,0,0,1-4.774.467,5.757,5.757,0,0,1-2.833-1.7,6.171,6.171,0,0,1-.746-1.945c-.333-1.752.078-2.527.53-4.192a11.127,11.127,0,0,0-1.2-8.652,8.644,8.644,0,0,1-1.2-3.232c-.476-3.421,2.177-6.371,2.9-7.106l1.872-.431-1.714.082-.065-.473,2.385-.524-2.2.307-.212.029-1.989.277.048.344.069.489s-3.637,3.327-3.086,7.284a8.62,8.62,0,0,0,1.2,3.231,11.125,11.125,0,0,1,1.2,8.652c-.452,1.665-.863,2.44-.53,4.193" transform="translate(3362.544 1536.18)" fill="#fc8e3f"/>
    <rect id="Rectangle_1169" data-name="Rectangle 1169" width="14.379" height="29.23" transform="translate(3411.845 1607.377)" fill="none"/>
    <path id="Path_3449" data-name="Path 3449" d="M64.108,90.281a11.125,11.125,0,0,1-1.214-8.65,8.639,8.639,0,0,0,.276-3.438c-.551-3.956-4.959-6.164-4.959-6.164L58.1,71.2l-.891.124.116.833s4.408,2.207,4.959,6.164A8.622,8.622,0,0,1,62,81.755a11.129,11.129,0,0,0,1.214,8.65c.89,1.478,1.5,2.112,1.656,3.889a6.833,6.833,0,0,1-1.156,4.27A2.618,2.618,0,0,1,61.9,99.711l.892-.124a2.619,2.619,0,0,0,1.819-1.148,6.827,6.827,0,0,0,1.155-4.27c-.158-1.776-.765-2.411-1.655-3.889" transform="translate(3361.177 1536.18)" fill="#fc8e3f"/>
    <rect id="Rectangle_1170" data-name="Rectangle 1170" width="8.581" height="28.514" transform="translate(3418.381 1607.377)" fill="none"/>
    <path id="Path_3450" data-name="Path 3450" d="M51.873,68.948l.294,2.113a.32.32,0,0,0,.361.273l2.179-.3a13.433,13.433,0,0,0-.189-2.774l-2.373.33a.32.32,0,0,0-.273.361" transform="translate(3362.1 1536.689)" fill="#fc5151"/>
    <rect id="Rectangle_1171" data-name="Rectangle 1171" width="2.846" height="3.081" transform="translate(3413.97 1604.946)" fill="none"/>
    <path id="Path_3451" data-name="Path 3451" d="M103.351,99.83H53.722a3.556,3.556,0,0,1-3.5-3.043L45.454,63.2h67.733ZM46.891,64.449l4.562,32.163a2.3,2.3,0,0,0,2.269,1.971H102.4l9.165-34.134Z" transform="translate(3363.21 1537.563)" fill="#283a4f"/>
    <rect id="Rectangle_1172" data-name="Rectangle 1172" width="36.634" height="1.247" transform="matrix(0.259, -0.966, 0.966, 0.259, 3451.388, 1636.607)" fill="#283a4f"/>
    <rect id="Rectangle_1173" data-name="Rectangle 1173" width="1.247" height="35.381" transform="translate(3440.202 1601.388)" fill="#283a4f"/>
    <rect id="Rectangle_1174" data-name="Rectangle 1174" width="1.247" height="35.734" transform="matrix(0.99, -0.14, 0.14, 0.99, 3422.566, 1601.476)" fill="#283a4f"/>
    <rect id="Rectangle_1175" data-name="Rectangle 1175" width="59.759" height="1.247" transform="translate(3411.797 1617.787)" fill="#283a4f"/>
    <rect id="Rectangle_1176" data-name="Rectangle 1176" width="62.978" height="1.247" transform="translate(3410.684 1609.944)" fill="#283a4f"/>
    <rect id="Rectangle_1177" data-name="Rectangle 1177" width="55.992" height="1.247" transform="translate(3413.098 1626.969)" fill="#283a4f"/>
    <path id="Path_3452" data-name="Path 3452" d="M110.019,65.011h-64.7a1.335,1.335,0,0,1,0-2.67h65.413Z" transform="translate(3363.464 1537.712)" fill="#fc5151"/>
    <path id="Path_3453" data-name="Path 3453" d="M142.4,58.164H134.05V52.595H142.4a2.785,2.785,0,1,1,0,5.569" transform="translate(3347.883 1539.398)" fill="#fc5151"/>
    <path id="Path_3454" data-name="Path 3454" d="M119.992,54.305h-3.11a3.7,3.7,0,0,0-3.575,2.741l-13.15,48.973H54.268a1.48,1.48,0,0,0,0,2.96H102.02a1.485,1.485,0,0,0,1.434-1.1L117.1,57.047h2.888Z" transform="translate(3361.941 1539.102)" fill="#fc9b56"/>
    <path id="Path_3455" data-name="Path 3455" d="M99.77,116.07H59.9v-.413a3.257,3.257,0,0,1,3.257-3.258H96.513a3.258,3.258,0,0,1,3.258,3.258Z" transform="translate(3360.71 1529.052)" fill="#fc5151"/>
    <path id="Path_3456" data-name="Path 3456" d="M76.445,112.4H61.509a2.837,2.837,0,0,0-2.837,2.837v.834H54.267a1.48,1.48,0,0,0,0,2.96H81.447q-2.574-3.259-5-6.63" transform="translate(3361.941 1529.052)" fill="#c9c9c9"/>
    <path id="Path_3457" data-name="Path 3457" d="M52.4,62.341H45.323a1.335,1.335,0,0,0,0,2.67H53.47q-.543-1.331-1.067-2.67" transform="translate(3363.464 1537.712)" fill="#c9c9c9"/>
    <rect id="Rectangle_1178" data-name="Rectangle 1178" width="35.937" height="48.029" transform="translate(3407.451 1600.053)" fill="none"/>
    <path id="Path_3458" data-name="Path 3458" d="M108.784,119.692a3.465,3.465,0,1,1-3.464-3.464,3.464,3.464,0,0,1,3.464,3.464" transform="translate(3353.453 1528.39)" fill="#283a4f"/>
    <path id="Path_3459" data-name="Path 3459" d="M107.434,120.049a1.757,1.757,0,1,1-1.757-1.757,1.757,1.757,0,0,1,1.757,1.757" transform="translate(3353.095 1528.033)" fill="#fff"/>
    <path id="Path_3460" data-name="Path 3460" d="M64.709,119.692a3.465,3.465,0,1,1-3.464-3.464,3.464,3.464,0,0,1,3.464,3.464" transform="translate(3361.077 1528.39)" fill="#283a4f"/>
    <path id="Path_3461" data-name="Path 3461" d="M63.36,120.049a1.757,1.757,0,1,1-1.757-1.757,1.757,1.757,0,0,1,1.757,1.757" transform="translate(3360.72 1528.033)" fill="#fff"/>
    <path id="Path_3462" data-name="Path 3462" d="M120.621,129.325H34.089v-.531a4.188,4.188,0,0,1,4.188-4.188h78.156a4.189,4.189,0,0,1,4.189,4.188Z" transform="translate(3365.176 1526.941)" fill="#ad6b3b"/>
    <path id="Path_3463" data-name="Path 3463" d="M134.05,58.747H142.4a2.785,2.785,0,0,0,2.785-2.785H134.05Z" transform="translate(3347.883 1538.816)" fill="#fc5151"/>
    <rect id="Rectangle_1179" data-name="Rectangle 1179" width="11.137" height="2.784" transform="translate(3481.933 1594.779)" fill="none"/>
  </g>
</svg>
