<svg id="Group_1664" data-name="Group 1664" xmlns="http://www.w3.org/2000/svg" xmlns:xlink="http://www.w3.org/1999/xlink" width="118.285" height="130.39" viewBox="0 0 118.285 130.39">
  <defs>
    <clipPath id="clip-path">
      <rect id="Rectangle_931" data-name="Rectangle 931" width="118.285" height="130.39" fill="none"/>
    </clipPath>
    <clipPath id="clip-path-3">
      <rect id="Rectangle_914" data-name="Rectangle 914" width="62.454" height="64.653" fill="none"/>
    </clipPath>
    <clipPath id="clip-path-5">
      <rect id="Rectangle_928" data-name="Rectangle 928" width="39.091" height="39.761" fill="none"/>
    </clipPath>
  </defs>
  <g id="Group_1663" data-name="Group 1663" clip-path="url(#clip-path)">
    <g id="Group_1651" data-name="Group 1651">
      <g id="Group_1650" data-name="Group 1650" clip-path="url(#clip-path)">
        <g id="Group_1649" data-name="Group 1649" transform="translate(0 6.818)" opacity="0.2">
          <g id="Group_1648" data-name="Group 1648">
            <g id="Group_1647" data-name="Group 1647" clip-path="url(#clip-path-3)">
              <path id="Path_2637" data-name="Path 2637" d="M62.454,81.68,0,83.328,1.05,18.676h61.4Z" transform="translate(0 -18.676)" fill="#010202"/>
            </g>
          </g>
        </g>
      </g>
    </g>
    <path id="Path_2638" data-name="Path 2638" d="M64.281,81.68l-61.4-.6V18.676h61.4Z" transform="translate(-1.827 -11.858)" fill="#fff"/>
    <path id="Path_2639" data-name="Path 2639" d="M49.343,52.976H37.106V65.213H49.343Zm-2.778,9.46H39.884V55.754h6.682Z" transform="translate(-23.561 -33.637)" fill="#494949"/>
    <path id="Path_2640" data-name="Path 2640" d="M105.609,133.716h12.237V121.479H105.609Zm2.778-9.46h6.682v6.682h-6.682Z" transform="translate(-67.057 -77.134)" fill="#494949"/>
    <path id="Path_2641" data-name="Path 2641" d="M117.846,52.976H105.609V65.213h12.237Zm-2.778,9.459h-6.682V55.754h6.682Z" transform="translate(-67.057 -33.637)" fill="#494949"/>
    <path id="Path_2642" data-name="Path 2642" d="M37.106,133.716H49.343V121.479H37.106Zm2.778-9.46h6.682v6.682H39.884Z" transform="translate(-23.561 -77.134)" fill="#494949"/>
    <path id="Path_2643" data-name="Path 2643" d="M58.134,61.923V64.7H55.357v2.778H52.579v5.555h2.778v2.636H52.631l-.014.018v-.009H47.061V72.9H44.284v2.778H41.506v2.778H38.728v2.778H52.617V78.449h2.792V75.812h2.726V67.479h2.778V61.923Z" transform="translate(-24.591 -39.319)" fill="#494949"/>
    <path id="Path_2644" data-name="Path 2644" d="M87.848,99.97H82.292v5.423H76.774v5.556H79.5v5.506h2.778v2.778h2.778V110.9H82.33v-2.6h2.74v-2.778h2.778Z" transform="translate(-48.748 -63.477)" fill="#494949"/>
    <path id="Path_2645" data-name="Path 2645" d="M120.273,105.525v-2.778h2.778V99.97h-8.333v5.556Z" transform="translate(-72.841 -63.476)" fill="#494949"/>
    <rect id="Rectangle_916" data-name="Rectangle 916" width="2.778" height="2.778" transform="translate(27.978 52.977)" fill="#494949"/>
    <rect id="Rectangle_917" data-name="Rectangle 917" width="2.778" height="2.778" transform="translate(27.988 22.605)" fill="#494949"/>
    <rect id="Rectangle_918" data-name="Rectangle 918" width="2.778" height="2.778" transform="translate(39.099 33.716)" fill="#494949"/>
    <path id="Path_2646" data-name="Path 2646" d="M13.821,50.72h2.835V32.088H35.53V29.253H13.821Z" transform="translate(-8.775 -18.574)" fill="#494949"/>
    <path id="Path_2647" data-name="Path 2647" d="M103.309,28.92v2.835h18.631V50.63h2.835V28.92Z" transform="translate(-65.597 -18.363)" fill="#494949"/>
    <path id="Path_2648" data-name="Path 2648" d="M124.354,119.743h-2.835v18.631H102.645v2.835h21.709Z" transform="translate(-65.175 -76.032)" fill="#494949"/>
    <path id="Path_2649" data-name="Path 2649" d="M35.287,141.12v-2.835H16.656V119.41H13.821v21.71Z" transform="translate(-8.776 -75.82)" fill="#494949"/>
    <g id="Group_1662" data-name="Group 1662">
      <g id="Group_1661" data-name="Group 1661" clip-path="url(#clip-path)">
        <path id="Path_2661" data-name="Path 2661" d="M200.147,185.534a4.575,4.575,0,0,0,.924-.486l5.059-3.505,5.578-.214-1.369-3.063a6.135,6.135,0,0,0-8.082-3.146l-.047.021a6.152,6.152,0,0,0-3.1,8.063Z" transform="translate(-126.097 -110.863)" fill="#dec29b"/>
        <rect id="Rectangle_920" data-name="Rectangle 920" width="41.038" height="78.36" rx="11.573" transform="translate(56.38 0)" fill="#010202"/>
        <path id="Path_3316" data-name="Path 3316" d="M0,0H37.609V61.193H0Z" transform="translate(58.241 8.629)" fill="#e9b6d6"/>
        <path id="Path_2662" data-name="Path 2662" d="M206.386,9.2a.434.434,0,0,1-.435.434H192.74a.435.435,0,1,1,0-.869h13.212a.435.435,0,0,1,.435.435" transform="translate(-122.105 -5.563)" fill="#c2cacc"/>
        <rect id="Rectangle_922" data-name="Rectangle 922" width="35.333" height="35.909" transform="translate(59.431 20.731)" fill="#fff"/>
        <path id="Path_2663" data-name="Path 2663" d="M189.542,76.527H182.5v7.042h7.042Zm-1.6,5.443H184.1V78.125h3.845Z" transform="translate(-115.88 -48.591)"/>
        <path id="Path_2664" data-name="Path 2664" d="M221.918,122.986h7.042v-7.042h-7.042Zm1.6-5.443h3.845v3.845h-3.845Z" transform="translate(-140.908 -73.619)"/>
        <path id="Path_2665" data-name="Path 2665" d="M228.96,76.527h-7.042v7.041h7.042Zm-1.6,5.443h-3.845V78.125h3.845Z" transform="translate(-140.908 -48.591)"/>
        <path id="Path_2666" data-name="Path 2666" d="M182.5,122.986h7.042v-7.042H182.5Zm1.6-5.443h3.845v3.845H184.1Z" transform="translate(-115.88 -73.619)"/>
        <path id="Path_2667" data-name="Path 2667" d="M188.229,100.579v-1.6h-1.6v1.6h-1.6v1.6h-1.6v1.6h7.992v-3.2Z" transform="translate(-116.472 -62.848)"/>
        <path id="Path_2668" data-name="Path 2668" d="M208.464,84.872h1.6v-3.2h-1.6v1.6h-1.6v1.6h-1.6v3.2h1.6v1.517H205.3v1.6h1.6V89.667h1.569v-4.8Z" transform="translate(-130.336 -51.86)"/>
        <path id="Path_2669" data-name="Path 2669" d="M211.7,103.568h-3.2v3.12h-3.175v3.2H206.9v3.168h1.6v1.6h1.6v-4.8h-1.571v-1.493H210.1v-1.6h1.6Z" transform="translate(-130.373 -65.761)"/>
        <path id="Path_2670" data-name="Path 2670" d="M230.357,106.765v-1.6h1.6v-1.6h-4.8v3.2Z" transform="translate(-144.236 -65.761)"/>
        <rect id="Rectangle_923" data-name="Rectangle 923" width="1.598" height="1.598" transform="translate(74.925 47.292)"/>
        <rect id="Rectangle_924" data-name="Rectangle 924" width="1.598" height="1.599" transform="translate(74.931 29.815)"/>
        <rect id="Rectangle_925" data-name="Rectangle 925" width="1.599" height="1.599" transform="translate(81.325 36.209)"/>
        <path id="Path_2671" data-name="Path 2671" d="M169.1,75.228h1.631V64.507h10.861V62.876H169.1Z" transform="translate(-107.372 -39.923)"/>
        <path id="Path_2672" data-name="Path 2672" d="M220.6,62.685v1.631h10.721v10.86h1.631V62.685Z" transform="translate(-140.068 -39.802)"/>
        <path id="Path_2673" data-name="Path 2673" d="M232.7,114.946h-1.631v10.721h-10.86V127.3H232.7Z" transform="translate(-139.825 -72.986)"/>
        <path id="Path_2674" data-name="Path 2674" d="M181.453,127.246v-1.631H170.732V114.754H169.1v12.492Z" transform="translate(-107.372 -72.864)"/>
        <rect id="Rectangle_926" data-name="Rectangle 926" width="37.894" height="1.536" transform="translate(57.963 30.396)" fill="#eb1f22"/>
        <rect id="Rectangle_927" data-name="Rectangle 927" width="24.003" height="2.304" transform="translate(64.941 60.161)" fill="#fff"/>
        <path id="Path_2675" data-name="Path 2675" d="M189.3,164.8H177.9v2.3h9.1Z" transform="translate(-112.957 -104.643)" fill="#7600df"/>
        <g id="Group_1657" data-name="Group 1657" transform="translate(56.38)" opacity="0.4">
          <g id="Group_1656" data-name="Group 1656">
            <g id="Group_1655" data-name="Group 1655" clip-path="url(#clip-path-5)">
              <path id="Path_2676" data-name="Path 2676" d="M193.538.67A4.2,4.2,0,0,0,191.26,0H158.671a4.225,4.225,0,0,0-4.224,4.225V39.761Z" transform="translate(-154.447 0)" fill="#fff"/>
            </g>
          </g>
        </g>
      </g>
    </g>
    <rect id="Rectangle_1083" data-name="Rectangle 1083" width="118.285" height="130.39" fill="none"/>
  </g>
</svg>
