<svg xmlns="http://www.w3.org/2000/svg" width="93.729" height="80.728" viewBox="0 0 93.729 80.728">
  <g id="Group_1786" data-name="Group 1786" transform="translate(-32.837 -563.197)">
    <g id="Group_1767" data-name="Group 1767" transform="translate(-267 289.623)">
      <g id="Group_1763" data-name="Group 1763" transform="translate(302.562 276.299)">
        <path id="Path_3489" data-name="Path 3489" d="M393.9,353.979H336.068a5.678,5.678,0,0,1-4.917-8.517l2.111-3.657" transform="translate(-307.798 -288.629)" fill="none" stroke="#1cae32" stroke-linecap="round" stroke-miterlimit="10" stroke-width="4"/>
        <path id="Path_3490" data-name="Path 3490" d="M391.168,299.707l-6.684,28.963H327.321L312.13,281.7l-9.568-5.4" transform="translate(-302.562 -276.299)" fill="none" stroke="#1cae32" stroke-linecap="round" stroke-miterlimit="10" stroke-width="4"/>
        <circle id="Ellipse_44" data-name="Ellipse 44" cx="5.327" cy="5.327" r="5.327" transform="translate(30.43 65.349)" fill="none" stroke="#1cae32" stroke-linecap="round" stroke-miterlimit="10" stroke-width="4"/>
        <circle id="Ellipse_45" data-name="Ellipse 45" cx="5.327" cy="5.327" r="5.327" transform="translate(70.183 65.349)" fill="none" stroke="#1cae32" stroke-linecap="round" stroke-miterlimit="10" stroke-width="4"/>
      </g>
      <g id="Group_1766" data-name="Group 1766" transform="translate(332.691 277.045)">
        <g id="Group_1764" data-name="Group 1764" transform="translate(0 0)">
          <path id="Path_3491" data-name="Path 3491" d="M361.715,283.954a18.173,18.173,0,0,0-3.248,1.132,19.2,19.2,0,0,0-2.177,3.366,31.864,31.864,0,0,1,4.453-1.012A30.456,30.456,0,0,1,361.715,283.954Z" transform="translate(-342.804 -278.486)" fill="#fb133b"/>
          <path id="Path_3492" data-name="Path 3492" d="M359.046,296.586c.167-2.052.409-3.991.722-5.784a28.829,28.829,0,0,0-5.121,1.384,28.862,28.862,0,0,0-1.384,5.122C355.064,297,357,296.752,359.046,296.586Z" transform="translate(-342.234 -279.775)" fill="#fb133b"/>
          <path id="Path_3493" data-name="Path 3493" d="M353.545,288.3a18.525,18.525,0,0,0-2.786,2.786c.61-.313,1.237-.613,1.9-.887C352.931,289.537,353.231,288.909,353.545,288.3Z" transform="translate(-341.763 -279.304)" fill="#fb133b"/>
          <path id="Path_3494" data-name="Path 3494" d="M350.912,293.829a19.141,19.141,0,0,0-3.366,2.176,18.278,18.278,0,0,0-1.132,3.25,30.748,30.748,0,0,1,3.485-.972A32.159,32.159,0,0,1,350.912,293.829Z" transform="translate(-340.945 -280.345)" fill="#fb133b"/>
          <path id="Path_3495" data-name="Path 3495" d="M352.849,301.161a33.963,33.963,0,0,0,0,7.444,57.662,57.662,0,0,0,5.944.789c-.084-1.509-.128-3.023-.128-4.511s.043-3,.128-4.511A57.65,57.65,0,0,0,352.849,301.161Z" transform="translate(-342.118 -281.576)" fill="#fb133b"/>
          <path id="Path_3496" data-name="Path 3496" d="M367.341,296.206c1.5,0,3.012.043,4.513.127a58.1,58.1,0,0,0-.789-5.944,34.085,34.085,0,0,0-7.446,0,58.1,58.1,0,0,0-.789,5.944C364.33,296.249,365.844,296.206,367.341,296.206Z" transform="translate(-344.035 -279.659)" fill="#fb133b"/>
          <path id="Path_3497" data-name="Path 3497" d="M362.631,300.172c-.086,1.515-.129,3.076-.129,4.648s.043,3.133.129,4.648a82.223,82.223,0,0,0,9.3,0c.086-1.515.129-3.076.129-4.648s-.043-3.133-.129-4.648A82.066,82.066,0,0,0,362.631,300.172Z" transform="translate(-343.973 -281.514)" fill="#fb133b"/>
          <path id="Path_3498" data-name="Path 3498" d="M382.5,308.605a33.968,33.968,0,0,0,0-7.444,57.672,57.672,0,0,0-5.944-.789c.084,1.509.128,3.023.128,4.511s-.043,3-.128,4.511A57.717,57.717,0,0,0,382.5,308.605Z" transform="translate(-346.619 -281.576)" fill="#fb133b"/>
          <path id="Path_3499" data-name="Path 3499" d="M385.371,291.084a18.553,18.553,0,0,0-2.785-2.785c.314.61.614,1.238.888,1.9C384.134,290.471,384.762,290.771,385.371,291.084Z" transform="translate(-347.754 -279.304)" fill="#fb133b"/>
          <path id="Path_3500" data-name="Path 3500" d="M385.834,298.284a30.789,30.789,0,0,1,3.485.971,18.278,18.278,0,0,0-1.132-3.25,19.142,19.142,0,0,0-3.366-2.176A32.2,32.2,0,0,1,385.834,298.284Z" transform="translate(-348.174 -280.345)" fill="#fb133b"/>
          <path id="Path_3501" data-name="Path 3501" d="M376.222,296.586c2.042.167,3.982.409,5.785.723a28.789,28.789,0,0,0-1.386-5.122A28.666,28.666,0,0,0,375.5,290.8C375.813,292.595,376.055,294.534,376.222,296.586Z" transform="translate(-346.42 -279.775)" fill="#fb133b"/>
          <path id="Path_3502" data-name="Path 3502" d="M379.229,288.452a19.185,19.185,0,0,0-2.176-3.366,18.247,18.247,0,0,0-3.249-1.132,30.578,30.578,0,0,1,.972,3.486A31.859,31.859,0,0,1,379.229,288.452Z" transform="translate(-346.101 -278.486)" fill="#fb133b"/>
          <path id="Path_3503" data-name="Path 3503" d="M370.91,287.055a23.958,23.958,0,0,0-1.174-3.652,17.086,17.086,0,0,0-4.219,0,23.784,23.784,0,0,0-1.174,3.652A35.2,35.2,0,0,1,370.91,287.055Z" transform="translate(-344.32 -278.358)" fill="#fb133b"/>
          <path id="Path_3504" data-name="Path 3504" d="M349.361,305.168c0-1.087.051-2.187.153-3.283a23.94,23.94,0,0,0-3.652,1.174,17.083,17.083,0,0,0,0,4.219,23.929,23.929,0,0,0,3.652,1.174C349.413,307.355,349.361,306.254,349.361,305.168Z" transform="translate(-340.817 -281.861)" fill="#fb133b"/>
          <path id="Path_3505" data-name="Path 3505" d="M382.585,322.912a18.519,18.519,0,0,0,2.785-2.785c-.609.313-1.237.613-1.9.887C383.2,321.675,382.9,322.3,382.585,322.912Z" transform="translate(-347.753 -285.295)" fill="#fb133b"/>
          <path id="Path_3506" data-name="Path 3506" d="M376.222,313.763c-.167,2.052-.409,3.991-.722,5.784a28.806,28.806,0,0,0,5.121-1.384,28.809,28.809,0,0,0,1.386-5.122C380.2,313.354,378.265,313.6,376.222,313.763Z" transform="translate(-346.42 -283.961)" fill="#fb133b"/>
          <path id="Path_3507" data-name="Path 3507" d="M384.823,316.77a19.219,19.219,0,0,0,3.364-2.176,18.282,18.282,0,0,0,1.132-3.25,30.766,30.766,0,0,1-3.485.972A31.962,31.962,0,0,1,384.823,316.77Z" transform="translate(-348.175 -283.641)" fill="#fb133b"/>
          <path id="Path_3508" data-name="Path 3508" d="M390.036,303.058a23.931,23.931,0,0,0-3.652-1.174c.1,1.1.153,2.2.153,3.283s-.051,2.187-.153,3.283a23.938,23.938,0,0,0,3.652-1.174,18.487,18.487,0,0,0,.131-2.109A18.685,18.685,0,0,0,390.036,303.058Z" transform="translate(-348.468 -281.861)" fill="#fb133b"/>
          <path id="Path_3509" data-name="Path 3509" d="M373.8,326.86a18.21,18.21,0,0,0,3.249-1.132,19.143,19.143,0,0,0,2.176-3.366,31.854,31.854,0,0,1-4.453,1.012A30.552,30.552,0,0,1,373.8,326.86Z" transform="translate(-346.101 -285.715)" fill="#fb133b"/>
          <path id="Path_3510" data-name="Path 3510" d="M362.984,277.218a23.307,23.307,0,1,0,23.307,23.307A23.307,23.307,0,0,0,362.984,277.218Zm0,44.456a21.149,21.149,0,1,1,21.149-21.149A21.173,21.173,0,0,1,362.983,321.674Z" transform="translate(-339.677 -277.218)" fill="#fb133b"/>
          <path id="Path_3511" data-name="Path 3511" d="M349.9,312.316a30.542,30.542,0,0,1-3.485-.972,18.268,18.268,0,0,0,1.132,3.25,19.07,19.07,0,0,0,3.366,2.176A31.912,31.912,0,0,1,349.9,312.316Z" transform="translate(-340.945 -283.641)" fill="#fb133b"/>
          <path id="Path_3512" data-name="Path 3512" d="M350.759,320.127a18.53,18.53,0,0,0,2.786,2.786c-.314-.61-.614-1.238-.889-1.9C352,320.74,351.369,320.44,350.759,320.127Z" transform="translate(-341.763 -285.295)" fill="#fb133b"/>
          <path id="Path_3513" data-name="Path 3513" d="M359.046,313.763c-2.042-.167-3.982-.409-5.784-.723a28.9,28.9,0,0,0,1.384,5.122,28.716,28.716,0,0,0,5.122,1.384C359.455,317.755,359.212,315.815,359.046,313.763Z" transform="translate(-342.234 -283.961)" fill="#fb133b"/>
          <path id="Path_3514" data-name="Path 3514" d="M362.83,314.1a58.152,58.152,0,0,0,.789,5.945,34.074,34.074,0,0,0,7.446,0,57.906,57.906,0,0,0,.789-5.945A80.059,80.059,0,0,1,362.83,314.1Z" transform="translate(-344.035 -284.16)" fill="#fb133b"/>
          <path id="Path_3515" data-name="Path 3515" d="M356.289,322.363a19.167,19.167,0,0,0,2.177,3.366,18.2,18.2,0,0,0,3.248,1.132,30.538,30.538,0,0,1-.972-3.487A31.856,31.856,0,0,1,356.289,322.363Z" transform="translate(-342.804 -285.715)" fill="#fb133b"/>
          <path id="Path_3516" data-name="Path 3516" d="M364.343,323.925a23.864,23.864,0,0,0,1.175,3.652,17.086,17.086,0,0,0,4.219,0,23.931,23.931,0,0,0,1.175-3.652A35.22,35.22,0,0,1,364.343,323.925Z" transform="translate(-344.32 -286.009)" fill="#fb133b"/>
        </g>
        <g id="Group_1765" data-name="Group 1765" transform="translate(16.291 23.714)">
          <path id="Path_3517" data-name="Path 3517" d="M359.757,306.963l1.835,6.849a.345.345,0,0,0,.577.154l5.014-5.014a.345.345,0,0,0-.154-.577l-6.849-1.835A.345.345,0,0,0,359.757,306.963Z" transform="translate(-359.745 -306.449)" fill="#1cae32"/>
          <path id="Path_3518" data-name="Path 3518" d="M365.741,311.376c5.592,3.9,12.4,6.342,18.99,5.129a8.211,8.211,0,0,0,6.918-7.1,5.862,5.862,0,0,0-.315-2.973" transform="translate(-360.874 -306.431)" fill="none" stroke="#1cae32" stroke-linecap="round" stroke-miterlimit="10" stroke-width="4"/>
        </g>
      </g>
    </g>
  </g>
</svg>
