<svg xmlns="http://www.w3.org/2000/svg" width="100.544" height="89.864" viewBox="0 0 100.544 89.864">
  <g id="Group_1746" data-name="Group 1746" transform="translate(-3347.54 -1402.368)">
    <path id="Path_3323" data-name="Path 3323" d="M2133.5,1958.435a2.778,2.778,0,0,0,2.778,2.778h49.4a2.778,2.778,0,0,0,2.778-2.778V1925.18a2.779,2.779,0,0,0-2.778-2.778h-49.4a2.778,2.778,0,0,0-2.778,2.778Z" transform="translate(1259.628 -478.959)" fill="#fcfdff"/>
    <path id="Path_3324" data-name="Path 3324" d="M2248.181,2090.257a2.375,2.375,0,0,0,2.482,2.249H2294.8a2.374,2.374,0,0,0,2.482-2.249v-26.918a2.374,2.374,0,0,0-2.482-2.249h-44.138a2.375,2.375,0,0,0-2.482,2.249Z" transform="translate(1147.395 -614.683)" fill="#499c62"/>
    <path id="Path_3325" data-name="Path 3325" d="M2916.359,2658.371l1.419-2.906,33.336,16.451v.018a2.374,2.374,0,0,1-2.482,2.248h-.248l-31.93-15.19c-.178-.086-.22-.364-.095-.621" transform="translate(493.563 -1196.358)" fill="#b73737"/>
    <path id="Path_3326" data-name="Path 3326" d="M2986.07,2507.088l1.419-2.906c.125-.257.371-.395.548-.308l31.369,15.312v4.324Z" transform="translate(425.272 -1047.981)" fill="#d15252"/>
    <path id="Path_3327" data-name="Path 3327" d="M3019.407,2671.915l-33.336-16.45,33.336,16.422Z" transform="translate(425.271 -1196.359)" fill="#d15252"/>
    <path id="Path_3328" data-name="Path 3328" d="M3894.7,2064.031a4.867,4.867,0,0,0,7.866,3.834v4.088a8.475,8.475,0,0,1-1.075.328v1.815a.991.991,0,0,1-.99.991h-1.864a.99.99,0,0,1-.99-.991v-1.814a8.431,8.431,0,0,1-2.551-1.058l-1.284,1.284a.99.99,0,0,1-1.4,0l-1.319-1.317a.993.993,0,0,1,0-1.4l1.284-1.284a8.431,8.431,0,0,1-1.057-2.549H3889.5a.992.992,0,0,1-.991-.991V2063.1a.989.989,0,0,1,.991-.991h1.814a8.425,8.425,0,0,1,.306-1.018h4.064a4.842,4.842,0,0,0-.989,2.94" transform="translate(-457.887 -614.684)" fill="#babbbb"/>
    <rect id="Rectangle_1144" data-name="Rectangle 1144" width="100.544" height="89.863" transform="translate(3347.54 1402.368)" fill="none"/>
    <rect id="Rectangle_1146" data-name="Rectangle 1146" width="23.653" height="68.151" transform="translate(3363.553 1411.651)" fill="none"/>
    <path id="Path_3329" data-name="Path 3329" d="M105.583,58.725l-5.215-4.686A3.947,3.947,0,0,1,99.059,51.1V29.3h-2.71V51.1a3.946,3.946,0,0,0,1.308,2.935l5.215,4.686a11.114,11.114,0,0,1,3.686,8.267v41.623a2.711,2.711,0,0,1-2.711,2.711h2.711a2.711,2.711,0,0,0,2.711-2.711V66.992a11.117,11.117,0,0,0-3.686-8.267" transform="translate(3306.676 1380.805)" fill="#499c62"/>
    <rect id="Rectangle_1147" data-name="Rectangle 1147" width="12.92" height="82.028" transform="translate(3403.025 1410.103)" fill="none"/>
    <path id="Path_3330" data-name="Path 3330" d="M127.107,61.245V59.321H126v1.924a6.417,6.417,0,0,1,6.418,6.418v43.165a4.586,4.586,0,0,1-4.586,4.586h1.111a4.586,4.586,0,0,0,4.585-4.586V67.662a6.417,6.417,0,0,0-6.417-6.418" transform="translate(3302.64 1376.718)" fill="#adecf0"/>
    <rect id="Rectangle_1148" data-name="Rectangle 1148" width="7.528" height="56.092" transform="translate(3428.636 1436.04)" fill="none"/>
    <path id="Path_3331" data-name="Path 3331" d="M36.642,383.293q.328,0,.656.006l-.007.379c-.375-.007-.751-.008-1.125,0l-.005-.379q.241,0,.481,0m-1.617.036.017.379q-.562.025-1.124.067l-.028-.378q.567-.042,1.135-.068m3.41.008q.568.028,1.135.073l-.03.378q-.56-.045-1.123-.072Zm-5.677.162.04.377q-.559.059-1.117.136l-.052-.375q.563-.078,1.129-.138m-2.253.31.064.374q-.554.094-1.107.205l-.075-.372q.558-.112,1.118-.208m12.446.028q.56.1,1.116.212l-.076.371q-.551-.113-1.105-.21Zm-14.675.422.087.369q-.547.128-1.092.274l-.1-.366q.55-.147,1.1-.277m16.9.036q.553.131,1.1.28l-.1.366q-.543-.147-1.09-.277Zm-19.1.552.11.363q-.538.162-1.072.342l-.121-.36q.54-.181,1.084-.345m21.29.042q.543.165,1.082.347l-.121.359q-.533-.181-1.071-.344Zm-23.446.682.132.355q-.527.2-1.049.408l-.143-.351q.528-.215,1.06-.412m25.6.046q.532.2,1.058.413l-.144.351q-.521-.213-1.047-.409Zm-27.705.811.154.347q-.513.228-1.022.473l-.164-.342q.514-.247,1.032-.477m29.808.049q.518.231,1.03.478l-.165.341q-.507-.245-1.019-.474Zm-31.857.938.176.336q-.5.259-.991.535l-.185-.331q.5-.279,1-.541m33.9.05q.5.262,1,.541l-.186.33q-.49-.276-.988-.535Zm-35.886,1.063.2.325q-.481.29-.956.6l-.206-.319q.48-.309.966-.6m37.864.05q.485.293.962.6l-.206.318q-.472-.306-.952-.6Zm-39.777,1.183.216.312q-.463.319-.917.654l-.225-.305q.46-.338.927-.66m41.682.051q.465.323.922.661l-.226.3q-.452-.335-.913-.654Zm-43.515,1.3.234.3q-.444.348-.874.707l-.243-.291q.434-.363.883-.715m45.338.052q.443.351.879.717l-.244.29q-.431-.362-.871-.709Zm-47.083,1.4.252.284q-.422.374-.83.76l-.261-.275q.412-.389.838-.768m48.818.057q.421.377.832.77l-.261.274q-.407-.389-.824-.762Zm-50.471,1.5.269.267q-.4.4-.781.81l-.277-.259q.387-.414.789-.818m52.113.063q.4.4.785.822l-.278.258q-.384-.414-.777-.813Zm-53.664,1.6.285.25q-.372.423-.728.855l-.293-.241q.36-.436.735-.864m55.209.072q.372.427.733.868l-.293.24q-.358-.437-.726-.86ZM7.647,397.535l.3.232q-.345.445-.673.9l-.307-.223q.333-.459.681-.908m58.092.081q.348.453.68.913l-.307.222q-.328-.455-.673-.9ZM6.315,399.372l.314.213q-.316.466-.617.939l-.32-.2q.3-.479.623-.949m60.755.09q.319.473.622.952l-.321.2q-.3-.475-.616-.943ZM5.1,401.289l.327.193q-.286.485-.557.976l-.332-.182q.273-.5.563-.987m63.186.1q.29.491.562.989l-.333.182q-.269-.493-.556-.979Zm-64.28,1.893.338.172q-.255.5-.495,1.009l-.343-.161q.242-.513.5-1.019m65.373.1q.259.508.5,1.022l-.343.161q-.239-.508-.494-1.011ZM3.037,405.333l.348.151q-.224.515-.431,1.038l-.353-.14q.209-.527.436-1.049m67.308.107q.226.523.435,1.051l-.352.14q-.207-.522-.43-1.04Zm-68.148,2,.357.129q-.192.529-.366,1.063l-.361-.118q.177-.539.37-1.074m68.984.111q.193.536.368,1.076l-.361.117q-.173-.534-.364-1.065ZM1.491,409.6l.364.107q-.158.539-.3,1.084l-.367-.1q.143-.55.3-1.1m70.393.115q.159.547.3,1.1l-.367.094q-.14-.544-.3-1.086ZM.919,411.8l.37.084q-.125.549-.233,1.1l-.372-.073q.109-.558.236-1.112m71.532.118q.124.556.231,1.114l-.372.071q-.106-.552-.229-1.1ZM.483,414.032l.374.061q-.091.555-.164,1.113l-.376-.05q.074-.564.167-1.125m72.4.121q.089.562.161,1.126l-.376.048q-.07-.558-.16-1.114ZM.186,416.286l.377.038q-.056.559-.1,1.121l-.378-.026q.04-.567.1-1.133m72.982.123q.055.566.091,1.134l-.378.025q-.037-.561-.091-1.121ZM.027,418.554l.379.015q-.022.562-.027,1.125l-.379,0q0-.569.027-1.137m73.288.124q.019.568.021,1.136l-.379,0q0-.562-.021-1.125ZM.388,420.818q.013.562.043,1.124l-.378.02q-.031-.568-.044-1.136Zm72.555.122.379.01q-.016.569-.049,1.135l-.379-.021q.033-.562.048-1.124M.508,423.065q.047.56.113,1.119l-.377.044q-.066-.566-.113-1.132Zm72.3.122.378.034q-.051.566-.119,1.131l-.376-.046q.067-.558.117-1.119M.768,425.3q.083.555.182,1.11l-.373.067q-.1-.56-.183-1.122Zm71.775.12.375.057q-.086.562-.188,1.121l-.373-.068q.1-.553.186-1.109M1.166,427.514q.117.55.25,1.1l-.368.09q-.136-.553-.253-1.108Zm70.971.118.37.08q-.12.555-.257,1.107l-.368-.091q.136-.547.254-1.1M1.7,429.7q.151.541.318,1.079l-.362.113q-.169-.544-.321-1.09Zm69.894.115.365.1q-.154.547-.325,1.089l-.361-.114q.169-.537.321-1.078M2.371,431.848q.184.531.385,1.058l-.354.135q-.2-.532-.39-1.068Zm68.548.112.358.125q-.187.536-.391,1.067l-.354-.136q.2-.525.387-1.055M3.174,433.95q.217.518.451,1.031l-.345.157q-.236-.518-.455-1.042Zm66.938.108.35.147q-.22.523-.456,1.04l-.345-.158q.234-.511.452-1.029M4.108,436q.249.5.514,1l-.335.178q-.268-.5-.519-1.012Zm65.07.1.34.169q-.252.507-.52,1.009l-.335-.179q.266-.5.515-1M5.167,437.985q.279.486.575.967l-.323.2q-.3-.486-.581-.978Zm62.951.1.329.189q-.283.492-.582.975l-.323-.2q.3-.478.576-.965M6.347,439.9q.309.469.634.93l-.31.218q-.328-.466-.64-.94Zm60.59.093.316.21q-.313.472-.641.937l-.31-.219q.325-.459.635-.927m-1.3,1.833.3.229q-.342.452-.7.895l-.295-.238q.353-.438.691-.885m-1.409,1.748.288.247q-.369.429-.753.849l-.28-.256q.379-.415.744-.84m-1.514,1.657.272.264q-.4.406-.805.8l-.264-.272q.406-.392.8-.794M61.1,446.8l.255.281q-.419.38-.851.75l-.247-.289q.429-.365.843-.742" transform="translate(3347.54 1027.265)" fill="#ad90a3"/>
    <path id="Path_3332" data-name="Path 3332" d="M2756.982,3425.414l.237.3c-.148.12-.3.238-.449.354l-.232-.3c.148-.116.3-.232.444-.35" transform="translate(649.9 -1949.857)" fill="#ad90a3"/>
    <path id="Path_3333" data-name="Path 3333" d="M3188.686,2098.16h.379c0,.182,0,.4,0,.585l-.379-.012c0-.188,0-.391,0-.573" transform="translate(226.99 -650.961)" fill="#ad90a3"/>
    <path id="Path_3334" data-name="Path 3334" d="M290.962,2178.478l.379.021q-.03.569-.08,1.133l-.378-.033q.049-.557.079-1.121m-62.847.026q.03.562.08,1.12l-.378.034c-.034-.375-.061-.754-.081-1.134Zm62.649,2.212.376.047q-.071.565-.16,1.125l-.375-.061q.089-.552.159-1.111m-62.45.025q.07.558.159,1.112l-.374.06q-.09-.558-.162-1.125Zm62.093,2.192.372.073q-.11.558-.241,1.111l-.369-.086q.128-.545.238-1.1m-61.734.025q.11.552.239,1.1l-.369.087q-.131-.552-.241-1.111Zm61.219,2.161.366.1q-.151.55-.32,1.091l-.362-.113q.168-.535.316-1.078m-60.7.024q.149.542.317,1.078l-.361.114q-.17-.542-.321-1.09Zm60.032,2.122.358.127q-.19.538-.4,1.067l-.352-.139q.205-.523.394-1.055m-59.359.021q.188.531.393,1.052l-.353.139q-.208-.528-.4-1.065Zm58.534,2.074.347.152q-.228.523-.474,1.036l-.342-.164q.243-.507.469-1.024m-57.712.013q.225.513.467,1.018l-.342.164q-.244-.51-.472-1.03Zm56.738,2.016.336.177c-.177.336-.359.668-.547,1l-.33-.188q.279-.489.541-.987m-55.769,0q.261.5.539.984l-.33.188c-.187-.328-.369-.66-.545-.995Zm1.112,1.947q.3.478.607.942l-.315.211q-.316-.471-.615-.954Zm53.541,0,.322.2q-.3.485-.617.957l-.315-.211q.312-.467.609-.945m-52.293,1.861q.328.454.673.9l-.3.233q-.349-.448-.681-.909Zm51.041.007.307.222q-.334.46-.683.909l-.3-.232q.345-.443.675-.9m-49.663,1.763q.36.432.735.848l-.282.253q-.38-.422-.744-.858Zm48.282.009.291.243q-.365.437-.746.859l-.281-.254q.376-.417.736-.848m-46.781,1.661q.389.4.794.794l-.263.274q-.409-.4-.8-.8Zm45.279.01.273.264q-.395.409-.8.8l-.264-.273q.4-.39.795-.794m-43.663,1.55c.278.251.561.5.849.736l-.243.291q-.437-.365-.859-.745Zm42.046.008.253.282q-.422.379-.859.744l-.243-.291q.431-.36.848-.735m-40.323,1.433q.444.346.9.675l-.222.307q-.461-.333-.91-.682Zm38.6.006.233.3q-.448.349-.909.682l-.222-.308q.456-.328.9-.673m-36.778,1.31q.467.312.945.609l-.2.323q-.484-.3-.957-.615Zm34.959,0,.211.315q-.472.316-.955.615l-.2-.323q.477-.3.943-.607m-33.047,1.18q.488.279.987.54l-.176.335q-.5-.264-1-.546Zm31.14,0,.188.329q-.493.281-1,.544l-.176-.336q.5-.261.984-.538m-1.985,1.041.164.342q-.51.245-1.031.471l-.152-.348q.514-.224,1.019-.466m-27.162,0q.507.243,1.023.468l-.151.348q-.523-.228-1.036-.474Zm25.109.892.139.353q-.528.208-1.065.4l-.127-.358q.53-.187,1.052-.393m-23.045.007q.523.206,1.055.394l-.126.358q-.539-.19-1.068-.4Zm20.928.741.113.362c-.361.113-.725.22-1.09.32l-.1-.365q.542-.149,1.077-.316m-18.8.008q.535.167,1.078.315l-.1.366q-.549-.149-1.091-.319Zm16.638.586.087.369q-.551.13-1.111.241l-.074-.372q.553-.109,1.1-.238m-14.472.005q.545.129,1.1.237l-.073.373q-.559-.111-1.111-.24Zm12.269.431.061.375q-.56.09-1.125.16l-.047-.376q.559-.07,1.111-.159m-10.065,0q.553.088,1.112.158l-.047.376q-.566-.07-1.125-.159Zm7.837.274.033.378q-.564.05-1.134.08l-.02-.379q.563-.03,1.12-.079m-5.609,0q.557.049,1.12.079l-.02.378q-.569-.03-1.134-.079Zm3.366.117.007.379c-.378.007-.759.006-1.136,0l.006-.379c.374.006.75.006,1.124,0" transform="translate(3124.669 -729.563)" fill="#ad90a3"/>
    <path id="Path_3335" data-name="Path 3335" d="M2320.855,3184.352a2.048,2.048,0,1,1-2.047-2.048,2.048,2.048,0,0,1,2.047,2.048" transform="translate(1080.281 -1711.941)" fill="#fff"/>
    <path id="Path_3336" data-name="Path 3336" d="M585.549,1923.729a.983.983,0,0,0,.984.983h12.555a.983.983,0,0,0,.984-.983V1918.9H585.549Z" transform="translate(2774.501 -475.536)" fill="#bec3c2"/>
    <path id="Path_3337" data-name="Path 3337" d="M600.071,1756.779a.984.984,0,0,0-.984-.984H586.533a.984.984,0,0,0-.984.984v.662h14.522Z" transform="translate(2774.501 -315.912)" fill="#bec3c2"/>
    <rect id="Rectangle_1149" data-name="Rectangle 1149" width="14.522" height="1.839" transform="translate(3360.051 1441.53)" fill="#3f4d50"/>
    <rect id="Rectangle_1150" data-name="Rectangle 1150" width="7.648" height="1.065" transform="translate(3360.438 1444.144)" fill="#f1f7f7"/>
    <rect id="Rectangle_1151" data-name="Rectangle 1151" width="4.938" height="1.065" transform="translate(3369.139 1444.144)" fill="#f1f7f7"/>
    <rect id="Rectangle_1152" data-name="Rectangle 1152" width="2.624" height="0.875" transform="translate(3367.137 1446.99)" fill="#7e8080"/>
    <rect id="Rectangle_1153" data-name="Rectangle 1153" width="1.421" height="0.875" transform="translate(3370.854 1446.99)" fill="#7e8080"/>
    <path id="Path_3338" data-name="Path 3338" d="M3062.02,3638.474a2.57,2.57,0,0,0,2.29,2.778h10.7a2.569,2.569,0,0,0,2.289-2.778v-4.261a2.57,2.57,0,0,0-2.289-2.78h-10.7a2.571,2.571,0,0,0-2.29,2.78Z" transform="translate(350.945 -2151.474)" fill="#d4d5d5"/>
    <path id="Path_3339" data-name="Path 3339" d="M2730,3976.055h15.246l7.267,4.909h-29.779Z" transform="translate(682.979 -2488.732)" fill="#fcfdff"/>
    <rect id="Rectangle_1154" data-name="Rectangle 1154" width="11.168" height="0.812" transform="translate(3415.02 1479.554)" fill="#d4d5d5"/>
    <path id="Path_3340" data-name="Path 3340" d="M1901.545,1581.974h0l.18.261-1.641,3.361-13.7-.415,4.171-8.541Z" transform="translate(1501.461 -140.584)" fill="#babbbb"/>
    <path id="Path_3341" data-name="Path 3341" d="M2085.777,1176.9l8.776,10.5-1.642,3.36-.317.019-10.989-5.334Z" transform="translate(1310.411 250.612)" fill="#ebeaea"/>
    <path id="Path_3342" data-name="Path 3342" d="M2595.516,1649.635a.952.952,0,0,1,1.273-.437l10.568,5.408a.951.951,0,0,1,.437,1.273l-1.726,3.534-12.278-6.244Z" transform="translate(809.169 -211.497)" fill="#d15252"/>
    <path id="Path_3343" data-name="Path 3343" d="M2522.759,1845.753l-1.722,3.525a.952.952,0,0,1-1.273.438l-10.568-5.408a.952.952,0,0,1-.438-1.274l1.722-3.526Z" transform="translate(892.479 -397.837)" fill="#b73737"/>
    <path id="Path_3344" data-name="Path 3344" d="M2786.678,1766.623a.872.872,0,0,0,.4,1.167l3.423,1.671a.872.872,0,1,0,.766-1.568l-3.423-1.672a.872.872,0,0,0-1.167.4" transform="translate(620.491 -326.028)" fill="#dbdad9"/>
    <path id="Path_3345" data-name="Path 3345" d="M1845.91,1166.4a.73.73,0,0,0,1.312.641l8.073-16.529a.73.73,0,0,0-1.312-.641Z" transform="translate(1541.144 277.468)" fill="#b73737"/>
    <path id="Path_3346" data-name="Path 3346" d="M3108.67,2012.763a3.121,3.121,0,0,1-4.03,1.47l2.711-5.552a3.121,3.121,0,0,1,1.318,4.082" transform="translate(309.236 -563.394)" fill="#babbbb"/>
    <path id="Path_3347" data-name="Path 3347" d="M2517.606,2609.757l-.093.215a1.123,1.123,0,1,0,1.95,1.1l.04-.062c-.573-.347-1.155-.741-1.671-1.108Z" transform="translate(884.08 -1151.626)" fill="#dbdad9"/>
    <path id="Path_3348" data-name="Path 3348" d="M2695.615,2174.018s-.379-.46.441-1.9l-2.443-1.193-.65,1.508,2.119,1.317Z" transform="translate(712.117 -722.169)" fill="#dbdad9"/>
    <path id="Path_3349" data-name="Path 3349" d="M2435.2,2198.75s0-.112-.006-.3c0-.026,0-.054,0-.083,0-.13-.005-.289-.008-.467a4.79,4.79,0,0,0-.014-.9,6.079,6.079,0,0,0-1.57-3.329l-1.139-.557c-.82,1.442-.44,1.9-.44,1.9l-.534-.271-2.119-1.316-1.487-.924a1.078,1.078,0,0,0-1.128,1.816l1.078.669-.025.039-1.358-.844a1.07,1.07,0,0,0-1.129,1.817l.115.072a1.034,1.034,0,0,0-1.168.476,1.016,1.016,0,0,0,.243,1.409l.284.177a1.084,1.084,0,0,0-.982.558.972.972,0,0,0,.143,1.346l2.021,1.256.226.14c.516.367,1.1.761,1.671,1.108.351.212.7.407,1.024.566a9.469,9.469,0,0,0,2.955.91,7.6,7.6,0,0,1,1.058.205.175.175,0,0,0,.236-.092l2.429-4.974c.118-.241-.409-.341-.375-.411" transform="translate(975.715 -743.167)" fill="#f2c3a4"/>
    <path id="Path_3350" data-name="Path 3350" d="M2936.542,2504.379l1.227-2.513a.533.533,0,0,1,.712-.244l1.911.934a.532.532,0,0,1,.245.712l-1.227,2.512-.652-.319Z" transform="translate(473.742 -1045.749)" fill="#c1e0da"/>
    <path id="Path_3351" data-name="Path 3351" d="M2876.649,2635.631l1.226-2.513,2.218,1.083.651.319-1.227,2.512a.532.532,0,0,1-.712.245l-1.911-.934a.531.531,0,0,1-.244-.712" transform="translate(532.408 -1174.489)" fill="#71b27a"/>
    <path id="Path_3352" data-name="Path 3352" d="M2976.792,2787.629a.517.517,0,1,0-.237-.691.516.516,0,0,0,.237.691" transform="translate(434.635 -1324.738)" fill="#c1e0da"/>
    <path id="Path_3353" data-name="Path 3353" d="M3035.849,2816.468a.517.517,0,1,0-.238-.691.518.518,0,0,0,.238.691" transform="translate(376.841 -1352.96)" fill="#c1e0da"/>
    <path id="Path_3354" data-name="Path 3354" d="M1983.63,1208.892c.151-.207.359-.266.465-.132l1.694,2.152a.564.564,0,0,1-.082.617c-.125.171-.288.241-.4.185a.167.167,0,0,1-.065-.053l-1.695-2.152a.567.567,0,0,1,.083-.617" transform="translate(1406.433 219.506)" fill="#dbdad9"/>
    <path id="Path_3355" data-name="Path 3355" d="M1739.044,1709.671c-.07.246.011.447.182.448l2.739.013c.17,0,.366-.2.435-.445.058-.2.013-.374-.1-.429a.186.186,0,0,0-.082-.018l-2.739-.013c-.171,0-.366.2-.436.445" transform="translate(1645.677 -270.337)" fill="#dbdad9"/>
    <path id="Path_3356" data-name="Path 3356" d="M2257.058,2765.63a5.8,5.8,0,0,0-9.379-4.571v-4.873a9.906,9.906,0,0,1,1.282-.391v-2.165a1.182,1.182,0,0,1,1.182-1.181h2.221a1.18,1.18,0,0,1,1.181,1.181v2.165a9.987,9.987,0,0,1,3.041,1.26l1.532-1.531a1.182,1.182,0,0,1,1.671,0l1.57,1.57a1.182,1.182,0,0,1,0,1.672l-1.531,1.531a10.074,10.074,0,0,1,1.262,3.04h2.163a1.183,1.183,0,0,1,1.182,1.183v2.221a1.182,1.182,0,0,1-1.182,1.182h-2.162a10.241,10.241,0,0,1-.365,1.213h-4.845a5.78,5.78,0,0,0,1.178-3.5" transform="translate(1147.886 -1291.27)" fill="#babbbb"/>
    <path id="Path_3357" data-name="Path 3357" d="M1077.518,924.032a7.751,7.751,0,0,0,4.694,9.906,8.784,8.784,0,0,0,8.9-2.449c.773.41,2.6.364,4.42-.286,0,0-2.722.2-3.822-1.01a7.875,7.875,0,0,0,.411-.948,7.752,7.752,0,0,0-14.6-5.212" transform="translate(2293.488 503.117)" fill="#c1c3c3"/>
    <path id="Path_3358" data-name="Path 3358" d="M1109.026,873.464a7.753,7.753,0,0,0,13.054,7.8,5.43,5.43,0,0,0,4.295.446,10.666,10.666,0,0,1-3.159-2.088,7.976,7.976,0,0,0,.411-.948,7.752,7.752,0,0,0-14.6-5.212" transform="translate(2262.654 552.604)" fill="#fff"/>
    <path id="Path_3359" data-name="Path 3359" d="M1239.075,1129.782l-.381,1.372h-1.253l1.634-5.346h1.587l1.657,5.346h-1.3l-.412-1.372Zm1.356-.9-.333-1.135c-.1-.317-.191-.714-.27-1.031h-.016c-.079.317-.158.722-.246,1.031l-.318,1.135Z" transform="translate(2136.538 300.614)" fill="#231f20"/>
    <path id="Path_3360" data-name="Path 3360" d="M1499.147,1124.068a10.8,10.8,0,0,1,1.634-.111,3.44,3.44,0,0,1,2.189.571,2.366,2.366,0,0,1,.9,2.015,2.71,2.71,0,0,1-.888,2.165,3.834,3.834,0,0,1-2.466.69,10.514,10.514,0,0,1-1.372-.079Zm1.213,4.362a2.221,2.221,0,0,0,.42.024,1.657,1.657,0,0,0,1.808-1.872,1.533,1.533,0,0,0-1.681-1.7,2.474,2.474,0,0,0-.547.048Z" transform="translate(1880.425 302.427)" fill="#231f20"/>
    <path id="Path_3361" data-name="Path 3361" d="M985.921,2796.074v8.537h-6.5a3.173,3.173,0,0,1-.651,1.018.929.929,0,0,0-.736-1.018v-8.537Z" transform="translate(2390.4 -1333.963)" fill="#bd802b"/>
    <rect id="Rectangle_1155" data-name="Rectangle 1155" width="7.884" height="8.537" transform="translate(3369.173 1463.129)" fill="#fcb619"/>
    <path id="Path_3362" data-name="Path 3362" d="M1286.055,2894.771a.219.219,0,1,0,.22-.219.22.22,0,0,0-.22.219" transform="translate(2088.963 -1430.337)" fill="#1f434d"/>
    <path id="Path_3363" data-name="Path 3363" d="M1097.471,2894.771a.219.219,0,1,0,.219-.219.219.219,0,0,0-.219.219" transform="translate(2273.518 -1430.337)" fill="#1f434d"/>
    <path id="Path_3364" data-name="Path 3364" d="M1325.544,2821.173h-1.22v-.492c.05.175.354.359,1.22.492" transform="translate(2051.513 -1358.045)" fill="#845622"/>
    <path id="Path_3365" data-name="Path 3365" d="M977.293,2796.074h6.436s-.541.253-.463.525v.493h-5.973v-.449h0c.006-.179-.323-.385-1.47-.569Z" transform="translate(2392.571 -1333.963)" fill="#e79f23"/>
    <path id="Path_3366" data-name="Path 3366" d="M1013.161,2822.712h0v.449h-.691s.678-.2.687-.449" transform="translate(2356.699 -1360.032)" fill="#845622"/>
    <path id="Path_3367" data-name="Path 3367" d="M1101.718,2911.066v1.253c0,.743.84,1.348,1.871,1.348s1.87-.6,1.87-1.348v-1.253h.28v1.253a2.234,2.234,0,0,1-4.3,0v-1.253Z" transform="translate(2269.635 -1446.498)" fill="#1f434d"/>
    <path id="Path_3368" data-name="Path 3368" d="M1101.718,2904.534v1.252c0,.744.84,1.348,1.871,1.348s1.87-.6,1.87-1.348v-1.252h.28v1.252a2.234,2.234,0,0,1-4.3,0v-1.252Z" transform="translate(2269.635 -1440.106)" fill="#f2f8ef"/>
    <path id="Path_3369" data-name="Path 3369" d="M841.544,3080.535V3091.3h-8.188a4,4,0,0,1-.821,1.283,1.171,1.171,0,0,0-.928-1.283v-10.761Z" transform="translate(2533.701 -1612.346)" fill="#217e99"/>
    <rect id="Rectangle_1156" data-name="Rectangle 1156" width="9.938" height="10.76" transform="translate(3366.236 1469.472)" fill="#3ab2e0"/>
    <path id="Path_3370" data-name="Path 3370" d="M1219.884,3204.939a.276.276,0,1,0,.276-.276.277.277,0,0,0-.276.276" transform="translate(2153.721 -1733.822)" fill="#1f434d"/>
    <path id="Path_3371" data-name="Path 3371" d="M982.164,3204.939a.276.276,0,1,0,.276-.276.277.277,0,0,0-.276.276" transform="translate(2386.361 -1733.822)" fill="#1f434d"/>
    <path id="Path_3372" data-name="Path 3372" d="M1269.658,3112.179h-1.538v-.621c.063.221.446.454,1.538.621" transform="translate(2106.516 -1642.707)" fill="#1a6071"/>
    <path id="Path_3373" data-name="Path 3373" d="M830.688,3080.535H838.8s-.683.318-.584.663v.621h-7.529v-.566h0c.008-.225-.407-.484-1.854-.717Z" transform="translate(2536.418 -1612.346)" fill="#2897cd"/>
    <path id="Path_3374" data-name="Path 3374" d="M875.9,3114.1h0v.566h-.87s.855-.248.867-.566" transform="translate(2491.201 -1645.199)" fill="#1a6071"/>
    <path id="Path_3375" data-name="Path 3375" d="M987.508,3225.5v1.58c0,.937,1.058,1.7,2.358,1.7s2.358-.762,2.358-1.7v-1.58h.352v1.58c0,1.132-1.215,2.052-2.71,2.052s-2.71-.92-2.71-2.052v-1.58Z" transform="translate(2381.477 -1754.211)" fill="#1f434d"/>
    <path id="Path_3376" data-name="Path 3376" d="M987.508,3217.264v1.58c0,.937,1.058,1.7,2.358,1.7s2.358-.761,2.358-1.7v-1.58h.352v1.58c0,1.131-1.215,2.051-2.71,2.051s-2.71-.92-2.71-2.051v-1.58Z" transform="translate(2381.477 -1746.154)" fill="#f2f8ef"/>
    <path id="Path_3377" data-name="Path 3377" d="M2881.052,890.61a6.59,6.59,0,1,1-6.59-6.59,6.59,6.59,0,0,1,6.59,6.59" transform="translate(540.945 537.237)" fill="#fff"/>
    <path id="Path_3378" data-name="Path 3378" d="M3228.578,1171.041a3.794,3.794,0,0,0-.347-1.26h-2.037a3.76,3.76,0,0,0-.347,1.26,1.755,1.755,0,0,0,0,.318c.075.678.769.745,1.1,1.16a6.027,6.027,0,0,1,.116,2.274c-.069.211-.355.272-.593.3-.087.012-.23-.016-.275.087a7.677,7.677,0,0,0,2.037,0c-.046-.1-.189-.075-.276-.087-.239-.032-.524-.093-.594-.3a6.032,6.032,0,0,1,.116-2.274c.33-.414,1.025-.481,1.1-1.16a1.755,1.755,0,0,0,0-.318" transform="translate(190.626 257.582)" fill="#a5dce3"/>
    <path id="Path_3379" data-name="Path 3379" d="M3021.644,960.408a1.224,1.224,0,0,0-.912-1.264V956.6h-.991v2.539a1.224,1.224,0,0,0-.912,1.264.014.014,0,0,0,0,.006v5.993a4.553,4.553,0,0,0,2.819,0v-5.993a.018.018,0,0,0,0-.006" transform="translate(393.214 466.203)" fill="#0f0f1c"/>
    <rect id="Rectangle_1157" data-name="Rectangle 1157" width="2.818" height="1.625" transform="translate(3412.042 1427.607)" fill="#fff"/>
    <path id="Path_3380" data-name="Path 3380" d="M3059.162,952.878h-1.145v.79h.057v1.3h1.03v-1.3h.058Z" transform="translate(354.862 469.851)" fill="#c01f46"/>
    <path id="Rectangle_1158" data-name="Rectangle 1158" d="M.49,0H1.914A.49.49,0,0,1,2.4.49v0a.49.49,0,0,1-.49.49H.49A.49.49,0,0,1,0,.49v0A.49.49,0,0,1,.49,0Z" transform="translate(3412.245 1427.971)" fill="#c01f46"/>
    <path id="Path_3381" data-name="Path 3381" d="M3239.937,1217.1c.114.834-.772,1.235-1.628,1.031a.859.859,0,0,1-.6-1.121c.762-.262,1.407.269,2.226.09" transform="translate(179.051 211.437)" fill="#c01f46" fill-rule="evenodd"/>
    <path id="Path_3382" data-name="Path 3382" d="M1387.28,6.594A6.591,6.591,0,1,1,1380.69,0a6.591,6.591,0,0,1,6.59,6.59" transform="translate(2002.8 1402.365)" fill="#fcb619"/>
    <path id="Path_3383" data-name="Path 3383" d="M1413.3,312.29h-1.183v-.642h1.183Z" transform="translate(1965.595 1097.378)" fill="#f06247"/>
    <path id="Path_3384" data-name="Path 3384" d="M1429.966,307.333l.347-.344s3.855-.39,4.855.574h1.13l-.191.6h-.959s-.612,2.454-2.611,2.5-3.325-1.376-2.57-3.325" transform="translate(1948.337 1102.015)" fill="#f06247"/>
    <path id="Path_3385" data-name="Path 3385" d="M1455.73,325.577l.269-.267s2.989-.3,3.764.445l.018.13-.008.212-.026.12s-.474,1.9-2.024,1.938-2.578-1.067-1.993-2.578" transform="translate(1923.077 1084.068)" fill="#a5dce3"/>
    <path id="Path_3386" data-name="Path 3386" d="M1944.438,314.717h1.183v-.642h-1.183Z" transform="translate(1444.648 1095.004)" fill="#f06247"/>
    <path id="Path_3387" data-name="Path 3387" d="M1681.726,309.769l-.347-.344s-3.855-.39-4.855.573h-.939l-.2.6h1.159s.612,2.454,2.611,2.5,3.325-1.376,2.571-3.325" transform="translate(1707.952 1099.631)" fill="#f06247"/>
    <path id="Path_3388" data-name="Path 3388" d="M1763.028,328.014l-.269-.266s-2.989-.3-3.764.444l-.018.13.009.212.025.12s.475,1.9,2.025,1.938,2.578-1.067,1.993-2.579" transform="translate(1626.146 1081.683)" fill="#a5dce3"/>
    <path id="Path_3389" data-name="Path 3389" d="M1745.314,2280.287a.618.618,0,0,1-.06-.029l.106-.2c.015.008.029.015.043.021a.418.418,0,0,0,.453-.067,1.444,1.444,0,0,0,.394-.561,2.864,2.864,0,0,0,.189-1.79l.211-.069a3.07,3.07,0,0,1-.2,1.949,1.658,1.658,0,0,1-.462.647.643.643,0,0,1-.671.1l-.007,0" transform="translate(1639.575 -826.565)" fill="#fff"/>
    <path id="Path_3390" data-name="Path 3390" d="M1699.269,2346.519a.5.5,0,0,1-.184.682l-3.463,2a.5.5,0,0,1-.682-.184l-3.454-6a27.515,27.515,0,0,1,.616-3.75,28.075,28.075,0,0,1,3.713,1.256Z" transform="translate(1692.212 -886.916)" fill="#10606d"/>
    <path id="Path_3391" data-name="Path 3391" d="M1733.122,2375.521a.592.592,0,1,1-.808-.218.591.591,0,0,1,.808.218" transform="translate(1652.531 -922.105)" fill="#fff"/>
    <path id="Path_3392" data-name="Path 3392" d="M1441.628,2331.552a.5.5,0,0,1-.674.211l-3.539-1.859a.5.5,0,0,1-.21-.675l3.217-6.126a27.665,27.665,0,0,1,3.5-1.487,28.118,28.118,0,0,1,.926,3.81Z" transform="translate(1941.099 -869.643)" fill="#da4643"/>
    <path id="Path_3393" data-name="Path 3393" d="M1694.416,2361.515a.592.592,0,1,1-.249-.8.591.591,0,0,1,.249.8" transform="translate(1690.42 -907.84)" fill="#fff"/>
    <path id="Path_3394" data-name="Path 3394" d="M1713.071,2279.65a1.329,1.329,0,0,1,.175-.552,4.684,4.684,0,0,1,1.447-1.567.725.725,0,0,1,.461-.1l0,.008-.024.162a.63.63,0,0,0-.324.121,3.2,3.2,0,0,0-.49.383,4.531,4.531,0,0,0-.877,1.1,1.132,1.132,0,0,0-.149.455.216.216,0,0,0,.114.223l.013.006-.1.2-.02-.01-.007,0a.442.442,0,0,1-.227-.423" transform="translate(1671.072 -826.396)" fill="#fff"/>
    <path id="Path_3395" data-name="Path 3395" d="M1527.785,2645.884a.731.731,0,0,1,.241-.131l.093.281a.36.36,0,0,0-.243.206q-.085.167-.028.254a.121.121,0,0,0,.135.068.412.412,0,0,0,.191-.172.79.79,0,0,1,.278-.264.391.391,0,0,1,.386.013.4.4,0,0,1,.212.3.635.635,0,0,1-.059.421.927.927,0,0,1-.219.3.778.778,0,0,1-.262.149l-.093-.28a.5.5,0,0,0,.29-.252c.063-.125.075-.214.038-.272a.167.167,0,0,0-.159-.081c-.068,0-.14.067-.215.184a.855.855,0,0,1-.257.257.349.349,0,0,1-.36-.006.392.392,0,0,1-.218-.309.622.622,0,0,1,.052-.384.848.848,0,0,1,.2-.279" transform="translate(1852.652 -1186.854)" fill="#fff"/>
    <path id="Path_3396" data-name="Path 3396" d="M1561.044,2594.47l-1.119-1.263.141-.28,1.68.144-.149.3-.257-.024-.318.635.172.192Zm-.671-1.223.425.48.211-.42Z" transform="translate(1820.945 -1135.156)" fill="#fff"/>
    <path id="Path_3397" data-name="Path 3397" d="M1584.767,2535.739l1.139.572.375-.746.262.13-.516,1.027-1.4-.7Z" transform="translate(1796.772 -1079.019)" fill="#fff"/>
    <path id="Path_3398" data-name="Path 3398" d="M1615.522,2451.8l-1.4-.7.516-1.029.261.132-.375.748.3.15.281-.561.26.131-.281.561.318.159.376-.746.261.131Z" transform="translate(1767.906 -995.346)" fill="#fff"/>
    <path id="Path_3399" data-name="Path 3399" d="M1797.746,2529.236a.71.71,0,1,1,.772-1.053.71.71,0,0,1-.772,1.053m.357-.37a.335.335,0,0,0,.164-.222.377.377,0,0,0-.053-.28.369.369,0,0,0-.222-.175.364.364,0,0,0-.439.266.405.405,0,0,0,.275.454.335.335,0,0,0,.274-.042m.779,1.579-.091-3.225.391-.236.095,3.223Zm1.1-.88a.718.718,0,1,1,.53-.086.675.675,0,0,1-.53.086m.347-.37a.327.327,0,0,0,.161-.218.389.389,0,0,0-.267-.442.329.329,0,0,0-.27.042.323.323,0,0,0-.159.217.364.364,0,0,0,.05.271.367.367,0,0,0,.217.172.329.329,0,0,0,.268-.042" transform="translate(1588.734 -1070.623)" fill="#fff"/>
  </g>
</svg>
